<?xml version="1.0" encoding="us-ascii" standalone="no"?><svg xmlns="http://www.w3.org/2000/svg" xmlns:xlink="http://www.w3.org/1999/xlink" contentStyleType="text/css" height="1614.6px" preserveAspectRatio="none" style="width:357px;height:1614px;background:#FFFFFF;" version="1.1" viewBox="0 0 357 1614" width="357.6px" zoomAndPan="magnify"><defs/><g><text fill="#000000" font-family="sans-serif" font-size="8.4" font-weight="bold" lengthAdjust="spacing" textLength="16.2" x="164.25" y="21.6264">APP</text><line style="stroke:#181818;stroke-width:0.8999999999999999;" x1="33.9" x2="33.9" y1="63.9053" y2="75.9053"/><rect fill="#F1F1F1" height="21.8332" style="stroke:#181818;stroke-width:0.8999999999999999;" width="55.8" x="6" y="75.9053"/><text fill="#000000" font-family="sans-serif" font-size="7.2" lengthAdjust="spacing" textLength="43.8" x="12" y="90.1564">DeviceListFG</text><line style="stroke:#181818;stroke-width:0.8999999999999999;" x1="33.9" x2="39.9" y1="117.6551" y2="117.6551"/><rect fill="#F1F1F1" height="21.8332" style="stroke:#181818;stroke-width:0.8999999999999999;" width="87" x="39.9" y="106.7385"/><text fill="#000000" font-family="sans-serif" font-size="7.2" lengthAdjust="spacing" textLength="75" x="45.9" y="120.9896">SesameBikeSettingFG</text><line style="stroke:#181818;stroke-width:0.8999999999999999;" x1="83.4" x2="89.4" y1="148.4883" y2="148.4883"/><rect fill="#F1F1F1" height="21.8332" style="stroke:#181818;stroke-width:0.8999999999999999;" width="65.4" x="89.4" y="137.5717"/><text fill="#000000" font-family="sans-serif" font-size="7.2" lengthAdjust="spacing" textLength="53.4" x="95.4" y="151.8229">GuestKeyListFG</text><line style="stroke:#181818;stroke-width:0.8999999999999999;" x1="83.4" x2="89.4" y1="179.3215" y2="179.3215"/><rect fill="#F1F1F1" height="21.8332" style="stroke:#181818;stroke-width:0.8999999999999999;" width="61.2" x="89.4" y="168.4049"/><text fill="#000000" font-family="sans-serif" font-size="7.2" lengthAdjust="spacing" textLength="49.2" x="95.4" y="182.6561">AddMemberFG</text><line style="stroke:#181818;stroke-width:0.8999999999999999;" x1="83.4" x2="89.4" y1="210.1547" y2="210.1547"/><rect fill="#F1F1F1" height="21.8332" style="stroke:#181818;stroke-width:0.8999999999999999;" width="59.4" x="89.4" y="199.2381"/><text fill="#000000" font-family="sans-serif" font-size="7.2" lengthAdjust="spacing" textLength="47.4" x="95.4" y="213.4893">KeyQrCodeFG</text><line style="stroke:#181818;stroke-width:0.8999999999999999;" x1="83.4" x2="83.4" y1="128.5717" y2="210.1547"/><line style="stroke:#181818;stroke-width:0.8999999999999999;" x1="33.9" x2="39.9" y1="240.9879" y2="240.9879"/><rect fill="#F1F1F1" height="21.8332" style="stroke:#181818;stroke-width:0.8999999999999999;" width="57.6" x="39.9" y="230.0713"/><text fill="#000000" font-family="sans-serif" font-size="7.2" lengthAdjust="spacing" textLength="45.6" x="45.9" y="244.3225">MainRoomFG</text><line style="stroke:#181818;stroke-width:0.8999999999999999;" x1="68.7" x2="74.7" y1="271.8211" y2="271.8211"/><rect fill="#F1F1F1" height="21.8332" style="stroke:#181818;stroke-width:0.8999999999999999;" width="63.6" x="74.7" y="260.9045"/><text fill="#000000" font-family="sans-serif" font-size="7.2" lengthAdjust="spacing" textLength="51.6" x="80.7" y="275.1557">SSM2SettingFG</text><line style="stroke:#181818;stroke-width:0.8999999999999999;" x1="106.5" x2="112.5" y1="302.6543" y2="302.6543"/><rect fill="#F1F1F1" height="21.8332" style="stroke:#181818;stroke-width:0.8999999999999999;" width="59.4" x="112.5" y="291.7377"/><text fill="#000000" font-family="sans-serif" font-size="7.2" lengthAdjust="spacing" textLength="47.4" x="118.5" y="305.9889">KeyQrCodeFG</text><line style="stroke:#181818;stroke-width:0.8999999999999999;" x1="106.5" x2="106.5" y1="282.7377" y2="302.6543"/><line style="stroke:#181818;stroke-width:0.8999999999999999;" x1="68.7" x2="68.7" y1="251.9045" y2="271.8211"/><line style="stroke:#181818;stroke-width:0.8999999999999999;" x1="33.9" x2="39.9" y1="333.4875" y2="333.4875"/><rect fill="#F1F1F1" height="21.8332" style="stroke:#181818;stroke-width:0.8999999999999999;" width="71.4" x="39.9" y="322.5709"/><text fill="#000000" font-family="sans-serif" font-size="7.2" lengthAdjust="spacing" textLength="59.4" x="45.9" y="336.8221">MainRoomSS5FG</text><line style="stroke:#181818;stroke-width:0.8999999999999999;" x1="75.6" x2="81.6" y1="364.3207" y2="364.3207"/><rect fill="#F1F1F1" height="21.8332" style="stroke:#181818;stroke-width:0.8999999999999999;" width="63.6" x="81.6" y="353.4041"/><text fill="#000000" font-family="sans-serif" font-size="7.2" lengthAdjust="spacing" textLength="51.6" x="87.6" y="367.6553">SSM5SettingFG</text><line style="stroke:#181818;stroke-width:0.8999999999999999;" x1="75.6" x2="75.6" y1="344.4041" y2="364.3207"/><line style="stroke:#181818;stroke-width:0.8999999999999999;" x1="33.9" x2="39.9" y1="395.1539" y2="395.1539"/><rect fill="#F1F1F1" height="21.8332" style="stroke:#181818;stroke-width:0.8999999999999999;" width="70.2" x="39.9" y="384.2373"/><text fill="#000000" font-family="sans-serif" font-size="7.2" lengthAdjust="spacing" textLength="58.2" x="45.9" y="398.4885">SSM2SetAngleFG</text><line style="stroke:#181818;stroke-width:0.8999999999999999;" x1="33.9" x2="39.9" y1="425.9871" y2="425.9871"/><rect fill="#F1F1F1" height="21.8332" style="stroke:#181818;stroke-width:0.8999999999999999;" width="60.6" x="39.9" y="415.0705"/><text fill="#000000" font-family="sans-serif" font-size="7.2" lengthAdjust="spacing" textLength="48.6" x="45.9" y="429.3217">WM2SettingFG</text><line style="stroke:#181818;stroke-width:0.8999999999999999;" x1="70.2" x2="76.2" y1="456.8203" y2="456.8203"/><rect fill="#F1F1F1" height="21.8332" style="stroke:#181818;stroke-width:0.8999999999999999;" width="83.4" x="76.2" y="445.9037"/><text fill="#000000" font-family="sans-serif" font-size="7.2" lengthAdjust="spacing" textLength="71.4" x="82.2" y="460.1549">WM2ScanSSIDListFG</text><line style="stroke:#181818;stroke-width:0.8999999999999999;" x1="70.2" x2="76.2" y1="487.6535" y2="487.6535"/><rect fill="#F1F1F1" height="21.8332" style="stroke:#181818;stroke-width:0.8999999999999999;" width="92.4" x="76.2" y="476.7369"/><text fill="#000000" font-family="sans-serif" font-size="7.2" lengthAdjust="spacing" textLength="80.4" x="82.2" y="490.9881">WM2SelectLockerListFG</text><line style="stroke:#181818;stroke-width:0.8999999999999999;" x1="70.2" x2="76.2" y1="518.4867" y2="518.4867"/><rect fill="#F1F1F1" height="21.8332" style="stroke:#181818;stroke-width:0.8999999999999999;" width="59.4" x="76.2" y="507.5701"/><text fill="#000000" font-family="sans-serif" font-size="7.2" lengthAdjust="spacing" textLength="47.4" x="82.2" y="521.8213">KeyQrCodeFG</text><line style="stroke:#181818;stroke-width:0.8999999999999999;" x1="70.2" x2="70.2" y1="436.9037" y2="518.4867"/><line style="stroke:#181818;stroke-width:0.8999999999999999;" x1="33.9" x2="39.9" y1="549.3199" y2="549.3199"/><rect fill="#F1F1F1" height="21.8332" style="stroke:#181818;stroke-width:0.8999999999999999;" width="87.6" x="39.9" y="538.4033"/><text fill="#000000" font-family="sans-serif" font-size="7.2" lengthAdjust="spacing" textLength="75.6" x="45.9" y="552.6545">SesameBot2SettingFG</text><line style="stroke:#181818;stroke-width:0.8999999999999999;" x1="83.7" x2="89.7" y1="580.1531" y2="580.1531"/><rect fill="#F1F1F1" height="21.8332" style="stroke:#181818;stroke-width:0.8999999999999999;" width="61.2" x="89.7" y="569.2365"/><text fill="#000000" font-family="sans-serif" font-size="7.2" lengthAdjust="spacing" textLength="49.2" x="95.7" y="583.4877">AddMemberFG</text><line style="stroke:#181818;stroke-width:0.8999999999999999;" x1="83.7" x2="89.7" y1="610.9863" y2="610.9863"/><rect fill="#F1F1F1" height="21.8332" style="stroke:#181818;stroke-width:0.8999999999999999;" width="59.4" x="89.7" y="600.0697"/><text fill="#000000" font-family="sans-serif" font-size="7.2" lengthAdjust="spacing" textLength="47.4" x="95.7" y="614.3209">KeyQrCodeFG</text><line style="stroke:#181818;stroke-width:0.8999999999999999;" x1="83.7" x2="89.7" y1="641.8195" y2="641.8195"/><rect fill="#F1F1F1" height="21.8332" style="stroke:#181818;stroke-width:0.8999999999999999;" width="65.4" x="89.7" y="630.9029"/><text fill="#000000" font-family="sans-serif" font-size="7.2" lengthAdjust="spacing" textLength="53.4" x="95.7" y="645.1541">GuestKeyListFG</text><line style="stroke:#181818;stroke-width:0.8999999999999999;" x1="83.7" x2="83.7" y1="560.2365" y2="641.8195"/><line style="stroke:#181818;stroke-width:0.8999999999999999;" x1="33.9" x2="39.9" y1="672.6527" y2="672.6527"/><rect fill="#F1F1F1" height="21.8332" style="stroke:#181818;stroke-width:0.8999999999999999;" width="63.6" x="39.9" y="661.7361"/><text fill="#000000" font-family="sans-serif" font-size="7.2" lengthAdjust="spacing" textLength="51.6" x="45.9" y="675.9873">SSM2SettingFG</text><line style="stroke:#181818;stroke-width:0.8999999999999999;" x1="71.7" x2="77.7" y1="703.4859" y2="703.4859"/><rect fill="#F1F1F1" height="21.8332" style="stroke:#181818;stroke-width:0.8999999999999999;" width="70.2" x="77.7" y="692.5693"/><text fill="#000000" font-family="sans-serif" font-size="7.2" lengthAdjust="spacing" textLength="58.2" x="83.7" y="706.8205">SSM2SetAngleFG</text><line style="stroke:#181818;stroke-width:0.8999999999999999;" x1="71.7" x2="77.7" y1="734.3191" y2="734.3191"/><rect fill="#F1F1F1" height="21.8332" style="stroke:#181818;stroke-width:0.8999999999999999;" width="61.2" x="77.7" y="723.4025"/><text fill="#000000" font-family="sans-serif" font-size="7.2" lengthAdjust="spacing" textLength="49.2" x="83.7" y="737.6537">AddMemberFG</text><line style="stroke:#181818;stroke-width:0.8999999999999999;" x1="108.3" x2="114.3" y1="765.1523" y2="765.1523"/><rect fill="#F1F1F1" height="21.8332" style="stroke:#181818;stroke-width:0.8999999999999999;" width="65.4" x="114.3" y="754.2357"/><text fill="#000000" font-family="sans-serif" font-size="7.2" lengthAdjust="spacing" textLength="53.4" x="120.3" y="768.4869">ScanQRcodeFG</text><line style="stroke:#181818;stroke-width:0.8999999999999999;" x1="108.3" x2="108.3" y1="745.2357" y2="765.1523"/><line style="stroke:#181818;stroke-width:0.8999999999999999;" x1="71.7" x2="77.7" y1="795.9855" y2="795.9855"/><rect fill="#F1F1F1" height="21.8332" style="stroke:#181818;stroke-width:0.8999999999999999;" width="59.4" x="77.7" y="785.0689"/><text fill="#000000" font-family="sans-serif" font-size="7.2" lengthAdjust="spacing" textLength="47.4" x="83.7" y="799.3201">KeyQrCodeFG</text><line style="stroke:#181818;stroke-width:0.8999999999999999;" x1="71.7" x2="77.7" y1="826.8188" y2="826.8188"/><rect fill="#F1F1F1" height="21.8332" style="stroke:#181818;stroke-width:0.8999999999999999;" width="65.4" x="77.7" y="815.9021"/><text fill="#000000" font-family="sans-serif" font-size="7.2" lengthAdjust="spacing" textLength="53.4" x="83.7" y="830.1533">GuestKeyListFG</text><line style="stroke:#181818;stroke-width:0.8999999999999999;" x1="71.7" x2="77.7" y1="857.652" y2="857.652"/><rect fill="#F1F1F1" height="21.8332" style="stroke:#181818;stroke-width:0.8999999999999999;" width="84" x="77.7" y="846.7354"/><text fill="#000000" font-family="sans-serif" font-size="7.2" lengthAdjust="spacing" textLength="72" x="83.7" y="860.9865">SSM2NoHandLockFG</text><line style="stroke:#181818;stroke-width:0.8999999999999999;" x1="71.7" x2="71.7" y1="683.5693" y2="857.652"/><line style="stroke:#181818;stroke-width:0.8999999999999999;" x1="33.9" x2="39.9" y1="888.4852" y2="888.4852"/><rect fill="#F1F1F1" height="21.8332" style="stroke:#181818;stroke-width:0.8999999999999999;" width="114.6" x="39.9" y="877.5686"/><text fill="#000000" font-family="sans-serif" font-size="7.2" lengthAdjust="spacing" textLength="102.6" x="45.9" y="891.8197">SesameOpenSensorSettingFG</text><line style="stroke:#181818;stroke-width:0.8999999999999999;" x1="33.9" x2="39.9" y1="919.3184" y2="919.3184"/><rect fill="#F1F1F1" height="21.8332" style="stroke:#181818;stroke-width:0.8999999999999999;" width="104.4" x="39.9" y="908.4018"/><text fill="#000000" font-family="sans-serif" font-size="7.2" lengthAdjust="spacing" textLength="92.4" x="45.9" y="922.6529">SesameTouchProSettingFG</text><line style="stroke:#181818;stroke-width:0.8999999999999999;" x1="92.1" x2="98.1" y1="950.1516" y2="950.1516"/><rect fill="#F1F1F1" height="21.8332" style="stroke:#181818;stroke-width:0.8999999999999999;" width="135.6" x="98.1" y="939.235"/><text fill="#000000" font-family="sans-serif" font-size="7.2" lengthAdjust="spacing" textLength="123.6" x="104.1" y="953.4861">SesameKeyboardSelectLockerListFG</text><line style="stroke:#181818;stroke-width:0.8999999999999999;" x1="92.1" x2="98.1" y1="980.9848" y2="980.9848"/><rect fill="#F1F1F1" height="21.8332" style="stroke:#181818;stroke-width:0.8999999999999999;" width="91.8" x="98.1" y="970.0682"/><text fill="#000000" font-family="sans-serif" font-size="7.2" lengthAdjust="spacing" textLength="79.8" x="104.1" y="984.3193">SesameKeyboardCards</text><line style="stroke:#181818;stroke-width:0.8999999999999999;" x1="92.1" x2="98.1" y1="1011.818" y2="1011.818"/><rect fill="#F1F1F1" height="21.8332" style="stroke:#181818;stroke-width:0.8999999999999999;" width="106.8" x="98.1" y="1000.9014"/><text fill="#000000" font-family="sans-serif" font-size="7.2" lengthAdjust="spacing" textLength="94.8" x="104.1" y="1015.1525">SesameKeyboardFingerprint</text><line style="stroke:#181818;stroke-width:0.8999999999999999;" x1="92.1" x2="98.1" y1="1042.6512" y2="1042.6512"/><rect fill="#F1F1F1" height="21.8332" style="stroke:#181818;stroke-width:0.8999999999999999;" width="105" x="98.1" y="1031.7346"/><text fill="#000000" font-family="sans-serif" font-size="7.2" lengthAdjust="spacing" textLength="93" x="104.1" y="1045.9857">SesameKeyboardPassword</text><line style="stroke:#181818;stroke-width:0.8999999999999999;" x1="92.1" x2="98.1" y1="1073.4844" y2="1073.4844"/><rect fill="#F1F1F1" height="21.8332" style="stroke:#181818;stroke-width:0.8999999999999999;" width="59.4" x="98.1" y="1062.5678"/><text fill="#000000" font-family="sans-serif" font-size="7.2" lengthAdjust="spacing" textLength="47.4" x="104.1" y="1076.8189">KeyQrCodeFG</text><line style="stroke:#181818;stroke-width:0.8999999999999999;" x1="92.1" x2="98.1" y1="1104.3176" y2="1104.3176"/><rect fill="#F1F1F1" height="21.8332" style="stroke:#181818;stroke-width:0.8999999999999999;" width="61.2" x="98.1" y="1093.401"/><text fill="#000000" font-family="sans-serif" font-size="7.2" lengthAdjust="spacing" textLength="49.2" x="104.1" y="1107.6521">AddMemberFG</text><line style="stroke:#181818;stroke-width:0.8999999999999999;" x1="92.1" x2="92.1" y1="930.235" y2="1104.3176"/><line style="stroke:#181818;stroke-width:0.8999999999999999;" x1="33.9" x2="39.9" y1="1135.1508" y2="1135.1508"/><rect fill="#F1F1F1" height="21.8332" style="stroke:#181818;stroke-width:0.8999999999999999;" width="63.6" x="39.9" y="1124.2342"/><text fill="#000000" font-family="sans-serif" font-size="7.2" lengthAdjust="spacing" textLength="51.6" x="45.9" y="1138.4854">SSM5SettingFG</text><line style="stroke:#181818;stroke-width:0.8999999999999999;" x1="71.7" x2="77.7" y1="1165.984" y2="1165.984"/><rect fill="#F1F1F1" height="21.8332" style="stroke:#181818;stroke-width:0.8999999999999999;" width="61.2" x="77.7" y="1155.0674"/><text fill="#000000" font-family="sans-serif" font-size="7.2" lengthAdjust="spacing" textLength="49.2" x="83.7" y="1169.3186">AddMemberFG</text><line style="stroke:#181818;stroke-width:0.8999999999999999;" x1="71.7" x2="77.7" y1="1196.8172" y2="1196.8172"/><rect fill="#F1F1F1" height="21.8332" style="stroke:#181818;stroke-width:0.8999999999999999;" width="59.4" x="77.7" y="1185.9006"/><text fill="#000000" font-family="sans-serif" font-size="7.2" lengthAdjust="spacing" textLength="47.4" x="83.7" y="1200.1518">KeyQrCodeFG</text><line style="stroke:#181818;stroke-width:0.8999999999999999;" x1="71.7" x2="77.7" y1="1227.6504" y2="1227.6504"/><rect fill="#F1F1F1" height="21.8332" style="stroke:#181818;stroke-width:0.8999999999999999;" width="70.2" x="77.7" y="1216.7338"/><text fill="#000000" font-family="sans-serif" font-size="7.2" lengthAdjust="spacing" textLength="58.2" x="83.7" y="1230.985">SSM2SetAngleFG</text><line style="stroke:#181818;stroke-width:0.8999999999999999;" x1="71.7" x2="77.7" y1="1258.4836" y2="1258.4836"/><rect fill="#F1F1F1" height="21.8332" style="stroke:#181818;stroke-width:0.8999999999999999;" width="84" x="77.7" y="1247.567"/><text fill="#000000" font-family="sans-serif" font-size="7.2" lengthAdjust="spacing" textLength="72" x="83.7" y="1261.8182">SSM2NoHandLockFG</text><line style="stroke:#181818;stroke-width:0.8999999999999999;" x1="71.7" x2="71.7" y1="1146.0674" y2="1258.4836"/><line style="stroke:#181818;stroke-width:0.8999999999999999;" x1="33.9" x2="39.9" y1="1289.3168" y2="1289.3168"/><rect fill="#F1F1F1" height="21.8332" style="stroke:#181818;stroke-width:0.8999999999999999;" width="60.6" x="39.9" y="1278.4002"/><text fill="#000000" font-family="sans-serif" font-size="7.2" lengthAdjust="spacing" textLength="48.6" x="45.9" y="1292.6514">WM2SettingFG</text><line style="stroke:#181818;stroke-width:0.8999999999999999;" x1="33.9" x2="39.9" y1="1320.15" y2="1320.15"/><rect fill="#F1F1F1" height="21.8332" style="stroke:#181818;stroke-width:0.8999999999999999;" width="70.2" x="39.9" y="1309.2334"/><text fill="#000000" font-family="sans-serif" font-size="7.2" lengthAdjust="spacing" textLength="58.2" x="45.9" y="1323.4846">SSM2SetAngleFG</text><line style="stroke:#181818;stroke-width:0.8999999999999999;" x1="33.9" x2="39.9" y1="1350.9832" y2="1350.9832"/><rect fill="#F1F1F1" height="21.8332" style="stroke:#181818;stroke-width:0.8999999999999999;" width="61.8" x="39.9" y="1340.0666"/><text fill="#000000" font-family="sans-serif" font-size="7.2" lengthAdjust="spacing" textLength="49.8" x="45.9" y="1354.3178">FriendDetailFG</text><line style="stroke:#181818;stroke-width:0.8999999999999999;" x1="70.8" x2="76.8" y1="1381.8164" y2="1381.8164"/><rect fill="#F1F1F1" height="21.8332" style="stroke:#181818;stroke-width:0.8999999999999999;" width="97.2" x="76.8" y="1370.8998"/><text fill="#000000" font-family="sans-serif" font-size="7.2" lengthAdjust="spacing" textLength="85.2" x="82.8" y="1385.151">FriendSelectLockerListFG</text><line style="stroke:#181818;stroke-width:0.8999999999999999;" x1="70.8" x2="70.8" y1="1361.8998" y2="1381.8164"/><line style="stroke:#181818;stroke-width:0.8999999999999999;" x1="33.9" x2="39.9" y1="1412.6496" y2="1412.6496"/><rect fill="#F1F1F1" height="21.8332" style="stroke:#181818;stroke-width:0.8999999999999999;" width="55.8" x="39.9" y="1401.733"/><text fill="#000000" font-family="sans-serif" font-size="7.2" lengthAdjust="spacing" textLength="43.8" x="45.9" y="1415.9842">MyQrCodeFG</text><line style="stroke:#181818;stroke-width:0.8999999999999999;" x1="33.9" x2="39.9" y1="1443.4828" y2="1443.4828"/><rect fill="#F1F1F1" height="21.8332" style="stroke:#181818;stroke-width:0.8999999999999999;" width="53.4" x="39.9" y="1432.5662"/><text fill="#000000" font-family="sans-serif" font-size="7.2" lengthAdjust="spacing" textLength="41.4" x="45.9" y="1446.8174">LoginMailFG</text><line style="stroke:#181818;stroke-width:0.8999999999999999;" x1="66.6" x2="72.6" y1="1474.316" y2="1474.316"/><rect fill="#F1F1F1" height="21.8332" style="stroke:#181818;stroke-width:0.8999999999999999;" width="74.4" x="72.6" y="1463.3994"/><text fill="#000000" font-family="sans-serif" font-size="7.2" lengthAdjust="spacing" textLength="62.4" x="78.6" y="1477.6506">LoginVerifiCodeFG</text><line style="stroke:#181818;stroke-width:0.8999999999999999;" x1="66.6" x2="66.6" y1="1454.3994" y2="1474.316"/><line style="stroke:#181818;stroke-width:0.8999999999999999;" x1="33.9" x2="39.9" y1="1505.1492" y2="1505.1492"/><rect fill="#F1F1F1" height="21.8332" style="stroke:#181818;stroke-width:0.8999999999999999;" width="60.6" x="39.9" y="1494.2326"/><text fill="#000000" font-family="sans-serif" font-size="7.2" lengthAdjust="spacing" textLength="48.6" x="45.9" y="1508.4838">WM2SettingFG</text><line style="stroke:#181818;stroke-width:0.8999999999999999;" x1="33.9" x2="39.9" y1="1535.9824" y2="1535.9824"/><rect fill="#F1F1F1" height="21.8332" style="stroke:#181818;stroke-width:0.8999999999999999;" width="63.6" x="39.9" y="1525.0658"/><text fill="#000000" font-family="sans-serif" font-size="7.2" lengthAdjust="spacing" textLength="51.6" x="45.9" y="1539.317">SSM2SettingFG</text><line style="stroke:#181818;stroke-width:0.8999999999999999;" x1="33.9" x2="39.9" y1="1566.8156" y2="1566.8156"/><rect fill="#F1F1F1" height="21.8332" style="stroke:#181818;stroke-width:0.8999999999999999;" width="114.6" x="39.9" y="1555.899"/><text fill="#000000" font-family="sans-serif" font-size="7.2" lengthAdjust="spacing" textLength="102.6" x="45.9" y="1570.1502">SesameOpenSensorSettingFG</text><line style="stroke:#181818;stroke-width:0.8999999999999999;" x1="33.9" x2="39.9" y1="1597.6488" y2="1597.6488"/><rect fill="#F1F1F1" height="21.8332" style="stroke:#181818;stroke-width:0.8999999999999999;" width="70.2" x="39.9" y="1586.7322"/><text fill="#000000" font-family="sans-serif" font-size="7.2" lengthAdjust="spacing" textLength="58.2" x="45.9" y="1600.9834">SSM2SetAngleFG</text><line style="stroke:#181818;stroke-width:0.8999999999999999;" x1="33.9" x2="33.9" y1="97.7385" y2="1597.6488"/><line style="stroke:#181818;stroke-width:0.8999999999999999;" x1="269.7" x2="269.7" y1="63.9053" y2="75.9053"/><rect fill="#F1F1F1" height="21.8332" style="stroke:#181818;stroke-width:0.8999999999999999;" width="48" x="245.7" y="75.9053"/><text fill="#000000" font-family="sans-serif" font-size="7.2" lengthAdjust="spacing" textLength="36" x="251.7" y="90.1564">&#39030;&#37096;&#22266;&#23450;&#39033;</text><line style="stroke:#181818;stroke-width:0.8999999999999999;" x1="269.7" x2="275.7" y1="117.6551" y2="117.6551"/><rect fill="#F1F1F1" height="21.8332" style="stroke:#181818;stroke-width:0.8999999999999999;" width="75.6" x="275.7" y="106.7385"/><text fill="#000000" font-family="sans-serif" font-size="7.2" lengthAdjust="spacing" textLength="63.6" x="281.7" y="120.9896">ScanNewDeviceFG</text><line style="stroke:#181818;stroke-width:0.8999999999999999;" x1="269.7" x2="269.7" y1="97.7385" y2="117.6551"/><line style="stroke:#181818;stroke-width:0.8999999999999999;" x1="33.9" x2="269.7" y1="63.9053" y2="63.9053"/><rect fill="#F1F1F1" height="21.8332" style="stroke:#181818;stroke-width:0.8999999999999999;" width="52.8" x="125.4" y="30.0721"/><text fill="#000000" font-family="sans-serif" font-size="7.2" lengthAdjust="spacing" textLength="40.8" x="131.4" y="44.3232">SesameApp</text><line style="stroke:#181818;stroke-width:0.8999999999999999;" x1="151.8" x2="151.8" y1="51.9053" y2="63.9053"/><!--SRC=[xLGzRnD14EttLsoNn58Iny4HkF8NDjXtvk8BJhs-cpYhd7UjtJrRIOK41QAZe36YI4SLEYI2-3c6-5-mTyufT-SpkA50igLhPjwydVSyCsMfY52JlaIAAWzmnR8GGZbiWoH3g8n62ErlxIxzxjvzcjz-tzhNq1p6THXJ1mmgLQCPHABoAhq06vIYRA0JkI3Hz46gDbpUWyDOnNLD6FP1H06TFnOrxa94PnBAkfmF8u1jcuK7uZ2Mh8eNsNOnLbTCD1GnLTZ0Y-fEuzovAE8GPjlFw_6-Gw07ZZAuSm4YdahtSky7LsdgFsfVuLXAVYvRnpAtHcaLnrqdnhx6Smlo3dz6c1ieJKXwCG9c0vDSf7mDioVSTyujmTFDXadzI9yJuQxoC8cgwKzc9HgQ6CH8KAQoqXQHSiA5kq9kogFb2LddByeoVycpx4MQlvhUtNoP_VWGx5Bc-6MDQ4DGO6uT5A5UzE0Ybc5cziC_txx_DNsps62zAybnDVY0CZD67WPw8EWPZS5MjReq1okd92ajT03Fhx_ENt-UVRoTtKpdrzz2O3Yv7PWiBiq2MjPoWyE5od-_OPipjJbJcpErtfdwPsVe_xyqbaUOUcaQU0n2KixmmLuXNpZSEze-1HTNHW8VFC7vV2b_M2e-nZNx10Vf7RJTj0mikIySmAwsGz2-htJz3cgHCS5TdoawX18Ekc_Lsr40FsLZAZWRWXwQLizy01mzsgrIfJKBtGdkcQWEPyJtbAxGQwDbbt2psaO6OGEV33JprJcgSSqgBakurlaD]--></g></svg>