<?xml version="1.0" encoding="us-ascii" standalone="no"?><svg xmlns="http://www.w3.org/2000/svg" xmlns:xlink="http://www.w3.org/1999/xlink" contentStyleType="text/css" height="658.4px" preserveAspectRatio="none" style="width:472px;height:658px;background:#FFFFFF;" version="1.1" viewBox="0 0 472 658" width="472px" zoomAndPan="magnify"><defs/><g><!--cluster gattRxBuffer--><g id="cluster_gattRxBuffer"><path d="M100.112,104 L327.312,104 A10,10 0 0 1 337.312,114 L337.312,123.2961 L90.112,123.2961 L90.112,114 A10,10 0 0 1 100.112,104 " fill="#F1F1F1" style="stroke:#F1F1F1;stroke-width:0.8000000000000002;"/><rect fill="none" height="278.4" rx="10" ry="10" style="stroke:#181818;stroke-width:0.4000000000000001;" width="247.2" x="90.112" y="104"/><line style="stroke:#181818;stroke-width:0.4000000000000001;" x1="90.112" x2="337.312" y1="123.2961" y2="123.2961"/><text fill="#000000" font-family="sans-serif" font-size="11.2" lengthAdjust="spacing" textLength="62.4" x="182.512" y="120.0352">gattRxBuffer</text></g><g id="gattRxBuffer.parsingType"><rect fill="#F1F1F1" height="40" rx="10" ry="10" style="stroke:#181818;stroke-width:0.4000000000000001;" width="79.2" x="188.912" y="140.8"/><line style="stroke:#181818;stroke-width:0.4000000000000001;" x1="188.912" x2="268.112" y1="164.0961" y2="164.0961"/><text fill="#000000" font-family="sans-serif" font-size="11.2" lengthAdjust="spacing" textLength="63.2" x="196.912" y="157.6352">parsingType</text></g><g id="gattRxBuffer.gt0"><rect fill="#F1F1F1" height="40" rx="10" ry="10" style="stroke:#181818;stroke-width:0.4000000000000001;" width="40" x="246.112" y="229.6"/><line style="stroke:#181818;stroke-width:0.4000000000000001;" x1="246.112" x2="286.112" y1="252.8961" y2="252.8961"/><text fill="#000000" font-family="sans-serif" font-size="11.2" lengthAdjust="spacing" textLength="16" x="258.112" y="246.4352">gt0</text></g><g id="gattRxBuffer.0"><rect fill="#F1F1F1" height="40" rx="10" ry="10" style="stroke:#181818;stroke-width:0.4000000000000001;" width="40" x="170.112" y="229.6"/><line style="stroke:#181818;stroke-width:0.4000000000000001;" x1="170.112" x2="210.112" y1="252.8961" y2="252.8961"/><text fill="#000000" font-family="sans-serif" font-size="11.2" lengthAdjust="spacing" textLength="6.4" x="186.912" y="246.4352">0</text></g><g id="gattRxBuffer.waite"><rect fill="#F1F1F1" height="44.407" rx="10" ry="10" style="stroke:#181818;stroke-width:0.4000000000000001;" width="100.8" x="115.712" y="318.4"/><line style="stroke:#181818;stroke-width:0.4000000000000001;" x1="115.712" x2="216.512" y1="341.6961" y2="341.6961"/><text fill="#000000" font-family="sans-serif" font-size="11.2" lengthAdjust="spacing" textLength="25.6" x="153.312" y="335.2352">waite</text><text fill="#000000" font-family="sans-serif" font-size="9.6" lengthAdjust="spacing" textLength="84.8" x="119.712" y="356.6977">next read response</text></g><g id="gattRxBuffer.finish"><rect fill="#F1F1F1" height="44.407" rx="10" ry="10" style="stroke:#181818;stroke-width:0.4000000000000001;" width="73.6" x="244.512" y="318.4"/><line style="stroke:#181818;stroke-width:0.4000000000000001;" x1="244.512" x2="318.112" y1="341.6961" y2="341.6961"/><text fill="#000000" font-family="sans-serif" font-size="11.2" lengthAdjust="spacing" textLength="26.4" x="268.112" y="335.2352">finish</text><text fill="#000000" font-family="sans-serif" font-size="9.6" lengthAdjust="spacing" textLength="57.6" x="248.512" y="356.6977">receive finish</text></g><g id="BleDevice"><rect fill="#F1F1F1" height="40" rx="10" ry="10" style="stroke:#181818;stroke-width:0.4000000000000001;" width="66.4" x="63.312" y="5.6"/><line style="stroke:#181818;stroke-width:0.4000000000000001;" x1="63.312" x2="129.712" y1="28.8961" y2="28.8961"/><text fill="#000000" font-family="sans-serif" font-size="11.2" lengthAdjust="spacing" textLength="50.4" x="71.312" y="22.4352">BleDevice</text></g><g id="parseNotifyPayload"><rect fill="#F1F1F1" height="44.407" rx="10" ry="10" style="stroke:#181818;stroke-width:0.4000000000000001;" width="113.6" x="263.712" y="426.4"/><line style="stroke:#181818;stroke-width:0.4000000000000001;" x1="263.712" x2="377.312" y1="449.6961" y2="449.6961"/><text fill="#000000" font-family="sans-serif" font-size="11.2" lengthAdjust="spacing" textLength="97.6" x="271.712" y="443.2352">parseNotifyPayload</text><text fill="#000000" font-family="sans-serif" font-size="9.6" lengthAdjust="spacing" textLength="65.6" x="267.712" y="464.6977">data Decrypted</text></g><g id="onGattSesameResponse"><rect fill="#F1F1F1" height="44.407" rx="10" ry="10" style="stroke:#181818;stroke-width:0.4000000000000001;" width="142.4" x="168.512" y="520"/><line style="stroke:#181818;stroke-width:0.4000000000000001;" x1="168.512" x2="310.912" y1="543.2961" y2="543.2961"/><text fill="#000000" font-family="sans-serif" font-size="11.2" lengthAdjust="spacing" textLength="126.4" x="176.512" y="536.8352">onGattSesameResponse</text><text fill="#000000" font-family="sans-serif" font-size="9.6" lengthAdjust="spacing" textLength="107.2" x="172.512" y="558.2977">SSM2OpCode.response</text></g><g id="onGattSesamePublish"><rect fill="#F1F1F1" height="44.407" rx="10" ry="10" style="stroke:#181818;stroke-width:0.4000000000000001;" width="128" x="338.912" y="520"/><line style="stroke:#181818;stroke-width:0.4000000000000001;" x1="338.912" x2="466.912" y1="543.2961" y2="543.2961"/><text fill="#000000" font-family="sans-serif" font-size="11.2" lengthAdjust="spacing" textLength="112" x="346.912" y="536.8352">onGattSesamePublish</text><text fill="#000000" font-family="sans-serif" font-size="9.6" lengthAdjust="spacing" textLength="97.6" x="342.912" y="558.2977">SSM2OpCode.publish</text></g><g id="cmdCallBack"><rect fill="#F1F1F1" height="40" rx="10" ry="10" style="stroke:#181818;stroke-width:0.4000000000000001;" width="80.8" x="199.312" y="613.6"/><line style="stroke:#181818;stroke-width:0.4000000000000001;" x1="199.312" x2="280.112" y1="636.8961" y2="636.8961"/><text fill="#000000" font-family="sans-serif" font-size="11.2" lengthAdjust="spacing" textLength="64.8" x="207.312" y="630.4352">cmdCallBack</text></g><g id="login"><rect fill="#F1F1F1" height="40" rx="10" ry="10" style="stroke:#181818;stroke-width:0.4000000000000001;" width="40" x="382.912" y="613.6"/><line style="stroke:#181818;stroke-width:0.4000000000000001;" x1="382.912" x2="422.912" y1="636.8961" y2="636.8961"/><text fill="#000000" font-family="sans-serif" font-size="11.2" lengthAdjust="spacing" textLength="24" x="390.912" y="630.4352">login</text></g><!--link BleDevice to gattRxBuffer--><g id="link_BleDevice_gattRxBuffer"><path d="M63.296,35.776 C46.616,42.352 27.912,53.008 18.112,69.6 C4.8,92.136 23.584,114.388 46.095,131.176 C57.3505,139.57 69.5378,146.598 79.1106,151.6125 C81.5038,152.8661 83.7337,153.9939 85.7447,154.9857 C86.7502,155.4816 87.701,155.9436 88.5902,156.3702 C89.0348,156.5836 89.4639,156.7881 89.8768,156.9836 " fill="none" id="BleDevice-to-gattRxBuffer" style="stroke:#181818;stroke-width:0.8000000000000002;"/><polygon fill="#181818" points="89.8768,156.9836,84.7393,151.0099,86.2618,155.2716,82,156.794,89.8768,156.9836" style="stroke:#181818;stroke-width:0.8000000000000002;"/><text fill="#000000" font-family="sans-serif" font-size="10.4" lengthAdjust="spacing" textLength="42.4" x="18.912" y="82.3184">response</text></g><!--link BleDevice to gattRxBuffer--><g id="link_BleDevice_gattRxBuffer"><path d="M95.208,45.744 C94.768,53.2 94.328,61.792 94.112,69.6 C93.838,79.488 93.8445,89.984 94.01,100.1899 C94.0203,100.8277 94.0313,101.4645 94.0429,102.0999 C94.0486,102.4175 94.0546,102.7349 94.0606,103.0519 C94.0637,103.2104 94.0667,103.3688 94.0699,103.5271 " fill="none" id="BleDevice-to-gattRxBuffer-1" style="stroke:#181818;stroke-width:0.8000000000000002;"/><polygon fill="#181818" points="94.0699,103.5271,97.128,96.2657,93.9914,99.5279,90.7292,96.3913,94.0699,103.5271" style="stroke:#181818;stroke-width:0.8000000000000002;"/><text fill="#000000" font-family="sans-serif" font-size="10.4" lengthAdjust="spacing" textLength="42.4" x="94.912" y="82.3184">response</text></g><!--link BleDevice to gattRxBuffer--><g id="link_BleDevice_gattRxBuffer"><path d="M123.328,45.608 C130.544,52.296 137.424,60.448 141.312,69.6 C143.96,75.816 145.68,79.648 141.312,84.8 C130.128,98 114.696,78.528 102.912,91.2 C100.38,93.923 98.3674,96.9954 96.7855,100.2926 C96.39,101.1169 96.0214,101.9552 95.6784,102.8057 C95.5927,103.0183 95.5085,103.2317 95.4259,103.4458 C95.3846,103.5528 95.3437,103.6601 95.3032,103.7675 " fill="none" id="BleDevice-to-gattRxBuffer-2" style="stroke:#181818;stroke-width:0.8000000000000002;"/><polygon fill="#181818" points="95.3032,103.7675,100.8381,98.1599,96.7147,100.0248,94.8498,95.9014,95.3032,103.7675" style="stroke:#181818;stroke-width:0.8000000000000002;"/><text fill="#000000" font-family="sans-serif" font-size="10.4" lengthAdjust="spacing" textLength="42.4" x="144.512" y="82.3184">response</text></g><!--link parsingType to gt0--><g id="link_parsingType_gt0"><path d="M236.856,180.952 C242.552,194.16 250.128,211.72 256.144,225.672 " fill="none" id="parsingType-to-gt0" style="stroke:#181818;stroke-width:0.8000000000000002;"/><polygon fill="#181818" points="257.792,229.504,257.8764,221.6254,256.2067,225.8316,252.0005,224.1619,257.792,229.504" style="stroke:#181818;stroke-width:0.8000000000000002;"/></g><!--link parsingType to 0--><g id="link_parsingType_0"><path d="M219.992,180.952 C214.176,194.16 206.44,211.72 200.296,225.672 " fill="none" id="parsingType-to-0" style="stroke:#181818;stroke-width:0.8000000000000002;"/><polygon fill="#181818" points="198.616,229.504,204.4475,224.2055,200.2289,225.8436,198.5908,221.625,198.616,229.504" style="stroke:#181818;stroke-width:0.8000000000000002;"/></g><!--link 0 to waite--><g id="link_0_waite"><path d="M184.968,269.624 C181.464,282.688 176.8,300.12 172.984,314.368 " fill="none" id="0-to-waite" style="stroke:#181818;stroke-width:0.8000000000000002;"/><polygon fill="#181818" points="171.928,318.296,176.8852,312.1718,172.965,314.4328,170.7041,310.5126,171.928,318.296" style="stroke:#181818;stroke-width:0.8000000000000002;"/></g><!--link waite to finish--><g id="link_waite_finish"><path d="M216.736,340.8 C224.616,340.8 232.488,340.8 240.368,340.8 " fill="none" id="waite-to-finish" style="stroke:#181818;stroke-width:0.8000000000000002;"/><polygon fill="#181818" points="244.488,340.8,237.288,337.6,240.488,340.8,237.288,344,244.488,340.8" style="stroke:#181818;stroke-width:0.8000000000000002;"/></g><!--link gt0 to parseNotifyPayload--><g id="link_gt0_parseNotifyPayload"><path d="M286.36,264.176 C302.272,276.328 323.24,295.632 332.512,318.4 C346.368,352.408 337.792,395.464 329.688,422.376 " fill="none" id="gt0-to-parseNotifyPayload" style="stroke:#181818;stroke-width:0.8000000000000002;"/><polygon fill="#181818" points="328.496,426.224,333.6757,420.2867,329.6748,422.4016,327.5599,418.4007,328.496,426.224" style="stroke:#181818;stroke-width:0.8000000000000002;"/></g><!--link finish to parseNotifyPayload--><g id="link_finish_parseNotifyPayload"><path d="M289.344,363.392 C295.656,380.528 304.472,404.448 311.112,422.488 " fill="none" id="finish-to-parseNotifyPayload" style="stroke:#181818;stroke-width:0.8000000000000002;"/><polygon fill="#181818" points="312.496,426.24,313.0141,418.378,311.1153,422.4858,307.0074,420.5871,312.496,426.24" style="stroke:#181818;stroke-width:0.8000000000000002;"/></g><!--link parseNotifyPayload to onGattSesameResponse--><g id="link_parseNotifyPayload_onGattSesameResponse"><path d="M301.368,471.4 C289.392,485.04 273.936,502.64 261.496,516.8 " fill="none" id="parseNotifyPayload-to-onGattSesameResponse" style="stroke:#181818;stroke-width:0.8000000000000002;"/><polygon fill="#181818" points="258.728,519.952,265.8837,516.6541,261.3677,516.9467,261.0751,512.4306,258.728,519.952" style="stroke:#181818;stroke-width:0.8000000000000002;"/></g><!--link parseNotifyPayload to onGattSesamePublish--><g id="link_parseNotifyPayload_onGattSesamePublish"><path d="M340.04,471.4 C352.256,485.04 368.016,502.64 380.704,516.8 " fill="none" id="parseNotifyPayload-to-onGattSesamePublish" style="stroke:#181818;stroke-width:0.8000000000000002;"/><polygon fill="#181818" points="383.528,519.952,381.1043,512.455,380.8578,516.9737,376.3391,516.7272,383.528,519.952" style="stroke:#181818;stroke-width:0.8000000000000002;"/></g><!--link onGattSesameResponse to cmdCallBack--><g id="link_onGattSesameResponse_cmdCallBack"><path d="M239.712,564.888 C239.712,578.312 239.712,595.552 239.712,609.296 " fill="none" id="onGattSesameResponse-to-cmdCallBack" style="stroke:#181818;stroke-width:0.8000000000000002;"/><polygon fill="#181818" points="239.712,613.448,242.912,606.248,239.712,609.448,236.512,606.248,239.712,613.448" style="stroke:#181818;stroke-width:0.8000000000000002;"/></g><!--link onGattSesamePublish to login--><g id="link_onGattSesamePublish_login"><path d="M402.912,564.888 C402.912,578.312 402.912,595.552 402.912,609.296 " fill="none" id="onGattSesamePublish-to-login" style="stroke:#181818;stroke-width:0.8000000000000002;"/><polygon fill="#181818" points="402.912,613.448,406.112,606.248,402.912,609.448,399.712,606.248,402.912,613.448" style="stroke:#181818;stroke-width:0.8000000000000002;"/></g><!--SRC=[hK_BJiCm4BpxA_O7WYgEFlIGLk84L0q_iDYRrCArBNlxY2h-7IU4g5MDk73QrSpip4vjQKr7emYgQWaTCc_FzQ5jAGB8I2bubqZK_wXAZ4mtx4K018p9kEwj3zCrBmheW2toSaB3960Sqj6P8H9gc3D60gfbQvn9E_4zyWkAp95WGZz53XbjXnXwyMpQVeEzzQYdaz_OUqXgP8GrgTW7ff8YMtdtb6itb71FsvzVeOI216YQvyVNiFAQ7kPYVzfk3kzsA5V0v9LXACZcx6ofzdg5rjQeFafMWyJwpZWXlW00]--></g></svg>