<?xml version="1.0" encoding="us-ascii" standalone="no"?><svg xmlns="http://www.w3.org/2000/svg" xmlns:xlink="http://www.w3.org/1999/xlink" contentStyleType="text/css" height="621px" preserveAspectRatio="none" style="width:215px;height:621px;background:#FFFFFF;" version="1.1" viewBox="0 0 215 621" width="215.4px" zoomAndPan="magnify"><defs/><g><!--cluster getChunk--><g id="cluster_getChunk"><path d="M50.7,236.4 L181.5,236.4 A7.5,7.5 0 0 1 189,243.9 L189,250.8721 L43.2,250.8721 L43.2,243.9 A7.5,7.5 0 0 1 50.7,236.4 " fill="#F1F1F1" style="stroke:#F1F1F1;stroke-width:0.6;"/><rect fill="none" height="315" rx="7.5" ry="7.5" style="stroke:#181818;stroke-width:0.3;" width="145.8" x="43.2" y="236.4"/><line style="stroke:#181818;stroke-width:0.3;" x1="43.2" x2="189" y1="250.8721" y2="250.8721"/><text fill="#000000" font-family="sans-serif" font-size="8.4" lengthAdjust="spacing" textLength="36.6" x="97.8" y="248.4264">getChunk</text></g><!--cluster input--><g id="cluster_input"><path d="M93.3,268.8 L127.5,268.8 A7.5,7.5 0 0 1 135,276.3 L135,283.2721 L85.8,283.2721 L85.8,276.3 A7.5,7.5 0 0 1 93.3,268.8 " fill="#F1F1F1" style="stroke:#F1F1F1;stroke-width:0.6;"/><rect fill="none" height="62.4" rx="7.5" ry="7.5" style="stroke:#181818;stroke-width:0.3;" width="49.2" x="85.8" y="268.8"/><line style="stroke:#181818;stroke-width:0.3;" x1="85.8" x2="135" y1="283.2721" y2="283.2721"/><text fill="#000000" font-family="sans-serif" font-size="8.4" lengthAdjust="spacing" textLength="18.6" x="101.1" y="280.8264">input</text></g><g id="getChunk.part1"><rect fill="#F1F1F1" height="30" rx="7.5" ry="7.5" style="stroke:#181818;stroke-width:0.3;" width="31.8" x="62.7" y="372"/><line style="stroke:#181818;stroke-width:0.3;" x1="62.7" x2="94.5" y1="389.4721" y2="389.4721"/><text fill="#000000" font-family="sans-serif" font-size="8.4" lengthAdjust="spacing" textLength="19.8" x="68.7" y="384.6264">part1</text></g><g id="getChunk.part2"><rect fill="#F1F1F1" height="30" rx="7.5" ry="7.5" style="stroke:#181818;stroke-width:0.3;" width="31.8" x="62.7" y="440.4"/><line style="stroke:#181818;stroke-width:0.3;" x1="62.7" x2="94.5" y1="457.8721" y2="457.8721"/><text fill="#000000" font-family="sans-serif" font-size="8.4" lengthAdjust="spacing" textLength="19.8" x="68.7" y="453.0264">part2</text></g><g id="getChunk.partN"><rect fill="#F1F1F1" height="30" rx="7.5" ry="7.5" style="stroke:#181818;stroke-width:0.3;" width="32.4" x="62.4" y="507"/><line style="stroke:#181818;stroke-width:0.3;" x1="62.4" x2="94.8" y1="524.4721" y2="524.4721"/><text fill="#000000" font-family="sans-serif" font-size="8.4" lengthAdjust="spacing" textLength="20.4" x="68.4" y="519.6264">partN</text></g><g id="getChunk.fullData"><rect fill="#F1F1F1" height="33.3053" rx="7.5" ry="7.5" style="stroke:#181818;stroke-width:0.3;" width="58.8" x="115.8" y="370.2"/><line style="stroke:#181818;stroke-width:0.3;" x1="115.8" x2="174.6" y1="387.6721" y2="387.6721"/><text fill="#000000" font-family="sans-serif" font-size="8.4" lengthAdjust="spacing" textLength="28.8" x="130.8" y="382.8264">fullData</text><text fill="#000000" font-family="sans-serif" font-size="7.2" lengthAdjust="spacing" textLength="46.8" x="118.8" y="398.9232">complete data</text></g><g id="getChunk.input.size"><rect fill="#F1F1F1" height="30" rx="7.5" ry="7.5" style="stroke:#181818;stroke-width:0.3;" width="30" x="95.4" y="291.6"/><line style="stroke:#181818;stroke-width:0.3;" x1="95.4" x2="125.4" y1="309.0721" y2="309.0721"/><text fill="#000000" font-family="sans-serif" font-size="8.4" lengthAdjust="spacing" textLength="14.4" x="103.2" y="304.2264">size</text></g><g id="APP"><rect fill="#F1F1F1" height="30" rx="7.5" ry="7.5" style="stroke:#181818;stroke-width:0.3;" width="30" x="33" y="4.2"/><line style="stroke:#181818;stroke-width:0.3;" x1="33" x2="63" y1="21.6721" y2="21.6721"/><text fill="#000000" font-family="sans-serif" font-size="8.4" lengthAdjust="spacing" textLength="16.2" x="39.9" y="16.8264">APP</text></g><g id="sendCommand"><rect fill="#F1F1F1" height="33.3053" rx="7.5" ry="7.5" style="stroke:#181818;stroke-width:0.3;" width="87" x="4.5" y="81.6"/><line style="stroke:#181818;stroke-width:0.3;" x1="4.5" x2="91.5" y1="99.0721" y2="99.0721"/><text fill="#000000" font-family="sans-serif" font-size="8.4" lengthAdjust="spacing" textLength="57" x="19.5" y="94.2264">sendCommand</text><text fill="#000000" font-family="sans-serif" font-size="7.2" lengthAdjust="spacing" textLength="75" x="7.5" y="110.3232">Preparing to send data</text></g><g id="SesameBleTransmit"><rect fill="#F1F1F1" height="30" rx="7.5" ry="7.5" style="stroke:#181818;stroke-width:0.3;" width="87.6" x="4.2" y="162.6"/><line style="stroke:#181818;stroke-width:0.3;" x1="4.2" x2="91.8" y1="180.0721" y2="180.0721"/><text fill="#000000" font-family="sans-serif" font-size="8.4" lengthAdjust="spacing" textLength="75.6" x="10.2" y="175.2264">SesameBleTransmit</text></g><g id="writeCharacteristic"><rect fill="#F1F1F1" height="33.3053" rx="7.5" ry="7.5" style="stroke:#181818;stroke-width:0.3;" width="81.6" x="106.8" y="584.4"/><line style="stroke:#181818;stroke-width:0.3;" x1="106.8" x2="188.4" y1="601.8721" y2="601.8721"/><text fill="#000000" font-family="sans-serif" font-size="8.4" lengthAdjust="spacing" textLength="69.6" x="112.8" y="597.0264">writeCharacteristic</text><text fill="#000000" font-family="sans-serif" font-size="7.2" lengthAdjust="spacing" textLength="37.8" x="109.8" y="613.1232">Ble devices</text></g><!--link APP to sendCommand--><g id="link_APP_sendCommand"><path d="M48,34.29 C48,46.74 48,64.8 48,78.48 " fill="none" id="APP-to-sendCommand" style="stroke:#181818;stroke-width:0.6;"/><polygon fill="#181818" points="48,81.504,50.4,76.104,48,78.504,45.6,76.104,48,81.504" style="stroke:#181818;stroke-width:0.6;"/><text fill="#000000" font-family="sans-serif" font-size="7.8" lengthAdjust="spacing" textLength="34.2" x="48.6" y="61.7388">command</text></g><!--link sendCommand to SesameBleTransmit--><g id="link_sendCommand_SesameBleTransmit"><path d="M48,115.35 C48,128.256 48,146.22 48,159.426 " fill="none" id="sendCommand-to-SesameBleTransmit" style="stroke:#181818;stroke-width:0.6;"/><polygon fill="#181818" points="48,162.51,50.4,157.11,48,159.51,45.6,157.11,48,162.51" style="stroke:#181818;stroke-width:0.6;"/><text fill="#000000" font-family="sans-serif" font-size="7.8" lengthAdjust="spacing" textLength="108.6" x="48.6" y="142.7388">(payload,isEncryt,onResponse)</text></g><!--link SesameBleTransmit to getChunk--><g id="link_SesameBleTransmit_getChunk"><path d="M48,192.612 C48,200.8365 48,211.8799 48,223.8566 C48,226.8508 48,229.9033 48,232.9847 C48,233.7551 48,234.5272 48,235.3007 C48,235.4941 48,235.6876 48,235.8811 " fill="none" id="SesameBleTransmit-to-getChunk" style="stroke:#181818;stroke-width:0.6;"/><polygon fill="#181818" points="48,235.8811,50.4,230.4811,48,232.8811,45.6,230.4811,48,235.8811" style="stroke:#181818;stroke-width:0.6;"/><text fill="#000000" font-family="sans-serif" font-size="7.8" lengthAdjust="spacing" textLength="43.8" x="48.6" y="220.1388">intput(byte[])</text></g><!--link size to part1--><g id="link_size_part1"><path d="M103.008,321.648 C100.206,326.466 96.774,331.698 93,336 C90.75,338.568 88.752,337.872 87,340.8 C81.996,349.17 79.848,359.826 78.972,368.73 " fill="none" id="size-to-part1" style="stroke:#181818;stroke-width:0.6;"/><polygon fill="#181818" points="78.702,371.928,81.5409,366.7453,78.9504,368.9383,76.7574,366.3478,78.702,371.928" style="stroke:#181818;stroke-width:0.6;"/><text fill="#000000" font-family="sans-serif" font-size="7.8" lengthAdjust="spacing" textLength="15" x="87.6" y="350.3388">gt19</text></g><!--link part1 to part2--><g id="link_part1_part2"><path d="M78.6,402.018 C78.6,412.308 78.6,426.216 78.6,437.172 " fill="none" id="part1-to-part2" style="stroke:#181818;stroke-width:0.6;"/><polygon fill="#181818" points="78.6,440.178,81,434.778,78.6,437.178,76.2,434.778,78.6,440.178" style="stroke:#181818;stroke-width:0.6;"/></g><!--link part2 to partN--><g id="link_part2_partN"><path d="M78.6,470.514 C78.6,480.336 78.6,493.368 78.6,503.784 " fill="none" id="part2-to-partN" style="stroke:#181818;stroke-width:0.6;"/><polygon fill="#181818" points="78.6,506.928,81,501.528,78.6,503.928,76.2,501.528,78.6,506.928" style="stroke:#181818;stroke-width:0.6;"/></g><!--link size to fullData--><g id="link_size_fullData"><path d="M116.784,321.726 C122.388,334.482 130.584,353.142 136.74,367.14 " fill="none" id="size-to-fullData" style="stroke:#181818;stroke-width:0.6;"/><polygon fill="#181818" points="138.018,370.05,138.0437,364.1407,136.8115,367.3033,133.6489,366.0711,138.018,370.05" style="stroke:#181818;stroke-width:0.6;"/><text fill="#000000" font-family="sans-serif" font-size="7.8" lengthAdjust="spacing" textLength="42.6" x="130.2" y="350.3388">le19 or eq19</text></g><!--link part1 to writeCharacteristic--><g id="link_part1_writeCharacteristic"><path d="M86.13,402.048 C91.554,412.59 98.946,427.278 105,440.4 C129.684,493.932 140.856,507.312 148.2,565.8 C148.824,570.768 148.98,576.162 148.908,581.184 " fill="none" id="part1-to-writeCharacteristic" style="stroke:#181818;stroke-width:0.6;"/><polygon fill="#181818" points="148.836,584.262,151.3588,578.9183,148.9046,581.2628,146.56,578.8086,148.836,584.262" style="stroke:#181818;stroke-width:0.6;"/></g><!--link part2 to writeCharacteristic--><g id="link_part2_writeCharacteristic"><path d="M86.652,470.598 C92.16,480.726 99.534,494.58 105.6,507 C118.026,532.446 131.22,562.386 139.434,581.43 " fill="none" id="part2-to-writeCharacteristic" style="stroke:#181818;stroke-width:0.6;"/><polygon fill="#181818" points="140.706,584.388,140.7626,578.479,139.5139,581.635,136.3578,580.3863,140.706,584.388" style="stroke:#181818;stroke-width:0.6;"/></g><!--link partN to writeCharacteristic--><g id="link_partN_writeCharacteristic"><path d="M88.332,537.114 C94.464,545.898 102.756,557.148 111,566.4 C115.812,571.794 121.356,577.296 126.654,582.258 " fill="none" id="partN-to-writeCharacteristic" style="stroke:#181818;stroke-width:0.6;"/><polygon fill="#181818" points="128.904,584.352,126.5727,578.922,126.7029,582.3136,123.3113,582.4438,128.904,584.352" style="stroke:#181818;stroke-width:0.6;"/></g><!--link fullData to writeCharacteristic--><g id="link_fullData_writeCharacteristic"><path d="M170.712,403.956 C176.394,408.936 181.662,414.942 184.8,421.8 C211.548,480.24 210.636,507.552 184.8,566.4 C182.226,572.268 178.092,577.572 173.496,582.156 " fill="none" id="fullData-to-writeCharacteristic" style="stroke:#181818;stroke-width:0.6;"/><polygon fill="#181818" points="171.21,584.346,176.7712,582.3477,173.3779,582.2723,173.4533,578.8791,171.21,584.346" style="stroke:#181818;stroke-width:0.6;"/></g><!--SRC=[TL31JiCm3BtdAtpSf0sfkoq79EYuJXLmGnnCOZgBD2c92og8VoVjL610Rq_lFRzd-wAgOBq-XqJUbg5fq5lGvWZK2GbLf1OZ-neaZ7wmAAXEN4FK3ILiwDBHRKIV6XRGYnPx5z2kE5rv4tjP1NzDgGq-qLBz7SWnDKbvwFmJQFRITh9uw8NkxfUvJr089lrTiS_oMU8t6klpZbA0hgNOgYEUs8qQYSr0363_U_InSswNRzAEYYs42FISGxxO_9RMKUuUx_vGhv65oWD6D4AHax3H-GgmzCA6qe_sVvpVgyog-rbrMcdMy0a0]--></g></svg>