<?xml version="1.0" encoding="us-ascii" standalone="no"?><svg xmlns="http://www.w3.org/2000/svg" xmlns:xlink="http://www.w3.org/1999/xlink" contentStyleType="text/css" height="597.6px" preserveAspectRatio="none" style="width:565px;height:597px;background:#FFFFFF;" version="1.1" viewBox="0 0 565 597" width="565.2px" zoomAndPan="magnify"><defs/><g><!--class CHSesameOS3Publish--><g id="elem_CHSesameOS3Publish"><rect codeLine="1" fill="#F1F1F1" height="26.848" id="CHSesameOS3Publish" rx="1" ry="1" style="stroke:#181818;stroke-width:0.20000000000000004;" width="70.8" x="477.6" y="306"/><ellipse cx="483.6" cy="312.4" fill="#B4A7E5" rx="4.4" ry="4.4" style="stroke:#181818;stroke-width:0.4000000000000001;"/><path d="M482.35,310.8 L482.35,310.125 L484.725,310.125 L484.725,310.8 L483.975,310.8 Q483.9125,310.8 483.8938,310.8125 Q483.875,310.825 483.875,310.8438 L483.875,314.0813 Q483.875,314.1 483.8938,314.1125 Q483.9125,314.125 483.975,314.125 L484.725,314.125 L484.725,314.8 L482.35,314.8 L482.35,314.125 L483.1,314.125 Q483.1813,314.125 483.1875,314.1188 Q483.2,314.1125 483.2,314.0813 L483.2,310.8438 Q483.2,310.8125 483.1875,310.8063 Q483.1813,310.8 483.1,310.8 L482.35,310.8 Z " fill="#000000"/><text fill="#000000" font-family="sans-serif" font-size="5.6" font-style="italic" lengthAdjust="spacing" textLength="58" x="489.2" y="314.9936">CHSesameOS3Publish</text><line style="stroke:#181818;stroke-width:0.20000000000000004;" x1="478" x2="548" y1="318.8" y2="318.8"/><line style="stroke:#181818;stroke-width:0.20000000000000004;" x1="478" x2="548" y1="322" y2="322"/><ellipse cx="482" cy="328.024" fill="#84BE84" rx="1.2" ry="1.2" style="stroke:#038048;stroke-width:0.4000000000000001;"/><text fill="#000000" font-family="sans-serif" font-size="5.6" lengthAdjust="spacing" textLength="60" x="485.6" y="330.0176">onGattSesamePublish()</text></g><!--class CHBaseDevice--><g id="elem_CHBaseDevice"><rect codeLine="5" fill="#F1F1F1" height="164.5129" id="CHBaseDevice" rx="1" ry="1" style="stroke:#181818;stroke-width:0.20000000000000004;" width="156.8" x="306.6" y="237.2"/><ellipse cx="364.5" cy="243.6" fill="#ADD1B2" rx="4.4" ry="4.4" style="stroke:#181818;stroke-width:0.4000000000000001;"/><path d="M364.375,246 Q363.6,246 363.15,245.4313 Q362.7,244.8563 362.7,243.675 Q362.7,242.675 363.175,242 Q363.65,241.325 364.475,241.325 Q364.6688,241.325 364.8688,241.3688 Q365.0313,241.425 365.1313,241.425 Q365.2125,241.425 365.2438,241.4188 Q365.2813,241.4063 365.4938,241.1375 L365.7875,242.8313 L365.4,243.0688 Q365.2,242.45 364.9688,242.225 Q364.7438,242 364.3813,242 Q363.9188,242 363.6438,242.475 Q363.375,242.9438 363.375,243.675 Q363.375,244.475 363.6063,244.9 Q363.8375,245.325 364.3563,245.325 Q364.725,245.325 364.9813,245.1 Q365.2438,244.8688 365.3813,244.3125 L365.7938,244.5188 Q365.6375,245.2188 365.2625,245.6125 Q364.8875,246 364.375,246 Z " fill="#000000"/><text fill="#000000" font-family="sans-serif" font-size="5.6" lengthAdjust="spacing" textLength="37.6" x="372.7" y="246.1936">CHBaseDevice</text><line style="stroke:#181818;stroke-width:0.20000000000000004;" x1="307" x2="463" y1="250" y2="250"/><rect fill="none" height="2.4" style="stroke:#C82930;stroke-width:0.4000000000000001;" width="2.4" x="309.8" y="254.824"/><text fill="#000000" font-family="sans-serif" font-size="5.6" lengthAdjust="spacing" textLength="70.8" x="314.6" y="258.0176">sesame2KeyData:CHDevice</text><rect fill="none" height="2.4" style="stroke:#C82930;stroke-width:0.4000000000000001;" width="2.4" x="309.8" y="262.4721"/><text fill="#000000" font-family="sans-serif" font-size="5.6" lengthAdjust="spacing" textLength="83.2" x="314.6" y="265.6656">CHDeviceStatus:CHDeviceStatus</text><rect fill="none" height="2.4" style="stroke:#C82930;stroke-width:0.4000000000000001;" width="2.4" x="309.8" y="270.1201"/><text fill="#000000" font-family="sans-serif" font-size="5.6" lengthAdjust="spacing" textLength="94.8" x="314.6" y="273.3137">deviceShadowStatus:CHDeviceStatus</text><rect fill="none" height="2.4" style="stroke:#C82930;stroke-width:0.4000000000000001;" width="2.4" x="309.8" y="277.7682"/><text fill="#000000" font-family="sans-serif" font-size="5.6" lengthAdjust="spacing" textLength="109.6" x="314.6" y="280.9617">mechStatus:CHSesameProtocolMechStatus</text><rect fill="none" height="2.4" style="stroke:#C82930;stroke-width:0.4000000000000001;" width="2.4" x="309.8" y="285.4162"/><text fill="#000000" font-family="sans-serif" font-size="5.6" lengthAdjust="spacing" textLength="80" x="314.6" y="288.6098">productModel: CHProductModel</text><rect fill="none" height="2.4" style="stroke:#C82930;stroke-width:0.4000000000000001;" width="2.4" x="309.8" y="293.0643"/><text fill="#000000" font-family="sans-serif" font-size="5.6" lengthAdjust="spacing" textLength="102.8" x="314.6" y="296.2578">gattTxBuffer: SesameBleTransmit? = null</text><rect fill="none" height="2.4" style="stroke:#C82930;stroke-width:0.4000000000000001;" width="2.4" x="309.8" y="300.7123"/><text fill="#000000" font-family="sans-serif" font-size="5.6" lengthAdjust="spacing" textLength="68.8" x="314.6" y="303.9059">mSesameToken: ByteArray</text><rect fill="none" height="2.4" style="stroke:#C82930;stroke-width:0.4000000000000001;" width="2.4" x="309.8" y="308.3604"/><text fill="#000000" font-family="sans-serif" font-size="5.6" lengthAdjust="spacing" textLength="130.4" x="314.6" y="311.5539">mCharacteristic: BluetoothGattCharacteristic? = null</text><rect fill="none" height="2.4" style="stroke:#C82930;stroke-width:0.4000000000000001;" width="2.4" x="309.8" y="316.0084"/><text fill="#000000" font-family="sans-serif" font-size="5.6" lengthAdjust="spacing" textLength="107.2" x="314.6" y="319.202">delegate: CHDeviceStatusDelegate? = null</text><rect fill="none" height="2.4" style="stroke:#C82930;stroke-width:0.4000000000000001;" width="2.4" x="309.8" y="323.6564"/><text fill="#000000" font-family="sans-serif" font-size="5.6" lengthAdjust="spacing" textLength="76.8" x="314.6" y="326.85">deviceTimestamp:Long? = null</text><rect fill="none" height="2.4" style="stroke:#C82930;stroke-width:0.4000000000000001;" width="2.4" x="309.8" y="331.3045"/><text fill="#000000" font-family="sans-serif" font-size="5.6" lengthAdjust="spacing" textLength="72.4" x="314.6" y="334.498">loginTimestamp:Long? = null</text><rect fill="none" height="2.4" style="stroke:#C82930;stroke-width:0.4000000000000001;" width="2.4" x="309.8" y="338.9525"/><text fill="#000000" font-family="sans-serif" font-size="5.6" lengthAdjust="spacing" textLength="54.8" x="314.6" y="342.1461">deviceId: UUID? = null</text><rect fill="none" height="2.4" style="stroke:#C82930;stroke-width:0.4000000000000001;" width="2.4" x="309.8" y="346.6006"/><text fill="#000000" font-family="sans-serif" font-size="5.6" lengthAdjust="spacing" textLength="72" x="314.6" y="349.7941">isRegistered: Boolean = true</text><rect fill="none" height="2.4" style="stroke:#C82930;stroke-width:0.4000000000000001;" width="2.4" x="309.8" y="354.2486"/><text fill="#000000" font-family="sans-serif" font-size="5.6" lengthAdjust="spacing" textLength="30.8" x="314.6" y="357.4422">rssi: Int? = 0</text><rect fill="none" height="2.4" style="stroke:#C82930;stroke-width:0.4000000000000001;" width="2.4" x="309.8" y="361.8967"/><text fill="#000000" font-family="sans-serif" font-size="5.6" lengthAdjust="spacing" textLength="95.6" x="314.6" y="365.0902">mBluetoothGatt: BluetoothGatt? = null</text><rect fill="none" height="2.4" style="stroke:#C82930;stroke-width:0.4000000000000001;" width="2.4" x="309.8" y="369.5447"/><text fill="#000000" font-family="sans-serif" font-size="5.6" lengthAdjust="spacing" textLength="104.4" x="314.6" y="372.7383">isNeedAuthFromServer: Boolean? = false</text><line style="stroke:#181818;stroke-width:0.20000000000000004;" x1="307" x2="463" y1="375.5688" y2="375.5688"/><ellipse cx="311" cy="381.5928" fill="#84BE84" rx="1.2" ry="1.2" style="stroke:#038048;stroke-width:0.4000000000000001;"/><text fill="#000000" font-family="sans-serif" font-size="5.6" lengthAdjust="spacing" textLength="31.2" x="314.6" y="383.5863">disconnect()</text><ellipse cx="311" cy="389.2408" fill="#84BE84" rx="1.2" ry="1.2" style="stroke:#038048;stroke-width:0.4000000000000001;"/><text fill="#000000" font-family="sans-serif" font-size="5.6" lengthAdjust="spacing" textLength="25.2" x="314.6" y="391.2344">dropKey()</text><rect fill="#F24D5C" height="2.4" style="stroke:#C82930;stroke-width:0.4000000000000001;" width="2.4" x="309.8" y="395.6889"/><text fill="#000000" font-family="sans-serif" font-size="5.6" lengthAdjust="spacing" textLength="146.4" x="314.6" y="398.8824">gattRxBuffer: SesameBleReceiver = SesameBleReceiver()</text></g><!--class CHSesameOS3--><g id="elem_CHSesameOS3"><rect codeLine="28" fill="#F1F1F1" height="110.9766" id="CHSesameOS3" rx="1" ry="1" style="stroke:#181818;stroke-width:0.20000000000000004;" width="227.2" x="335.4" y="433.2"/><ellipse cx="427.7" cy="439.6" fill="#ADD1B2" rx="4.4" ry="4.4" style="stroke:#181818;stroke-width:0.4000000000000001;"/><path d="M427.575,442 Q426.8,442 426.35,441.4313 Q425.9,440.8563 425.9,439.675 Q425.9,438.675 426.375,438 Q426.85,437.325 427.675,437.325 Q427.8688,437.325 428.0688,437.3688 Q428.2313,437.425 428.3313,437.425 Q428.4125,437.425 428.4438,437.4188 Q428.4813,437.4063 428.6938,437.1375 L428.9875,438.8313 L428.6,439.0688 Q428.4,438.45 428.1688,438.225 Q427.9438,438 427.5813,438 Q427.1188,438 426.8438,438.475 Q426.575,438.9438 426.575,439.675 Q426.575,440.475 426.8063,440.9 Q427.0375,441.325 427.5563,441.325 Q427.925,441.325 428.1813,441.1 Q428.4438,440.8688 428.5813,440.3125 L428.9938,440.5188 Q428.8375,441.2188 428.4625,441.6125 Q428.0875,442 427.575,442 Z " fill="#000000"/><text fill="#000000" font-family="sans-serif" font-size="5.6" lengthAdjust="spacing" textLength="39.2" x="435.9" y="442.1936">CHSesameOS3</text><line style="stroke:#181818;stroke-width:0.20000000000000004;" x1="335.8" x2="562.2" y1="446" y2="446"/><rect fill="none" height="2.4" style="stroke:#C82930;stroke-width:0.4000000000000001;" width="2.4" x="338.6" y="450.824"/><text fill="#000000" font-family="sans-serif" font-size="5.6" lengthAdjust="spacing" textLength="93.6" x="343.4" y="454.0176">cipher: SesameOS3BleCipher? = null</text><rect fill="none" height="2.4" style="stroke:#C82930;stroke-width:0.4000000000000001;" width="2.4" x="338.6" y="458.4721"/><text fill="#000000" font-family="sans-serif" font-size="5.6" lengthAdjust="spacing" textLength="120.4" x="343.4" y="461.6656">mBluetoothGattCallback: BluetoothGattCallback</text><line style="stroke:#181818;stroke-width:0.20000000000000004;" x1="335.8" x2="562.2" y1="464.4961" y2="464.4961"/><rect fill="#F24D5C" height="2.4" style="stroke:#C82930;stroke-width:0.4000000000000001;" width="2.4" x="338.6" y="469.3201"/><text fill="#000000" font-family="sans-serif" font-size="5.6" lengthAdjust="spacing" textLength="216.8" x="343.4" y="472.5137">cmdCallBack: MutableMap&lt;UByte, SesameOS3ResponseCallback&gt; = mutableMapOf()</text><rect fill="#F24D5C" height="2.4" style="stroke:#C82930;stroke-width:0.4000000000000001;" width="2.4" x="338.6" y="476.9682"/><text fill="#000000" font-family="sans-serif" font-size="5.6" lengthAdjust="spacing" textLength="103.6" x="343.4" y="480.1617">semaphore: Semaphore = Semaphore(1)</text><ellipse cx="339.8" cy="485.8162" fill="#84BE84" rx="1.2" ry="1.2" style="stroke:#038048;stroke-width:0.4000000000000001;"/><text fill="#000000" font-family="sans-serif" font-size="5.6" lengthAdjust="spacing" textLength="24" x="343.4" y="487.8098">connect()</text><ellipse cx="339.8" cy="493.4643" fill="#84BE84" rx="1.2" ry="1.2" style="stroke:#038048;stroke-width:0.4000000000000001;"/><text fill="#000000" font-family="sans-serif" font-size="5.6" lengthAdjust="spacing" textLength="24" x="343.4" y="495.4578">transmit()</text><ellipse cx="339.8" cy="501.1123" fill="#84BE84" rx="1.2" ry="1.2" style="stroke:#038048;stroke-width:0.4000000000000001;"/><text fill="#000000" font-family="sans-serif" font-size="5.6" lengthAdjust="spacing" textLength="42" x="343.4" y="503.1059">sendCommand()</text><ellipse cx="339.8" cy="508.7604" fill="#84BE84" rx="1.2" ry="1.2" style="stroke:#038048;stroke-width:0.4000000000000001;"/><text fill="#000000" font-family="sans-serif" font-size="5.6" lengthAdjust="spacing" textLength="41.2" x="343.4" y="510.7539">getVersionTag()</text><ellipse cx="339.8" cy="516.4084" fill="#84BE84" rx="1.2" ry="1.2" style="stroke:#038048;stroke-width:0.4000000000000001;"/><text fill="#000000" font-family="sans-serif" font-size="5.6" lengthAdjust="spacing" textLength="16.8" x="343.4" y="518.402">reset()</text><ellipse cx="339.8" cy="524.0564" fill="#84BE84" rx="1.2" ry="1.2" style="stroke:#038048;stroke-width:0.4000000000000001;"/><text fill="#000000" font-family="sans-serif" font-size="5.6" lengthAdjust="spacing" textLength="44.8" x="343.4" y="526.05">updateFirmware()</text><ellipse cx="339.8" cy="531.7045" fill="#84BE84" rx="1.2" ry="1.2" style="stroke:#038048;stroke-width:0.4000000000000001;"/><text fill="#000000" font-family="sans-serif" font-size="5.6" lengthAdjust="spacing" textLength="29.6" x="343.4" y="533.698">parceADV()</text><ellipse cx="339.8" cy="539.3525" fill="#84BE84" rx="1.2" ry="1.2" style="stroke:#038048;stroke-width:0.4000000000000001;"/><text fill="#000000" font-family="sans-serif" font-size="5.6" lengthAdjust="spacing" textLength="60" x="343.4" y="541.3461">onGattSesamePublish()</text></g><!--class CHDevices--><g id="elem_CHDevices"><rect codeLine="43" fill="#F1F1F1" height="202.7531" id="CHDevices" rx="1" ry="1" style="stroke:#181818;stroke-width:0.20000000000000004;" width="211.6" x="2.8" y="2.8"/><ellipse cx="93.1" cy="9.2" fill="#B4A7E5" rx="4.4" ry="4.4" style="stroke:#181818;stroke-width:0.4000000000000001;"/><path d="M91.85,7.6 L91.85,6.925 L94.225,6.925 L94.225,7.6 L93.475,7.6 Q93.4125,7.6 93.3938,7.6125 Q93.375,7.625 93.375,7.6438 L93.375,10.8813 Q93.375,10.9 93.3938,10.9125 Q93.4125,10.925 93.475,10.925 L94.225,10.925 L94.225,11.6 L91.85,11.6 L91.85,10.925 L92.6,10.925 Q92.6813,10.925 92.6875,10.9188 Q92.7,10.9125 92.7,10.8813 L92.7,7.6438 Q92.7,7.6125 92.6875,7.6063 Q92.6813,7.6 92.6,7.6 L91.85,7.6 Z " fill="#000000"/><text fill="#000000" font-family="sans-serif" font-size="5.6" font-style="italic" lengthAdjust="spacing" textLength="27.6" x="101.3" y="11.7936">CHDevices</text><line style="stroke:#181818;stroke-width:0.20000000000000004;" x1="3.2" x2="214" y1="15.6" y2="15.6"/><rect fill="none" height="2.4" style="stroke:#C82930;stroke-width:0.4000000000000001;" width="2.4" x="6" y="20.424"/><text fill="#000000" font-family="sans-serif" font-size="5.6" lengthAdjust="spacing" textLength="114.4" x="10.8" y="23.6176">mechStatus: CHSesameProtocolMechStatus?</text><rect fill="none" height="2.4" style="stroke:#C82930;stroke-width:0.4000000000000001;" width="2.4" x="6" y="28.0721"/><text fill="#000000" font-family="sans-serif" font-size="5.6" lengthAdjust="spacing" textLength="61.6" x="10.8" y="31.2656">deviceTimestamp:Long?</text><rect fill="none" height="2.4" style="stroke:#C82930;stroke-width:0.4000000000000001;" width="2.4" x="6" y="35.7201"/><text fill="#000000" font-family="sans-serif" font-size="5.6" lengthAdjust="spacing" textLength="57.2" x="10.8" y="38.9137">loginTimestamp:Long?</text><rect fill="none" height="2.4" style="stroke:#C82930;stroke-width:0.4000000000000001;" width="2.4" x="6" y="43.3682"/><text fill="#000000" font-family="sans-serif" font-size="5.6" lengthAdjust="spacing" textLength="92" x="10.8" y="46.5617">delegate: CHDeviceStatusDelegate?</text><rect fill="none" height="2.4" style="stroke:#C82930;stroke-width:0.4000000000000001;" width="2.4" x="6" y="51.0162"/><text fill="#000000" font-family="sans-serif" font-size="5.6" lengthAdjust="spacing" textLength="76.4" x="10.8" y="54.2098">deviceStatus: CHDeviceStatus</text><rect fill="none" height="2.4" style="stroke:#C82930;stroke-width:0.4000000000000001;" width="2.4" x="6" y="58.6643"/><text fill="#000000" font-family="sans-serif" font-size="5.6" lengthAdjust="spacing" textLength="99.6" x="10.8" y="61.8578">deviceShadowStatus: CHDeviceStatus?</text><rect fill="none" height="2.4" style="stroke:#C82930;stroke-width:0.4000000000000001;" width="2.4" x="6" y="66.3123"/><text fill="#000000" font-family="sans-serif" font-size="5.6" lengthAdjust="spacing" textLength="21.2" x="10.8" y="69.5059">rssi: Int?</text><rect fill="none" height="2.4" style="stroke:#C82930;stroke-width:0.4000000000000001;" width="2.4" x="6" y="73.9604"/><text fill="#000000" font-family="sans-serif" font-size="5.6" lengthAdjust="spacing" textLength="39.6" x="10.8" y="77.1539">deviceId: UUID?</text><rect fill="none" height="2.4" style="stroke:#C82930;stroke-width:0.4000000000000001;" width="2.4" x="6" y="81.6084"/><text fill="#000000" font-family="sans-serif" font-size="5.6" lengthAdjust="spacing" textLength="55.6" x="10.8" y="84.802">isRegistered: Boolean</text><rect fill="none" height="2.4" style="stroke:#C82930;stroke-width:0.4000000000000001;" width="2.4" x="6" y="89.2564"/><text fill="#000000" font-family="sans-serif" font-size="5.6" lengthAdjust="spacing" textLength="80" x="10.8" y="92.45">productModel: CHProductModel</text><line style="stroke:#181818;stroke-width:0.20000000000000004;" x1="3.2" x2="214" y1="95.2805" y2="95.2805"/><ellipse cx="7.2" cy="101.3045" fill="#84BE84" rx="1.2" ry="1.2" style="stroke:#038048;stroke-width:0.4000000000000001;"/><text fill="#000000" font-family="sans-serif" font-size="5.6" lengthAdjust="spacing" textLength="101.6" x="10.8" y="103.298">disconnect(result: CHResult&lt;CHEmpty&gt;)</text><ellipse cx="7.2" cy="108.9525" fill="#84BE84" rx="1.2" ry="1.2" style="stroke:#038048;stroke-width:0.4000000000000001;"/><text fill="#000000" font-family="sans-serif" font-size="5.6" lengthAdjust="spacing" textLength="49.6" x="10.8" y="110.9461">getKey(): CHDevice</text><ellipse cx="7.2" cy="116.6006" fill="#84BE84" rx="1.2" ry="1.2" style="stroke:#038048;stroke-width:0.4000000000000001;"/><text fill="#000000" font-family="sans-serif" font-size="5.6" lengthAdjust="spacing" textLength="95.6" x="10.8" y="118.5941">dropKey(result: CHResult&lt;CHEmpty&gt;)</text><ellipse cx="7.2" cy="124.2486" fill="#84BE84" rx="1.2" ry="1.2" style="stroke:#038048;stroke-width:0.4000000000000001;"/><text fill="#000000" font-family="sans-serif" font-size="5.6" lengthAdjust="spacing" textLength="103.2" x="10.8" y="126.2422">getVersionTag(result: CHResult&lt;String&gt;)</text><ellipse cx="7.2" cy="131.8967" fill="#84BE84" rx="1.2" ry="1.2" style="stroke:#038048;stroke-width:0.4000000000000001;"/><text fill="#000000" font-family="sans-serif" font-size="5.6" lengthAdjust="spacing" textLength="93.6" x="10.8" y="133.8902">register(result: CHResult&lt;CHEmpty&gt;)</text><ellipse cx="7.2" cy="139.5447" fill="#84BE84" rx="1.2" ry="1.2" style="stroke:#038048;stroke-width:0.4000000000000001;"/><text fill="#000000" font-family="sans-serif" font-size="5.6" lengthAdjust="spacing" textLength="87.2" x="10.8" y="141.5383">reset(result: CHResult&lt;CHEmpty&gt;)</text><ellipse cx="7.2" cy="147.1928" fill="#84BE84" rx="1.2" ry="1.2" style="stroke:#038048;stroke-width:0.4000000000000001;"/><text fill="#000000" font-family="sans-serif" font-size="5.6" lengthAdjust="spacing" textLength="151.2" x="10.8" y="149.1863">updateFirmware(onResponse: CHResult&lt;BluetoothDevice&gt;)</text><ellipse cx="7.2" cy="154.8408" fill="#84BE84" rx="1.2" ry="1.2" style="stroke:#038048;stroke-width:0.4000000000000001;"/><text fill="#000000" font-family="sans-serif" font-size="5.6" lengthAdjust="spacing" textLength="161.2" x="10.8" y="156.8344">createGuestKey(keyName: String, result: CHResult&lt;CHDevice&gt;)</text><ellipse cx="7.2" cy="162.4889" fill="#84BE84" rx="1.2" ry="1.2" style="stroke:#038048;stroke-width:0.4000000000000001;"/><text fill="#000000" font-family="sans-serif" font-size="5.6" lengthAdjust="spacing" textLength="148" x="10.8" y="164.4824">getGuestKeys(result: CHResult&lt;Array&lt;CHGuestKeyCut&gt;&gt;)</text><ellipse cx="7.2" cy="170.1369" fill="#84BE84" rx="1.2" ry="1.2" style="stroke:#038048;stroke-width:0.4000000000000001;"/><text fill="#000000" font-family="sans-serif" font-size="5.6" lengthAdjust="spacing" textLength="167.2" x="10.8" y="172.1305">removeGuestKey(guestKeyId: String, result: CHResult&lt;CHEmpty&gt;)</text><ellipse cx="7.2" cy="177.785" fill="#84BE84" rx="1.2" ry="1.2" style="stroke:#038048;stroke-width:0.4000000000000001;"/><text fill="#000000" font-family="sans-serif" font-size="5.6" lengthAdjust="spacing" textLength="201.2" x="10.8" y="179.7785">updateGuestKey(guestKeyId: String, name: String, result: CHResult&lt;CHEmpty&gt;)</text><ellipse cx="7.2" cy="185.433" fill="#84BE84" rx="1.2" ry="1.2" style="stroke:#038048;stroke-width:0.4000000000000001;"/><text fill="#000000" font-family="sans-serif" font-size="5.6" lengthAdjust="spacing" textLength="148.4" x="10.8" y="187.4266">setHistoryTag(tag: ByteArray, result: CHResult&lt;CHEmpty&gt;)</text><ellipse cx="7.2" cy="193.0811" fill="#84BE84" rx="1.2" ry="1.2" style="stroke:#038048;stroke-width:0.4000000000000001;"/><text fill="#000000" font-family="sans-serif" font-size="5.6" lengthAdjust="spacing" textLength="70.4" x="10.8" y="195.0746">getHistoryTag(): ByteArray?</text><ellipse cx="7.2" cy="200.7291" fill="#84BE84" rx="1.2" ry="1.2" style="stroke:#038048;stroke-width:0.4000000000000001;"/><text fill="#000000" font-family="sans-serif" font-size="5.6" lengthAdjust="spacing" textLength="66.8" x="10.8" y="202.7227">getTimeSignature(): String</text></g><!--class CHSesameLock--><g id="elem_CHSesameLock"><rect codeLine="69" fill="#F1F1F1" height="42.1441" id="CHSesameLock" rx="1" ry="1" style="stroke:#181818;stroke-width:0.20000000000000004;" width="177.6" x="19.8" y="298.4"/><ellipse cx="86.5" cy="304.8" fill="#B4A7E5" rx="4.4" ry="4.4" style="stroke:#181818;stroke-width:0.4000000000000001;"/><path d="M85.25,303.2 L85.25,302.525 L87.625,302.525 L87.625,303.2 L86.875,303.2 Q86.8125,303.2 86.7938,303.2125 Q86.775,303.225 86.775,303.2438 L86.775,306.4813 Q86.775,306.5 86.7938,306.5125 Q86.8125,306.525 86.875,306.525 L87.625,306.525 L87.625,307.2 L85.25,307.2 L85.25,306.525 L86,306.525 Q86.0813,306.525 86.0875,306.5188 Q86.1,306.5125 86.1,306.4813 L86.1,303.2438 Q86.1,303.2125 86.0875,303.2063 Q86.0813,303.2 86,303.2 L85.25,303.2 Z " fill="#000000"/><text fill="#000000" font-family="sans-serif" font-size="5.6" font-style="italic" lengthAdjust="spacing" textLength="40.8" x="94.7" y="307.3936">CHSesameLock</text><line style="stroke:#181818;stroke-width:0.20000000000000004;" x1="20.2" x2="197" y1="311.2" y2="311.2"/><line style="stroke:#181818;stroke-width:0.20000000000000004;" x1="20.2" x2="197" y1="314.4" y2="314.4"/><ellipse cx="24.2" cy="320.424" fill="#84BE84" rx="1.2" ry="1.2" style="stroke:#038048;stroke-width:0.4000000000000001;"/><text fill="#000000" font-family="sans-serif" font-size="5.6" lengthAdjust="spacing" textLength="167.2" x="27.8" y="322.4176">isEnableNotification(fcmToken: String, result: CHResult&lt;Boolean&gt;)</text><ellipse cx="24.2" cy="328.0721" fill="#84BE84" rx="1.2" ry="1.2" style="stroke:#038048;stroke-width:0.4000000000000001;"/><text fill="#000000" font-family="sans-serif" font-size="5.6" lengthAdjust="spacing" textLength="153.6" x="27.8" y="330.0656">enableNotification(fcmToken: String, result: CHResult&lt;Any&gt;)}</text><ellipse cx="24.2" cy="335.7201" fill="#84BE84" rx="1.2" ry="1.2" style="stroke:#038048;stroke-width:0.4000000000000001;"/><text fill="#000000" font-family="sans-serif" font-size="5.6" lengthAdjust="spacing" textLength="152.4" x="27.8" y="337.7137">disableNotification(fcmToken: String, result: CHResult&lt;Any&gt;)</text></g><!--class CHSesameBike2Device--><g id="elem_CHSesameBike2Device"><rect codeLine="74" fill="#F1F1F1" height="19.2" id="CHSesameBike2Device" rx="1" ry="1" style="stroke:#181818;stroke-width:0.20000000000000004;" width="72" x="226.6" y="575.6"/><ellipse cx="232.6" cy="582" fill="#ADD1B2" rx="4.4" ry="4.4" style="stroke:#181818;stroke-width:0.4000000000000001;"/><path d="M232.475,584.4 Q231.7,584.4 231.25,583.8313 Q230.8,583.2563 230.8,582.075 Q230.8,581.075 231.275,580.4 Q231.75,579.725 232.575,579.725 Q232.7688,579.725 232.9688,579.7688 Q233.1313,579.825 233.2313,579.825 Q233.3125,579.825 233.3438,579.8188 Q233.3813,579.8063 233.5938,579.5375 L233.8875,581.2313 L233.5,581.4688 Q233.3,580.85 233.0688,580.625 Q232.8438,580.4 232.4813,580.4 Q232.0188,580.4 231.7438,580.875 Q231.475,581.3438 231.475,582.075 Q231.475,582.875 231.7063,583.3 Q231.9375,583.725 232.4563,583.725 Q232.825,583.725 233.0813,583.5 Q233.3438,583.2688 233.4813,582.7125 L233.8938,582.9188 Q233.7375,583.6188 233.3625,584.0125 Q232.9875,584.4 232.475,584.4 Z " fill="#000000"/><text fill="#000000" font-family="sans-serif" font-size="5.6" lengthAdjust="spacing" textLength="59.2" x="238.2" y="584.5936">CHSesameBike2Device</text><line style="stroke:#181818;stroke-width:0.20000000000000004;" x1="227" x2="298.2" y1="588.4" y2="588.4"/><line style="stroke:#181818;stroke-width:0.20000000000000004;" x1="227" x2="298.2" y1="591.6" y2="591.6"/></g><!--class CHDeviceUtil--><g id="elem_CHDeviceUtil"><rect codeLine="77" fill="#F1F1F1" height="49.7922" id="CHDeviceUtil" rx="1" ry="1" style="stroke:#181818;stroke-width:0.20000000000000004;" width="117.2" x="204" y="463.8"/><ellipse cx="244.5" cy="470.2" fill="#B4A7E5" rx="4.4" ry="4.4" style="stroke:#181818;stroke-width:0.4000000000000001;"/><path d="M243.25,468.6 L243.25,467.925 L245.625,467.925 L245.625,468.6 L244.875,468.6 Q244.8125,468.6 244.7938,468.6125 Q244.775,468.625 244.775,468.6438 L244.775,471.8813 Q244.775,471.9 244.7938,471.9125 Q244.8125,471.925 244.875,471.925 L245.625,471.925 L245.625,472.6 L243.25,472.6 L243.25,471.925 L244,471.925 Q244.0813,471.925 244.0875,471.9188 Q244.1,471.9125 244.1,471.8813 L244.1,468.6438 Q244.1,468.6125 244.0875,468.6063 Q244.0813,468.6 244,468.6 L243.25,468.6 Z " fill="#000000"/><text fill="#000000" font-family="sans-serif" font-size="5.6" font-style="italic" lengthAdjust="spacing" textLength="32.8" x="252.7" y="472.7936">CHDeviceUtil</text><line style="stroke:#181818;stroke-width:0.20000000000000004;" x1="204.4" x2="320.8" y1="476.6" y2="476.6"/><rect fill="none" height="2.4" style="stroke:#C82930;stroke-width:0.4000000000000001;" width="2.4" x="207.2" y="481.424"/><text fill="#000000" font-family="sans-serif" font-size="5.6" lengthAdjust="spacing" textLength="73.2" x="212" y="484.6176">advertisement: CHadv?//&#24291;&#25773;</text><rect fill="none" height="2.4" style="stroke:#C82930;stroke-width:0.4000000000000001;" width="2.4" x="207.2" y="489.0721"/><text fill="#000000" font-family="sans-serif" font-size="5.6" lengthAdjust="spacing" textLength="106.8" x="212" y="492.2656">sesame2KeyData: CHDevice?//&#38000;&#21273;&#30340;&#36039;&#26009;</text><line style="stroke:#181818;stroke-width:0.20000000000000004;" x1="204.4" x2="320.8" y1="495.0961" y2="495.0961"/><rect fill="#F24D5C" height="2.4" style="stroke:#C82930;stroke-width:0.4000000000000001;" width="2.4" x="207.2" y="499.9201"/><text fill="#000000" font-family="sans-serif" font-size="5.6" lengthAdjust="spacing" textLength="56.4" x="212" y="503.1137">goIOT() {}//&#35330;&#38321;&#65321;&#65327;&#65332;</text><rect fill="#F24D5C" height="2.4" style="stroke:#C82930;stroke-width:0.4000000000000001;" width="2.4" x="207.2" y="507.5682"/><text fill="#000000" font-family="sans-serif" font-size="5.6" lengthAdjust="spacing" textLength="66.4" x="212" y="510.7617">login(token: String? = null)</text></g><!--class CHSesameBike2--><g id="elem_CHSesameBike2"><rect codeLine="83" fill="#F1F1F1" height="26.848" id="CHSesameBike2" rx="1" ry="1" style="stroke:#181818;stroke-width:0.20000000000000004;" width="162.8" x="27.2" y="475.2"/><ellipse cx="85.5" cy="481.6" fill="#B4A7E5" rx="4.4" ry="4.4" style="stroke:#181818;stroke-width:0.4000000000000001;"/><path d="M84.25,480 L84.25,479.325 L86.625,479.325 L86.625,480 L85.875,480 Q85.8125,480 85.7938,480.0125 Q85.775,480.025 85.775,480.0438 L85.775,483.2813 Q85.775,483.3 85.7938,483.3125 Q85.8125,483.325 85.875,483.325 L86.625,483.325 L86.625,484 L84.25,484 L84.25,483.325 L85,483.325 Q85.0813,483.325 85.0875,483.3188 Q85.1,483.3125 85.1,483.2813 L85.1,480.0438 Q85.1,480.0125 85.0875,480.0063 Q85.0813,480 85,480 L84.25,480 Z " fill="#000000"/><text fill="#000000" font-family="sans-serif" font-size="5.6" font-style="italic" lengthAdjust="spacing" textLength="42.8" x="93.7" y="484.1936">CHSesameBike2</text><line style="stroke:#181818;stroke-width:0.20000000000000004;" x1="27.6" x2="189.6" y1="488" y2="488"/><line style="stroke:#181818;stroke-width:0.20000000000000004;" x1="27.6" x2="189.6" y1="491.2" y2="491.2"/><text fill="#000000" font-family="sans-serif" font-size="5.6" lengthAdjust="spacing" textLength="158" x="29.6" y="499.2176">fun unlock(tag: ByteArray? = null, result: CHResult&lt;CHEmpty&gt;)</text></g><!--link CHSesameOS3Publish to CHSesameOS3--><g id="link_CHSesameOS3Publish_CHSesameOS3"><path codeLine="86" d="M508.032,332.872 C500.084,353.788 484.04,395.996 470.684,431.14 " fill="none" id="CHSesameOS3Publish-to-CHSesameOS3" style="stroke:#181818;stroke-width:0.4000000000000001;"/><polygon fill="#181818" points="469.972,433.02,472.7445,430.2212,470.6811,431.1499,469.7524,429.0866,469.972,433.02" style="stroke:#181818;stroke-width:0.4000000000000001;"/><text fill="#000000" font-family="sans-serif" font-size="5.2" lengthAdjust="spacing" textLength="26.8" x="477.4" y="419.9592">implements</text></g><!--link CHBaseDevice to CHSesameOS3--><g id="link_CHBaseDevice_CHSesameOS3"><path codeLine="87" d="M416.108,401.656 C419.912,411.664 423.732,421.716 427.356,431.244 " fill="none" id="CHBaseDevice-to-CHSesameOS3" style="stroke:#181818;stroke-width:0.4000000000000001;"/><polygon fill="#181818" points="428.076,433.144,428.2956,429.2106,427.3669,431.2739,425.3035,430.3452,428.076,433.144" style="stroke:#181818;stroke-width:0.4000000000000001;"/><text fill="#000000" font-family="sans-serif" font-size="5.2" lengthAdjust="spacing" textLength="18.4" x="423" y="419.9592">extends</text></g><!--link CHDevices to CHSesameLock--><g id="link_CHDevices_CHSesameLock"><path codeLine="89" d="M108.6,205.68 C108.6,239.58 108.6,274.304 108.6,296.224 " fill="none" id="CHDevices-to-CHSesameLock" style="stroke:#181818;stroke-width:0.4000000000000001;"/><polygon fill="#181818" points="108.6,298.304,110.2,294.704,108.6,296.304,107,294.704,108.6,298.304" style="stroke:#181818;stroke-width:0.4000000000000001;"/><text fill="#000000" font-family="sans-serif" font-size="5.2" lengthAdjust="spacing" textLength="18.4" x="109" y="223.9592">extends</text></g><!--link CHSesameLock to CHSesameBike2--><g id="link_CHSesameLock_CHSesameBike2"><path codeLine="90" d="M108.6,340.448 C108.6,374.756 108.6,442.716 108.6,473.012 " fill="none" id="CHSesameLock-to-CHSesameBike2" style="stroke:#181818;stroke-width:0.4000000000000001;"/><polygon fill="#181818" points="108.6,475.128,110.2,471.528,108.6,473.128,107,471.528,108.6,475.128" style="stroke:#181818;stroke-width:0.4000000000000001;"/><text fill="#000000" font-family="sans-serif" font-size="5.2" lengthAdjust="spacing" textLength="18.4" x="109" y="419.9592">extends</text></g><!--link CHSesameBike2 to CHSesameBike2Device--><g id="link_CHSesameBike2_CHSesameBike2Device"><path codeLine="91" d="M129.496,502.004 C147.408,513.148 173.9,529.632 197,544 C213.676,554.372 232.736,566.228 246,574.476 " fill="none" id="CHSesameBike2-to-CHSesameBike2Device" style="stroke:#181818;stroke-width:0.4000000000000001;"/><polygon fill="#181818" points="247.748,575.564,245.5333,572.3059,246.0488,574.5091,243.8456,575.0246,247.748,575.564" style="stroke:#181818;stroke-width:0.4000000000000001;"/><text fill="#000000" font-family="sans-serif" font-size="5.2" lengthAdjust="spacing" textLength="26.8" x="228.2" y="562.3592">implements</text></g><!--link CHDeviceUtil to CHSesameBike2Device--><g id="link_CHDeviceUtil_CHSesameBike2Device"><path codeLine="92" d="M262.6,513.424 C262.6,532.708 262.6,558.74 262.6,573.444 " fill="none" id="CHDeviceUtil-to-CHSesameBike2Device" style="stroke:#181818;stroke-width:0.4000000000000001;"/><polygon fill="#181818" points="262.6,575.532,264.2,571.932,262.6,573.532,261,571.932,262.6,575.532" style="stroke:#181818;stroke-width:0.4000000000000001;"/><text fill="#000000" font-family="sans-serif" font-size="5.2" lengthAdjust="spacing" textLength="26.8" x="263" y="562.3592">implements</text></g><!--link CHSesameOS3 to CHSesameBike2Device--><g id="link_CHSesameOS3_CHSesameBike2Device"><path codeLine="93" d="M341.92,544.032 C319,555.816 297.22,567.008 282.304,574.672 " fill="none" id="CHSesameOS3-to-CHSesameBike2Device" style="stroke:#181818;stroke-width:0.4000000000000001;"/><polygon fill="#181818" points="280.52,575.588,284.4532,575.3638,282.2984,574.673,282.9892,572.5183,280.52,575.588" style="stroke:#181818;stroke-width:0.4000000000000001;"/><text fill="#000000" font-family="sans-serif" font-size="5.2" lengthAdjust="spacing" textLength="18.4" x="318.2" y="562.3592">extends</text></g><!--SRC=[dLPBRnit4Bxlh-1HWYAuJM-Br88b9R7Hs0uaENUQEreHsYKN9DU9OFXI5EYbb_OG8BtsqXwAf6XlyT_9w-I_qE4kzst9HlQqv7mpdCStGt9XG2qf0p8vd8EcCPpEltkUdaTShyYbHyX0YgVKc5pc1Bs-T-LvBA9QezgOQfZ21MTmwGq2hfaK0fX1q21GCla1DlWxr9c1XxYQKaFzoM6kuWsBlxcX9jL-S-aDWtoree5ykGKI0rkL8kUeaaOo6HsN8cz824cK359cZcK0aO-kFw-j4H1YeBDNutIv1EMJtD8uWXamu1UWoFVTlLwVECL5Lt6XgD0nDoFK56aKMMYSInTo3S8duus10wNe1ZDD24edAweemvfmRJX3G9I2aTAiR16Qmifghein03e2Dh1wWgPkly2NS0jPy1YqeN7YFvCYR44Y6NAn4v4REGfySdPsD6q9kPv1YAw20WICfOo02eGObOA3AAsvJuv4bg9lYYGqWcxbe7F62K1ma9hL4oKnj-h2Li2TPR5B6ccmT2tvMj8yuxSrmdYogWg74gpT9DjhdSRYO4AZQ4pPsYV7gQ7d4HpJvD6PhUE3Idy6Ef52WmMV8tWVpSGb_7I93P4Rr13JP2KLsCFTRqOpzz_xjk-r4r8ORPF3RTkUhLeG5yQnC5zf4C54nZ4LGRuHWda1IdCf5ZJCjnHeSF0q2P0wJxYANr9q9zjBg69mC7sHhxRE1ruRBJaVzQKDfkfMihrTHxjOkeEUz-s5XldAdSPWQK3g0wW577N8V7jtx6eB9zive4Zn3KXjp6AnqiXOy2pxUpGvV1mdPhEVSsn0iC3P3AxS9avIZEVxcAXnf0EV6yL5MAAL2-zkkpdHxeIrI2X5qLyrdR8NyX1BNQO0TP-cI18RwXes9qWuRBVCvmVabiCB2wIAlj3NNMUpyOrQ1MIIclrQWB6yg4uFtO-bn0u7NFIa4VvE8-Akc9e9nQmVOecasjXw6XhMRgBxU1GszFirxL4DObjppaE1FM97H-4VmU70Ey-EPvAjSHuFi3qU2pieJwJXIyweGTRrbYnsD-RM65qZLKx2Lvav41ZdbLVljAysWu4sBvqnNyF3ugs4vbkPo2LdXaSe7H8Qu6LcEDuH83BRk37Qs_lm_e-Fl_rTNY2DPrLf175VVdttuPStdtx_wVE_Ftzy_SOfXFBeT86lbikhlRtFV_xuvVK_DzT_tLo_lRd-hpvMUwOUO74DzcyjNHOLUhnC1Kb5X8LiKQfGtydCA- -M5-XmkD-uiNqU9r6M3-tLNvvT8BmoUDDfpoil7ukfiws4r3Vhe2ok3YhRxS3oCvhkLUMy5xnoVWkw3Eb_]--></g></svg>