<?xml version="1.0" encoding="us-ascii" standalone="no"?><svg xmlns="http://www.w3.org/2000/svg" xmlns:xlink="http://www.w3.org/1999/xlink" contentStyleType="text/css" height="465.6px" preserveAspectRatio="none" style="width:445px;height:465px;background:#FFFFFF;" version="1.1" viewBox="0 0 445 465" width="445.8px" zoomAndPan="magnify"><defs/><g><!--class CHSesameOS3Publish--><g id="elem_CHSesameOS3Publish"><rect codeLine="1" fill="#F1F1F1" height="20.136" id="CHSesameOS3Publish" rx="0.75" ry="0.75" style="stroke:#181818;stroke-width:0.15;" width="53.1" x="380.1" y="229.5"/><ellipse cx="384.6" cy="234.3" fill="#B4A7E5" rx="3.3" ry="3.3" style="stroke:#181818;stroke-width:0.3;"/><path d="M383.6625,233.1 L383.6625,232.5938 L385.4437,232.5938 L385.4437,233.1 L384.8812,233.1 Q384.8344,233.1 384.8203,233.1094 Q384.8063,233.1187 384.8063,233.1328 L384.8063,235.5609 Q384.8063,235.575 384.8203,235.5844 Q384.8344,235.5938 384.8812,235.5938 L385.4437,235.5938 L385.4437,236.1 L383.6625,236.1 L383.6625,235.5938 L384.225,235.5938 Q384.2859,235.5938 384.2906,235.5891 Q384.3,235.5844 384.3,235.5609 L384.3,233.1328 Q384.3,233.1094 384.2906,233.1047 Q384.2859,233.1 384.225,233.1 L383.6625,233.1 Z " fill="#000000"/><text fill="#000000" font-family="sans-serif" font-size="4.2" font-style="italic" lengthAdjust="spacing" textLength="43.5" x="388.8" y="236.2452">CHSesameOS3Publish</text><line style="stroke:#181818;stroke-width:0.15;" x1="380.4" x2="432.9" y1="239.1" y2="239.1"/><line style="stroke:#181818;stroke-width:0.15;" x1="380.4" x2="432.9" y1="241.5" y2="241.5"/><ellipse cx="383.4" cy="246.018" fill="#84BE84" rx="0.9" ry="0.9" style="stroke:#038048;stroke-width:0.3;"/><text fill="#000000" font-family="sans-serif" font-size="4.2" lengthAdjust="spacing" textLength="45" x="386.1" y="247.5132">onGattSesamePublish()</text></g><!--class CHBaseDevice--><g id="elem_CHBaseDevice"><rect codeLine="5" fill="#F1F1F1" height="123.3847" id="CHBaseDevice" rx="0.75" ry="0.75" style="stroke:#181818;stroke-width:0.15;" width="117.6" x="251.85" y="177.9"/><ellipse cx="295.275" cy="182.7" fill="#ADD1B2" rx="3.3" ry="3.3" style="stroke:#181818;stroke-width:0.3;"/><path d="M295.1813,184.5 Q294.6,184.5 294.2625,184.0734 Q293.925,183.6422 293.925,182.7563 Q293.925,182.0063 294.2813,181.5 Q294.6375,180.9938 295.2562,180.9938 Q295.4016,180.9938 295.5516,181.0266 Q295.6734,181.0688 295.7484,181.0688 Q295.8094,181.0688 295.8328,181.0641 Q295.8609,181.0547 296.0203,180.8531 L296.2406,182.1234 L295.95,182.3016 Q295.8,181.8375 295.6266,181.6688 Q295.4578,181.5 295.1859,181.5 Q294.8391,181.5 294.6328,181.8563 Q294.4313,182.2078 294.4313,182.7563 Q294.4313,183.3563 294.6047,183.675 Q294.7781,183.9938 295.1672,183.9938 Q295.4437,183.9938 295.6359,183.825 Q295.8328,183.6516 295.9359,183.2344 L296.2453,183.3891 Q296.1281,183.9141 295.8469,184.2094 Q295.5656,184.5 295.1813,184.5 Z " fill="#000000"/><text fill="#000000" font-family="sans-serif" font-size="4.2" lengthAdjust="spacing" textLength="28.2" x="301.425" y="184.6452">CHBaseDevice</text><line style="stroke:#181818;stroke-width:0.15;" x1="252.15" x2="369.15" y1="187.5" y2="187.5"/><rect fill="none" height="1.8" style="stroke:#C82930;stroke-width:0.3;" width="1.8" x="254.25" y="191.118"/><text fill="#000000" font-family="sans-serif" font-size="4.2" lengthAdjust="spacing" textLength="53.1" x="257.85" y="193.5132">sesame2KeyData:CHDevice</text><rect fill="none" height="1.8" style="stroke:#C82930;stroke-width:0.3;" width="1.8" x="254.25" y="196.8541"/><text fill="#000000" font-family="sans-serif" font-size="4.2" lengthAdjust="spacing" textLength="62.4" x="257.85" y="199.2492">CHDeviceStatus:CHDeviceStatus</text><rect fill="none" height="1.8" style="stroke:#C82930;stroke-width:0.3;" width="1.8" x="254.25" y="202.5901"/><text fill="#000000" font-family="sans-serif" font-size="4.2" lengthAdjust="spacing" textLength="71.1" x="257.85" y="204.9853">deviceShadowStatus:CHDeviceStatus</text><rect fill="none" height="1.8" style="stroke:#C82930;stroke-width:0.3;" width="1.8" x="254.25" y="208.3261"/><text fill="#000000" font-family="sans-serif" font-size="4.2" lengthAdjust="spacing" textLength="82.2" x="257.85" y="210.7213">mechStatus:CHSesameProtocolMechStatus</text><rect fill="none" height="1.8" style="stroke:#C82930;stroke-width:0.3;" width="1.8" x="254.25" y="214.0622"/><text fill="#000000" font-family="sans-serif" font-size="4.2" lengthAdjust="spacing" textLength="60" x="257.85" y="216.4573">productModel: CHProductModel</text><rect fill="none" height="1.8" style="stroke:#C82930;stroke-width:0.3;" width="1.8" x="254.25" y="219.7982"/><text fill="#000000" font-family="sans-serif" font-size="4.2" lengthAdjust="spacing" textLength="77.1" x="257.85" y="222.1934">gattTxBuffer: SesameBleTransmit? = null</text><rect fill="none" height="1.8" style="stroke:#C82930;stroke-width:0.3;" width="1.8" x="254.25" y="225.5342"/><text fill="#000000" font-family="sans-serif" font-size="4.2" lengthAdjust="spacing" textLength="51.6" x="257.85" y="227.9294">mSesameToken: ByteArray</text><rect fill="none" height="1.8" style="stroke:#C82930;stroke-width:0.3;" width="1.8" x="254.25" y="231.2703"/><text fill="#000000" font-family="sans-serif" font-size="4.2" lengthAdjust="spacing" textLength="97.8" x="257.85" y="233.6654">mCharacteristic: BluetoothGattCharacteristic? = null</text><rect fill="none" height="1.8" style="stroke:#C82930;stroke-width:0.3;" width="1.8" x="254.25" y="237.0063"/><text fill="#000000" font-family="sans-serif" font-size="4.2" lengthAdjust="spacing" textLength="80.4" x="257.85" y="239.4015">delegate: CHDeviceStatusDelegate? = null</text><rect fill="none" height="1.8" style="stroke:#C82930;stroke-width:0.3;" width="1.8" x="254.25" y="242.7423"/><text fill="#000000" font-family="sans-serif" font-size="4.2" lengthAdjust="spacing" textLength="57.6" x="257.85" y="245.1375">deviceTimestamp:Long? = null</text><rect fill="none" height="1.8" style="stroke:#C82930;stroke-width:0.3;" width="1.8" x="254.25" y="248.4784"/><text fill="#000000" font-family="sans-serif" font-size="4.2" lengthAdjust="spacing" textLength="54.3" x="257.85" y="250.8735">loginTimestamp:Long? = null</text><rect fill="none" height="1.8" style="stroke:#C82930;stroke-width:0.3;" width="1.8" x="254.25" y="254.2144"/><text fill="#000000" font-family="sans-serif" font-size="4.2" lengthAdjust="spacing" textLength="41.1" x="257.85" y="256.6096">deviceId: UUID? = null</text><rect fill="none" height="1.8" style="stroke:#C82930;stroke-width:0.3;" width="1.8" x="254.25" y="259.9504"/><text fill="#000000" font-family="sans-serif" font-size="4.2" lengthAdjust="spacing" textLength="54" x="257.85" y="262.3456">isRegistered: Boolean = true</text><rect fill="none" height="1.8" style="stroke:#C82930;stroke-width:0.3;" width="1.8" x="254.25" y="265.6865"/><text fill="#000000" font-family="sans-serif" font-size="4.2" lengthAdjust="spacing" textLength="23.1" x="257.85" y="268.0816">rssi: Int? = 0</text><rect fill="none" height="1.8" style="stroke:#C82930;stroke-width:0.3;" width="1.8" x="254.25" y="271.4225"/><text fill="#000000" font-family="sans-serif" font-size="4.2" lengthAdjust="spacing" textLength="71.7" x="257.85" y="273.8177">mBluetoothGatt: BluetoothGatt? = null</text><rect fill="none" height="1.8" style="stroke:#C82930;stroke-width:0.3;" width="1.8" x="254.25" y="277.1585"/><text fill="#000000" font-family="sans-serif" font-size="4.2" lengthAdjust="spacing" textLength="78.3" x="257.85" y="279.5537">isNeedAuthFromServer: Boolean? = false</text><line style="stroke:#181818;stroke-width:0.15;" x1="252.15" x2="369.15" y1="281.6766" y2="281.6766"/><ellipse cx="255.15" cy="286.1946" fill="#84BE84" rx="0.9" ry="0.9" style="stroke:#038048;stroke-width:0.3;"/><text fill="#000000" font-family="sans-serif" font-size="4.2" lengthAdjust="spacing" textLength="23.4" x="257.85" y="287.6897">disconnect()</text><ellipse cx="255.15" cy="291.9306" fill="#84BE84" rx="0.9" ry="0.9" style="stroke:#038048;stroke-width:0.3;"/><text fill="#000000" font-family="sans-serif" font-size="4.2" lengthAdjust="spacing" textLength="18.9" x="257.85" y="293.4258">dropKey()</text><rect fill="#F24D5C" height="1.8" style="stroke:#C82930;stroke-width:0.3;" width="1.8" x="254.25" y="296.7667"/><text fill="#000000" font-family="sans-serif" font-size="4.2" lengthAdjust="spacing" textLength="109.8" x="257.85" y="299.1618">gattRxBuffer: SesameBleReceiver = SesameBleReceiver()</text></g><!--class CHSesameOS3--><g id="elem_CHSesameOS3"><rect codeLine="28" fill="#F1F1F1" height="83.2324" id="CHSesameOS3" rx="0.75" ry="0.75" style="stroke:#181818;stroke-width:0.15;" width="170.4" x="273.45" y="333.6"/><ellipse cx="342.675" cy="338.4" fill="#ADD1B2" rx="3.3" ry="3.3" style="stroke:#181818;stroke-width:0.3;"/><path d="M342.5813,340.2 Q342,340.2 341.6625,339.7734 Q341.325,339.3422 341.325,338.4563 Q341.325,337.7063 341.6813,337.2 Q342.0375,336.6937 342.6563,336.6937 Q342.8016,336.6937 342.9516,336.7266 Q343.0734,336.7688 343.1484,336.7688 Q343.2094,336.7688 343.2328,336.7641 Q343.2609,336.7547 343.4203,336.5531 L343.6406,337.8234 L343.35,338.0016 Q343.2,337.5375 343.0266,337.3688 Q342.8578,337.2 342.5859,337.2 Q342.2391,337.2 342.0328,337.5563 Q341.8313,337.9078 341.8313,338.4563 Q341.8313,339.0563 342.0047,339.375 Q342.1781,339.6937 342.5672,339.6937 Q342.8438,339.6937 343.0359,339.525 Q343.2328,339.3516 343.3359,338.9344 L343.6453,339.0891 Q343.5281,339.6141 343.2469,339.9094 Q342.9656,340.2 342.5813,340.2 Z " fill="#000000"/><text fill="#000000" font-family="sans-serif" font-size="4.2" lengthAdjust="spacing" textLength="29.4" x="348.825" y="340.3452">CHSesameOS3</text><line style="stroke:#181818;stroke-width:0.15;" x1="273.75" x2="443.55" y1="343.2" y2="343.2"/><rect fill="none" height="1.8" style="stroke:#C82930;stroke-width:0.3;" width="1.8" x="275.85" y="346.818"/><text fill="#000000" font-family="sans-serif" font-size="4.2" lengthAdjust="spacing" textLength="70.2" x="279.45" y="349.2132">cipher: SesameOS3BleCipher? = null</text><rect fill="none" height="1.8" style="stroke:#C82930;stroke-width:0.3;" width="1.8" x="275.85" y="352.5541"/><text fill="#000000" font-family="sans-serif" font-size="4.2" lengthAdjust="spacing" textLength="90.3" x="279.45" y="354.9492">mBluetoothGattCallback: BluetoothGattCallback</text><line style="stroke:#181818;stroke-width:0.15;" x1="273.75" x2="443.55" y1="357.0721" y2="357.0721"/><rect fill="#F24D5C" height="1.8" style="stroke:#C82930;stroke-width:0.3;" width="1.8" x="275.85" y="360.6901"/><text fill="#000000" font-family="sans-serif" font-size="4.2" lengthAdjust="spacing" textLength="162.6" x="279.45" y="363.0853">cmdCallBack: MutableMap&lt;UByte, SesameOS3ResponseCallback&gt; = mutableMapOf()</text><rect fill="#F24D5C" height="1.8" style="stroke:#C82930;stroke-width:0.3;" width="1.8" x="275.85" y="366.4261"/><text fill="#000000" font-family="sans-serif" font-size="4.2" lengthAdjust="spacing" textLength="77.7" x="279.45" y="368.8213">semaphore: Semaphore = Semaphore(1)</text><ellipse cx="276.75" cy="373.0622" fill="#84BE84" rx="0.9" ry="0.9" style="stroke:#038048;stroke-width:0.3;"/><text fill="#000000" font-family="sans-serif" font-size="4.2" lengthAdjust="spacing" textLength="18" x="279.45" y="374.5573">connect()</text><ellipse cx="276.75" cy="378.7982" fill="#84BE84" rx="0.9" ry="0.9" style="stroke:#038048;stroke-width:0.3;"/><text fill="#000000" font-family="sans-serif" font-size="4.2" lengthAdjust="spacing" textLength="18" x="279.45" y="380.2934">transmit()</text><ellipse cx="276.75" cy="384.5342" fill="#84BE84" rx="0.9" ry="0.9" style="stroke:#038048;stroke-width:0.3;"/><text fill="#000000" font-family="sans-serif" font-size="4.2" lengthAdjust="spacing" textLength="31.5" x="279.45" y="386.0294">sendCommand()</text><ellipse cx="276.75" cy="390.2703" fill="#84BE84" rx="0.9" ry="0.9" style="stroke:#038048;stroke-width:0.3;"/><text fill="#000000" font-family="sans-serif" font-size="4.2" lengthAdjust="spacing" textLength="30.9" x="279.45" y="391.7654">getVersionTag()</text><ellipse cx="276.75" cy="396.0063" fill="#84BE84" rx="0.9" ry="0.9" style="stroke:#038048;stroke-width:0.3;"/><text fill="#000000" font-family="sans-serif" font-size="4.2" lengthAdjust="spacing" textLength="12.6" x="279.45" y="397.5015">reset()</text><ellipse cx="276.75" cy="401.7423" fill="#84BE84" rx="0.9" ry="0.9" style="stroke:#038048;stroke-width:0.3;"/><text fill="#000000" font-family="sans-serif" font-size="4.2" lengthAdjust="spacing" textLength="33.6" x="279.45" y="403.2375">updateFirmware()</text><ellipse cx="276.75" cy="407.4784" fill="#84BE84" rx="0.9" ry="0.9" style="stroke:#038048;stroke-width:0.3;"/><text fill="#000000" font-family="sans-serif" font-size="4.2" lengthAdjust="spacing" textLength="22.2" x="279.45" y="408.9735">parceADV()</text><ellipse cx="276.75" cy="413.2144" fill="#84BE84" rx="0.9" ry="0.9" style="stroke:#038048;stroke-width:0.3;"/><text fill="#000000" font-family="sans-serif" font-size="4.2" lengthAdjust="spacing" textLength="45" x="279.45" y="414.7096">onGattSesamePublish()</text></g><!--class CHDevices--><g id="elem_CHDevices"><rect codeLine="43" fill="#F1F1F1" height="152.0648" id="CHDevices" rx="0.75" ry="0.75" style="stroke:#181818;stroke-width:0.15;" width="158.7" x="3.9" y="2.1"/><ellipse cx="71.625" cy="6.9" fill="#B4A7E5" rx="3.3" ry="3.3" style="stroke:#181818;stroke-width:0.3;"/><path d="M70.6875,5.7 L70.6875,5.1938 L72.4688,5.1938 L72.4688,5.7 L71.9063,5.7 Q71.8594,5.7 71.8453,5.7094 Q71.8313,5.7188 71.8313,5.7328 L71.8313,8.1609 Q71.8313,8.175 71.8453,8.1844 Q71.8594,8.1938 71.9063,8.1938 L72.4688,8.1938 L72.4688,8.7 L70.6875,8.7 L70.6875,8.1938 L71.25,8.1938 Q71.3109,8.1938 71.3156,8.1891 Q71.325,8.1844 71.325,8.1609 L71.325,5.7328 Q71.325,5.7094 71.3156,5.7047 Q71.3109,5.7 71.25,5.7 L70.6875,5.7 Z " fill="#000000"/><text fill="#000000" font-family="sans-serif" font-size="4.2" font-style="italic" lengthAdjust="spacing" textLength="20.7" x="77.775" y="8.8452">CHDevices</text><line style="stroke:#181818;stroke-width:0.15;" x1="4.2" x2="162.3" y1="11.7" y2="11.7"/><rect fill="none" height="1.8" style="stroke:#C82930;stroke-width:0.3;" width="1.8" x="6.3" y="15.318"/><text fill="#000000" font-family="sans-serif" font-size="4.2" lengthAdjust="spacing" textLength="85.8" x="9.9" y="17.7132">mechStatus: CHSesameProtocolMechStatus?</text><rect fill="none" height="1.8" style="stroke:#C82930;stroke-width:0.3;" width="1.8" x="6.3" y="21.0541"/><text fill="#000000" font-family="sans-serif" font-size="4.2" lengthAdjust="spacing" textLength="46.2" x="9.9" y="23.4492">deviceTimestamp:Long?</text><rect fill="none" height="1.8" style="stroke:#C82930;stroke-width:0.3;" width="1.8" x="6.3" y="26.7901"/><text fill="#000000" font-family="sans-serif" font-size="4.2" lengthAdjust="spacing" textLength="42.9" x="9.9" y="29.1853">loginTimestamp:Long?</text><rect fill="none" height="1.8" style="stroke:#C82930;stroke-width:0.3;" width="1.8" x="6.3" y="32.5261"/><text fill="#000000" font-family="sans-serif" font-size="4.2" lengthAdjust="spacing" textLength="69" x="9.9" y="34.9213">delegate: CHDeviceStatusDelegate?</text><rect fill="none" height="1.8" style="stroke:#C82930;stroke-width:0.3;" width="1.8" x="6.3" y="38.2622"/><text fill="#000000" font-family="sans-serif" font-size="4.2" lengthAdjust="spacing" textLength="57.3" x="9.9" y="40.6573">deviceStatus: CHDeviceStatus</text><rect fill="none" height="1.8" style="stroke:#C82930;stroke-width:0.3;" width="1.8" x="6.3" y="43.9982"/><text fill="#000000" font-family="sans-serif" font-size="4.2" lengthAdjust="spacing" textLength="74.7" x="9.9" y="46.3934">deviceShadowStatus: CHDeviceStatus?</text><rect fill="none" height="1.8" style="stroke:#C82930;stroke-width:0.3;" width="1.8" x="6.3" y="49.7342"/><text fill="#000000" font-family="sans-serif" font-size="4.2" lengthAdjust="spacing" textLength="15.9" x="9.9" y="52.1294">rssi: Int?</text><rect fill="none" height="1.8" style="stroke:#C82930;stroke-width:0.3;" width="1.8" x="6.3" y="55.4703"/><text fill="#000000" font-family="sans-serif" font-size="4.2" lengthAdjust="spacing" textLength="29.7" x="9.9" y="57.8654">deviceId: UUID?</text><rect fill="none" height="1.8" style="stroke:#C82930;stroke-width:0.3;" width="1.8" x="6.3" y="61.2063"/><text fill="#000000" font-family="sans-serif" font-size="4.2" lengthAdjust="spacing" textLength="41.7" x="9.9" y="63.6015">isRegistered: Boolean</text><rect fill="none" height="1.8" style="stroke:#C82930;stroke-width:0.3;" width="1.8" x="6.3" y="66.9423"/><text fill="#000000" font-family="sans-serif" font-size="4.2" lengthAdjust="spacing" textLength="60" x="9.9" y="69.3375">productModel: CHProductModel</text><line style="stroke:#181818;stroke-width:0.15;" x1="4.2" x2="162.3" y1="71.4604" y2="71.4604"/><ellipse cx="7.2" cy="75.9784" fill="#84BE84" rx="0.9" ry="0.9" style="stroke:#038048;stroke-width:0.3;"/><text fill="#000000" font-family="sans-serif" font-size="4.2" lengthAdjust="spacing" textLength="76.2" x="9.9" y="77.4735">disconnect(result: CHResult&lt;CHEmpty&gt;)</text><ellipse cx="7.2" cy="81.7144" fill="#84BE84" rx="0.9" ry="0.9" style="stroke:#038048;stroke-width:0.3;"/><text fill="#000000" font-family="sans-serif" font-size="4.2" lengthAdjust="spacing" textLength="37.2" x="9.9" y="83.2096">getKey(): CHDevice</text><ellipse cx="7.2" cy="87.4504" fill="#84BE84" rx="0.9" ry="0.9" style="stroke:#038048;stroke-width:0.3;"/><text fill="#000000" font-family="sans-serif" font-size="4.2" lengthAdjust="spacing" textLength="71.7" x="9.9" y="88.9456">dropKey(result: CHResult&lt;CHEmpty&gt;)</text><ellipse cx="7.2" cy="93.1865" fill="#84BE84" rx="0.9" ry="0.9" style="stroke:#038048;stroke-width:0.3;"/><text fill="#000000" font-family="sans-serif" font-size="4.2" lengthAdjust="spacing" textLength="77.4" x="9.9" y="94.6816">getVersionTag(result: CHResult&lt;String&gt;)</text><ellipse cx="7.2" cy="98.9225" fill="#84BE84" rx="0.9" ry="0.9" style="stroke:#038048;stroke-width:0.3;"/><text fill="#000000" font-family="sans-serif" font-size="4.2" lengthAdjust="spacing" textLength="70.2" x="9.9" y="100.4177">register(result: CHResult&lt;CHEmpty&gt;)</text><ellipse cx="7.2" cy="104.6585" fill="#84BE84" rx="0.9" ry="0.9" style="stroke:#038048;stroke-width:0.3;"/><text fill="#000000" font-family="sans-serif" font-size="4.2" lengthAdjust="spacing" textLength="65.4" x="9.9" y="106.1537">reset(result: CHResult&lt;CHEmpty&gt;)</text><ellipse cx="7.2" cy="110.3946" fill="#84BE84" rx="0.9" ry="0.9" style="stroke:#038048;stroke-width:0.3;"/><text fill="#000000" font-family="sans-serif" font-size="4.2" lengthAdjust="spacing" textLength="113.4" x="9.9" y="111.8897">updateFirmware(onResponse: CHResult&lt;BluetoothDevice&gt;)</text><ellipse cx="7.2" cy="116.1306" fill="#84BE84" rx="0.9" ry="0.9" style="stroke:#038048;stroke-width:0.3;"/><text fill="#000000" font-family="sans-serif" font-size="4.2" lengthAdjust="spacing" textLength="120.9" x="9.9" y="117.6258">createGuestKey(keyName: String, result: CHResult&lt;CHDevice&gt;)</text><ellipse cx="7.2" cy="121.8667" fill="#84BE84" rx="0.9" ry="0.9" style="stroke:#038048;stroke-width:0.3;"/><text fill="#000000" font-family="sans-serif" font-size="4.2" lengthAdjust="spacing" textLength="111" x="9.9" y="123.3618">getGuestKeys(result: CHResult&lt;Array&lt;CHGuestKeyCut&gt;&gt;)</text><ellipse cx="7.2" cy="127.6027" fill="#84BE84" rx="0.9" ry="0.9" style="stroke:#038048;stroke-width:0.3;"/><text fill="#000000" font-family="sans-serif" font-size="4.2" lengthAdjust="spacing" textLength="125.4" x="9.9" y="129.0979">removeGuestKey(guestKeyId: String, result: CHResult&lt;CHEmpty&gt;)</text><ellipse cx="7.2" cy="133.3387" fill="#84BE84" rx="0.9" ry="0.9" style="stroke:#038048;stroke-width:0.3;"/><text fill="#000000" font-family="sans-serif" font-size="4.2" lengthAdjust="spacing" textLength="150.9" x="9.9" y="134.8339">updateGuestKey(guestKeyId: String, name: String, result: CHResult&lt;CHEmpty&gt;)</text><ellipse cx="7.2" cy="139.0748" fill="#84BE84" rx="0.9" ry="0.9" style="stroke:#038048;stroke-width:0.3;"/><text fill="#000000" font-family="sans-serif" font-size="4.2" lengthAdjust="spacing" textLength="111.3" x="9.9" y="140.5699">setHistoryTag(tag: ByteArray, result: CHResult&lt;CHEmpty&gt;)</text><ellipse cx="7.2" cy="144.8108" fill="#84BE84" rx="0.9" ry="0.9" style="stroke:#038048;stroke-width:0.3;"/><text fill="#000000" font-family="sans-serif" font-size="4.2" lengthAdjust="spacing" textLength="52.8" x="9.9" y="146.306">getHistoryTag(): ByteArray?</text><ellipse cx="7.2" cy="150.5468" fill="#84BE84" rx="0.9" ry="0.9" style="stroke:#038048;stroke-width:0.3;"/><text fill="#000000" font-family="sans-serif" font-size="4.2" lengthAdjust="spacing" textLength="50.1" x="9.9" y="152.042">getTimeSignature(): String</text></g><!--class CHSesameTouchProDevice--><g id="elem_CHSesameTouchProDevice"><rect codeLine="70" fill="#F1F1F1" height="14.4" id="CHSesameTouchProDevice" rx="0.75" ry="0.75" style="stroke:#181818;stroke-width:0.15;" width="62.1" x="187.8" y="449.1"/><ellipse cx="192.3" cy="453.9" fill="#ADD1B2" rx="3.3" ry="3.3" style="stroke:#181818;stroke-width:0.3;"/><path d="M192.2062,455.7 Q191.625,455.7 191.2875,455.2734 Q190.95,454.8422 190.95,453.9563 Q190.95,453.2063 191.3063,452.7 Q191.6625,452.1937 192.2813,452.1937 Q192.4266,452.1937 192.5766,452.2266 Q192.6984,452.2688 192.7734,452.2688 Q192.8344,452.2688 192.8578,452.2641 Q192.8859,452.2547 193.0453,452.0531 L193.2656,453.3234 L192.975,453.5016 Q192.825,453.0375 192.6516,452.8688 Q192.4828,452.7 192.2109,452.7 Q191.8641,452.7 191.6578,453.0563 Q191.4562,453.4078 191.4562,453.9563 Q191.4562,454.5563 191.6297,454.875 Q191.8031,455.1937 192.1922,455.1937 Q192.4688,455.1937 192.6609,455.025 Q192.8578,454.8516 192.9609,454.4344 L193.2703,454.5891 Q193.1531,455.1141 192.8719,455.4094 Q192.5906,455.7 192.2062,455.7 Z " fill="#000000"/><text fill="#000000" font-family="sans-serif" font-size="4.2" lengthAdjust="spacing" textLength="52.5" x="196.5" y="455.8452">CHSesameTouchProDevice</text><line style="stroke:#181818;stroke-width:0.15;" x1="188.1" x2="249.6" y1="458.7" y2="458.7"/><line style="stroke:#181818;stroke-width:0.15;" x1="188.1" x2="249.6" y1="461.1" y2="461.1"/></g><!--class CHDeviceUtil--><g id="elem_CHDeviceUtil"><rect codeLine="73" fill="#F1F1F1" height="37.3441" id="CHDeviceUtil" rx="0.75" ry="0.75" style="stroke:#181818;stroke-width:0.15;" width="87.9" x="174.9" y="356.55"/><ellipse cx="205.275" cy="361.35" fill="#B4A7E5" rx="3.3" ry="3.3" style="stroke:#181818;stroke-width:0.3;"/><path d="M204.3375,360.15 L204.3375,359.6438 L206.1188,359.6438 L206.1188,360.15 L205.5563,360.15 Q205.5094,360.15 205.4953,360.1594 Q205.4813,360.1688 205.4813,360.1828 L205.4813,362.6109 Q205.4813,362.625 205.4953,362.6344 Q205.5094,362.6438 205.5563,362.6438 L206.1188,362.6438 L206.1188,363.15 L204.3375,363.15 L204.3375,362.6438 L204.9,362.6438 Q204.9609,362.6438 204.9656,362.6391 Q204.975,362.6344 204.975,362.6109 L204.975,360.1828 Q204.975,360.1594 204.9656,360.1547 Q204.9609,360.15 204.9,360.15 L204.3375,360.15 Z " fill="#000000"/><text fill="#000000" font-family="sans-serif" font-size="4.2" font-style="italic" lengthAdjust="spacing" textLength="24.6" x="211.425" y="363.2952">CHDeviceUtil</text><line style="stroke:#181818;stroke-width:0.15;" x1="175.2" x2="262.5" y1="366.15" y2="366.15"/><rect fill="none" height="1.8" style="stroke:#C82930;stroke-width:0.3;" width="1.8" x="177.3" y="369.768"/><text fill="#000000" font-family="sans-serif" font-size="4.2" lengthAdjust="spacing" textLength="54.9" x="180.9" y="372.1632">advertisement: CHadv?//&#24291;&#25773;</text><rect fill="none" height="1.8" style="stroke:#C82930;stroke-width:0.3;" width="1.8" x="177.3" y="375.5041"/><text fill="#000000" font-family="sans-serif" font-size="4.2" lengthAdjust="spacing" textLength="80.1" x="180.9" y="377.8992">sesame2KeyData: CHDevice?//&#38000;&#21273;&#30340;&#36039;&#26009;</text><line style="stroke:#181818;stroke-width:0.15;" x1="175.2" x2="262.5" y1="380.0221" y2="380.0221"/><rect fill="#F24D5C" height="1.8" style="stroke:#C82930;stroke-width:0.3;" width="1.8" x="177.3" y="383.6401"/><text fill="#000000" font-family="sans-serif" font-size="4.2" lengthAdjust="spacing" textLength="42.3" x="180.9" y="386.0353">goIOT() {}//&#35330;&#38321;&#65321;&#65327;&#65332;</text><rect fill="#F24D5C" height="1.8" style="stroke:#C82930;stroke-width:0.3;" width="1.8" x="177.3" y="389.3761"/><text fill="#000000" font-family="sans-serif" font-size="4.2" lengthAdjust="spacing" textLength="49.8" x="180.9" y="391.7713">login(token: String? = null)</text></g><!--class CHSesameTouchPro--><g id="elem_CHSesameTouchPro"><rect codeLine="80" fill="#F1F1F1" height="100.4405" id="CHSesameTouchPro" rx="0.75" ry="0.75" style="stroke:#181818;stroke-width:0.15;" width="162.3" x="2.1" y="324.9"/><ellipse cx="62.025" cy="329.7" fill="#B4A7E5" rx="3.3" ry="3.3" style="stroke:#181818;stroke-width:0.3;"/><path d="M61.0875,328.5 L61.0875,327.9938 L62.8688,327.9938 L62.8688,328.5 L62.3063,328.5 Q62.2594,328.5 62.2453,328.5094 Q62.2312,328.5188 62.2312,328.5328 L62.2312,330.9609 Q62.2312,330.975 62.2453,330.9844 Q62.2594,330.9938 62.3063,330.9938 L62.8688,330.9938 L62.8688,331.5 L61.0875,331.5 L61.0875,330.9938 L61.65,330.9938 Q61.7109,330.9938 61.7156,330.9891 Q61.725,330.9844 61.725,330.9609 L61.725,328.5328 Q61.725,328.5094 61.7156,328.5047 Q61.7109,328.5 61.65,328.5 L61.0875,328.5 Z " fill="#000000"/><text fill="#000000" font-family="sans-serif" font-size="4.2" font-style="italic" lengthAdjust="spacing" textLength="39.9" x="68.175" y="331.6452">CHSesameTouchPro</text><line style="stroke:#181818;stroke-width:0.15;" x1="2.4" x2="164.1" y1="334.5" y2="334.5"/><line style="stroke:#181818;stroke-width:0.15;" x1="2.4" x2="164.1" y1="336.9" y2="336.9"/><ellipse cx="5.4" cy="341.418" fill="#84BE84" rx="0.9" ry="0.9" style="stroke:#038048;stroke-width:0.3;"/><text fill="#000000" font-family="sans-serif" font-size="4.2" lengthAdjust="spacing" textLength="66.3" x="8.1" y="342.9132">cards(result: CHResult&lt;CHEmpty&gt;)</text><ellipse cx="5.4" cy="347.1541" fill="#84BE84" rx="0.9" ry="0.9" style="stroke:#038048;stroke-width:0.3;"/><text fill="#000000" font-family="sans-serif" font-size="4.2" lengthAdjust="spacing" textLength="96.3" x="8.1" y="348.6492">cardDelete(ID: String, result: CHResult&lt;CHEmpty&gt;)</text><ellipse cx="5.4" cy="352.8901" fill="#84BE84" rx="0.9" ry="0.9" style="stroke:#038048;stroke-width:0.3;"/><text fill="#000000" font-family="sans-serif" font-size="4.2" lengthAdjust="spacing" textLength="125.4" x="8.1" y="354.3853">cardChange(ID: String, name: String, result: CHResult&lt;CHEmpty&gt;)</text><ellipse cx="5.4" cy="358.6261" fill="#84BE84" rx="0.9" ry="0.9" style="stroke:#038048;stroke-width:0.3;"/><text fill="#000000" font-family="sans-serif" font-size="4.2" lengthAdjust="spacing" textLength="72.6" x="8.1" y="360.1213">cardModeGet(result: CHResult&lt;Byte&gt;)</text><ellipse cx="5.4" cy="364.3622" fill="#84BE84" rx="0.9" ry="0.9" style="stroke:#038048;stroke-width:0.3;"/><text fill="#000000" font-family="sans-serif" font-size="4.2" lengthAdjust="spacing" textLength="104.7" x="8.1" y="365.8573">cardModeSet(mode: Byte, result: CHResult&lt;CHEmpty&gt;)</text><ellipse cx="5.4" cy="370.0982" fill="#84BE84" rx="0.9" ry="0.9" style="stroke:#038048;stroke-width:0.3;"/><text fill="#000000" font-family="sans-serif" font-size="4.2" lengthAdjust="spacing" textLength="77.4" x="8.1" y="371.5934">fingerPrints(result: CHResult&lt;CHEmpty&gt;)</text><ellipse cx="5.4" cy="375.8342" fill="#84BE84" rx="0.9" ry="0.9" style="stroke:#038048;stroke-width:0.3;"/><text fill="#000000" font-family="sans-serif" font-size="4.2" lengthAdjust="spacing" textLength="107.4" x="8.1" y="377.3294">fingerPrintDelete(ID: String, result: CHResult&lt;CHEmpty&gt;)</text><ellipse cx="5.4" cy="381.5703" fill="#84BE84" rx="0.9" ry="0.9" style="stroke:#038048;stroke-width:0.3;"/><text fill="#000000" font-family="sans-serif" font-size="4.2" lengthAdjust="spacing" textLength="138.6" x="8.1" y="383.0654">fingerPrintsChange(ID: String, name: String, result: CHResult&lt;CHEmpty&gt;)</text><ellipse cx="5.4" cy="387.3063" fill="#84BE84" rx="0.9" ry="0.9" style="stroke:#038048;stroke-width:0.3;"/><text fill="#000000" font-family="sans-serif" font-size="4.2" lengthAdjust="spacing" textLength="83.7" x="8.1" y="388.8015">fingerPrintModeGet(result: CHResult&lt;Byte&gt;)</text><ellipse cx="5.4" cy="393.0423" fill="#84BE84" rx="0.9" ry="0.9" style="stroke:#038048;stroke-width:0.3;"/><text fill="#000000" font-family="sans-serif" font-size="4.2" lengthAdjust="spacing" textLength="115.8" x="8.1" y="394.5375">fingerPrintModeSet(mode: Byte, result: CHResult&lt;CHEmpty&gt;)</text><ellipse cx="5.4" cy="398.7784" fill="#84BE84" rx="0.9" ry="0.9" style="stroke:#038048;stroke-width:0.3;"/><text fill="#000000" font-family="sans-serif" font-size="4.2" lengthAdjust="spacing" textLength="93.3" x="8.1" y="400.2735">keyBoardPassCode(result: CHResult&lt;CHEmpty&gt;)</text><ellipse cx="5.4" cy="404.5144" fill="#84BE84" rx="0.9" ry="0.9" style="stroke:#038048;stroke-width:0.3;"/><text fill="#000000" font-family="sans-serif" font-size="4.2" lengthAdjust="spacing" textLength="154.5" x="8.1" y="406.0096">keyBoardPassCodeChange(ID: String, name: String, result: CHResult&lt;CHEmpty&gt;)</text><ellipse cx="5.4" cy="410.2504" fill="#84BE84" rx="0.9" ry="0.9" style="stroke:#038048;stroke-width:0.3;"/><text fill="#000000" font-family="sans-serif" font-size="4.2" lengthAdjust="spacing" textLength="125.4" x="8.1" y="411.7456">keyBoardPassCodeDelete(ID: String, result: CHResult&lt;CHEmpty&gt;)</text><ellipse cx="5.4" cy="415.9865" fill="#84BE84" rx="0.9" ry="0.9" style="stroke:#038048;stroke-width:0.3;"/><text fill="#000000" font-family="sans-serif" font-size="4.2" lengthAdjust="spacing" textLength="101.7" x="8.1" y="417.4816">keyBoardPassCodeModeGet(result: CHResult&lt;Byte&gt;)</text><ellipse cx="5.4" cy="421.7225" fill="#84BE84" rx="0.9" ry="0.9" style="stroke:#038048;stroke-width:0.3;"/><text fill="#000000" font-family="sans-serif" font-size="4.2" lengthAdjust="spacing" textLength="133.8" x="8.1" y="423.2177">keyBoardPassCodeModeSet(mode: Byte, result: CHResult&lt;CHEmpty&gt;)</text></g><!--class CHSesameConnector--><g id="elem_CHSesameConnector"><rect codeLine="98" fill="#F1F1F1" height="31.6081" id="CHSesameConnector" rx="0.75" ry="0.75" style="stroke:#181818;stroke-width:0.15;" width="129.6" x="18.45" y="223.8"/><ellipse cx="61.425" cy="228.6" fill="#B4A7E5" rx="3.3" ry="3.3" style="stroke:#181818;stroke-width:0.3;"/><path d="M60.4875,227.4 L60.4875,226.8937 L62.2688,226.8937 L62.2688,227.4 L61.7063,227.4 Q61.6594,227.4 61.6453,227.4094 Q61.6312,227.4188 61.6312,227.4328 L61.6312,229.8609 Q61.6312,229.875 61.6453,229.8844 Q61.6594,229.8937 61.7063,229.8937 L62.2688,229.8937 L62.2688,230.4 L60.4875,230.4 L60.4875,229.8937 L61.05,229.8937 Q61.1109,229.8937 61.1156,229.8891 Q61.125,229.8844 61.125,229.8609 L61.125,227.4328 Q61.125,227.4094 61.1156,227.4047 Q61.1109,227.4 61.05,227.4 L60.4875,227.4 Z " fill="#000000"/><text fill="#000000" font-family="sans-serif" font-size="4.2" font-style="italic" lengthAdjust="spacing" textLength="41.1" x="67.575" y="230.5452">CHSesameConnector</text><line style="stroke:#181818;stroke-width:0.15;" x1="18.75" x2="147.75" y1="233.4" y2="233.4"/><text fill="#000000" font-family="sans-serif" font-size="4.2" lengthAdjust="spacing" textLength="96.9" x="20.25" y="239.4132">var ssm2KeysMap: MutableMap&lt;String, ByteArray&gt;</text><line style="stroke:#181818;stroke-width:0.15;" x1="18.75" x2="147.75" y1="241.536" y2="241.536"/><ellipse cx="21.75" cy="246.0541" fill="#84BE84" rx="0.9" ry="0.9" style="stroke:#038048;stroke-width:0.3;"/><text fill="#000000" font-family="sans-serif" font-size="4.2" lengthAdjust="spacing" textLength="121.8" x="24.45" y="247.5492">insertSesame(sesame: CHDevices, result: CHResult&lt;CHEmpty&gt;)</text><ellipse cx="21.75" cy="251.7901" fill="#84BE84" rx="0.9" ry="0.9" style="stroke:#038048;stroke-width:0.3;"/><text fill="#000000" font-family="sans-serif" font-size="4.2" lengthAdjust="spacing" textLength="107.1" x="24.45" y="253.2853">removeSesame(tag: String, result: CHResult&lt;CHEmpty&gt;)</text></g><!--link CHSesameOS3Publish to CHSesameOS3--><g id="link_CHSesameOS3Publish_CHSesameOS3"><path codeLine="103" d="M403.158,249.669 C397.077,266.778 384.192,303.012 373.845,332.118 " fill="none" id="CHSesameOS3Publish-to-CHSesameOS3" style="stroke:#181818;stroke-width:0.3;"/><polygon fill="#181818" points="373.323,333.585,375.3563,331.4412,373.8242,332.1712,373.0942,330.6392,373.323,333.585" style="stroke:#181818;stroke-width:0.3;"/><text fill="#000000" font-family="sans-serif" font-size="3.9" lengthAdjust="spacing" textLength="20.1" x="381.45" y="314.9694">implements</text></g><!--link CHBaseDevice to CHSesameOS3--><g id="link_CHBaseDevice_CHSesameOS3"><path codeLine="104" d="M332.472,301.227 C336.18,311.649 339.954,322.269 343.443,332.079 " fill="none" id="CHBaseDevice-to-CHSesameOS3" style="stroke:#181818;stroke-width:0.3;"/><polygon fill="#181818" points="343.956,333.522,344.1848,330.5762,343.4548,332.1082,341.9227,331.3782,343.956,333.522" style="stroke:#181818;stroke-width:0.3;"/><text fill="#000000" font-family="sans-serif" font-size="3.9" lengthAdjust="spacing" textLength="13.8" x="337.65" y="314.9694">extends</text></g><!--link CHDevices to CHSesameConnector--><g id="link_CHDevices_CHSesameConnector"><path codeLine="107" d="M83.25,154.26 C83.25,179.685 83.25,205.728 83.25,222.168 " fill="none" id="CHDevices-to-CHSesameConnector" style="stroke:#181818;stroke-width:0.3;"/><polygon fill="#181818" points="83.25,223.728,84.45,221.028,83.25,222.228,82.05,221.028,83.25,223.728" style="stroke:#181818;stroke-width:0.3;"/><text fill="#000000" font-family="sans-serif" font-size="3.9" lengthAdjust="spacing" textLength="13.8" x="83.55" y="167.9694">extends</text></g><!--link CHSesameConnector to CHSesameTouchPro--><g id="link_CHSesameConnector_CHSesameTouchPro"><path codeLine="108" d="M83.25,255.336 C83.25,271.89 83.25,299.031 83.25,323.268 " fill="none" id="CHSesameConnector-to-CHSesameTouchPro" style="stroke:#181818;stroke-width:0.3;"/><polygon fill="#181818" points="83.25,324.861,84.45,322.161,83.25,323.361,82.05,322.161,83.25,324.861" style="stroke:#181818;stroke-width:0.3;"/><text fill="#000000" font-family="sans-serif" font-size="3.9" lengthAdjust="spacing" textLength="13.8" x="83.55" y="314.9694">extends</text></g><!--link CHSesameTouchPro to CHSesameTouchProDevice--><g id="link_CHSesameTouchPro_CHSesameTouchProDevice"><path codeLine="109" d="M164.478,423.702 C180.618,433.29 195.702,442.248 205.866,448.287 " fill="none" id="CHSesameTouchPro-to-CHSesameTouchProDevice" style="stroke:#181818;stroke-width:0.3;"/><polygon fill="#181818" points="207.204,449.082,205.4967,446.6705,205.9147,448.3153,204.27,448.7333,207.204,449.082" style="stroke:#181818;stroke-width:0.3;"/><text fill="#000000" font-family="sans-serif" font-size="3.9" lengthAdjust="spacing" textLength="20.1" x="190.05" y="439.1694">implements</text></g><!--link CHDeviceUtil to CHSesameTouchProDevice--><g id="link_CHDeviceUtil_CHSesameTouchProDevice"><path codeLine="110" d="M218.85,393.828 C218.85,410.661 218.85,434.823 218.85,447.498 " fill="none" id="CHDeviceUtil-to-CHSesameTouchProDevice" style="stroke:#181818;stroke-width:0.3;"/><polygon fill="#181818" points="218.85,449.061,220.05,446.361,218.85,447.561,217.65,446.361,218.85,449.061" style="stroke:#181818;stroke-width:0.3;"/><text fill="#000000" font-family="sans-serif" font-size="3.9" lengthAdjust="spacing" textLength="20.1" x="219.15" y="439.1694">implements</text></g><!--link CHSesameOS3 to CHSesameTouchProDevice--><g id="link_CHSesameOS3_CHSesameTouchProDevice"><path codeLine="111" d="M287.01,416.727 C265.989,428.841 245.175,440.832 232.185,448.317 " fill="none" id="CHSesameOS3-to-CHSesameTouchProDevice" style="stroke:#181818;stroke-width:0.3;"/><polygon fill="#181818" points="230.877,449.07,233.8152,448.7588,232.1759,448.3198,232.6149,446.6805,230.877,449.07" style="stroke:#181818;stroke-width:0.3;"/><text fill="#000000" font-family="sans-serif" font-size="3.9" lengthAdjust="spacing" textLength="13.8" x="253.05" y="439.1694">extends</text></g><!--SRC=[fLTBRnit4Bxlh-1HXYEuZvkGoh2anZPQnuObvqxlZbQ4Tya5oLKY6BuK0NhffJq4IAwvj8UYBTfR_NUI9YV_XGwNtBSihn9VlEHyCvpdHufn3N9EVI3Zeoae6iFfzEkpz39YQa6kFK9s1J-aMbkP4_Hsl1lFyoEg5AgDg889B9aFrzvkm9GlE0TV8sWta2Bv3bRusLUPWQzmDQ6Q3iP7LiNhvrzJJNMg1lMbrm_iQa43yVmUI0p-eX0vHwNGmXVHII7o-eIGH8eWzVM9220QeEjdbJK2GWpq_CKedSz13eYrD8hW77nWIv3ac_PURuSunLbRSIOfLp7J-wZ9qoWoqDXAP-8A-82CLXeEfAGhp3GXA1qlgAG-reGfpNm4H2be8VJ25A4kBArQNOm1q14mWLKJD77xERw06yYCnQ0qZPF1zuA73KWaGiOt8goHus10BYwE9mqXK-SGegiW0G4Z8IAW725Qfk0WKYas8CSyIz4NUH9gGJToq3hZAK1maEh54oamjt9fAk3ECjWvZHIOTYtwjMZphB-D4PybYx9mAC7QZREzncb-78nf58seVpKW9wccbn6SqEJnXQdZerB_75GYk083laJm4Ct41VnqZWDX3Ig8QR8G4ipXxZDhC_VT-tB7QoOaDzfi3hTjPhOSGLneruLsfO07On77b0Ts8mJz3AHYWizeQBSaA73mD0cmTPum6J-dw4wsbr3fmy7acLtTom-iGYss7zMr2QQSLdB_kEvlwj8DxTbr5chcItTgn5A3L0ce0TnlDVFwwTWq5awsaQ18_hTBAZIBnKeZRS3dsTVZyT6tSQ9NGzjZkmGBd75mwJPnafoUkvYez4WBFjMIyR10InVUmtPjepq8QpIXuFbyLNIAMR0X5hg-1DGzJB59JAXNi7gA3OVZbldyYAmvFBT0okXpVTLsDgDlrCeXurGFAm76ObcU7heFqn8R773Harhu6utmXsAg9nIpVeGb4d9bwgbfMBc9kdWKrlHtAjhx5OWPpIaBESw8eOxSFr9zFEItOUeliDVpPmGYsknneLc4ZDqdD42Irmov4tZc9cxix-sz-_Vj-rz-BuYrzjmeZ23kuyz_lllfzNzlNdxu-yVthruxXL0SdyxmDh- -sTlxyEiF7r_zTNVxsztj7tUt_rJffgVjnMr3oQ-75j_LmoBkfi5kf39G3pUyWHcgqj0xdcnHLwE7ZmGUrlMsx0vZnJ3EuRhPD9Lk8QU8ZF6_ROGEHypH4v1dw93ka8uA-bEoKZtiyxDJiTOjIGs5hNE5b3KIcEWpd9WnAlQsrlZye9iMFwKCJHlTihTEQuiKDfZ4pkNONfr2veEvf98e5HkwKFX0gxtjylWAYXiwpnXUGD8zV7gMRqgUKHqIOYy7Po0ZuGwvlF7M_53hzuUrX-s0nKcKqQFogZ_Gsa1ueV51gF1vN7XkGArC5S1s3YlmdF1Qw889ru3jiNMNIyRlgb76TBz24Up_]--></g></svg>