<?xml version="1.0" encoding="us-ascii" standalone="no"?><svg xmlns="http://www.w3.org/2000/svg" xmlns:xlink="http://www.w3.org/1999/xlink" contentStyleType="text/css" height="476.7px" preserveAspectRatio="none" style="width:467px;height:476px;background:#FFFFFF;" version="1.1" viewBox="0 0 467 476" width="467.7px" zoomAndPan="magnify"><defs/><g><!--class CHSesameOS3Publish--><g id="elem_CHSesameOS3Publish"><rect codeLine="1" fill="#F1F1F1" height="20.136" id="CHSesameOS3Publish" rx="0.75" ry="0.75" style="stroke:#181818;stroke-width:0.15;" width="53.1" x="325.35" y="229.5"/><ellipse cx="329.85" cy="234.3" fill="#B4A7E5" rx="3.3" ry="3.3" style="stroke:#181818;stroke-width:0.3;"/><path d="M328.9125,233.1 L328.9125,232.5938 L330.6937,232.5938 L330.6937,233.1 L330.1312,233.1 Q330.0844,233.1 330.0703,233.1094 Q330.0563,233.1187 330.0563,233.1328 L330.0563,235.5609 Q330.0563,235.575 330.0703,235.5844 Q330.0844,235.5938 330.1312,235.5938 L330.6937,235.5938 L330.6937,236.1 L328.9125,236.1 L328.9125,235.5938 L329.475,235.5938 Q329.5359,235.5938 329.5406,235.5891 Q329.55,235.5844 329.55,235.5609 L329.55,233.1328 Q329.55,233.1094 329.5406,233.1047 Q329.5359,233.1 329.475,233.1 L328.9125,233.1 Z " fill="#000000"/><text fill="#000000" font-family="sans-serif" font-size="4.2" font-style="italic" lengthAdjust="spacing" textLength="43.5" x="334.05" y="236.2452">CHSesameOS3Publish</text><line style="stroke:#181818;stroke-width:0.15;" x1="325.65" x2="378.15" y1="239.1" y2="239.1"/><line style="stroke:#181818;stroke-width:0.15;" x1="325.65" x2="378.15" y1="241.5" y2="241.5"/><ellipse cx="328.65" cy="246.018" fill="#84BE84" rx="0.9" ry="0.9" style="stroke:#038048;stroke-width:0.3;"/><text fill="#000000" font-family="sans-serif" font-size="4.2" lengthAdjust="spacing" textLength="45" x="331.35" y="247.5132">onGattSesamePublish()</text></g><!--class CHBaseDevice--><g id="elem_CHBaseDevice"><rect codeLine="5" fill="#F1F1F1" height="123.3847" id="CHBaseDevice" rx="0.75" ry="0.75" style="stroke:#181818;stroke-width:0.15;" width="117.6" x="197.1" y="177.9"/><ellipse cx="240.525" cy="182.7" fill="#ADD1B2" rx="3.3" ry="3.3" style="stroke:#181818;stroke-width:0.3;"/><path d="M240.4312,184.5 Q239.85,184.5 239.5125,184.0734 Q239.175,183.6422 239.175,182.7563 Q239.175,182.0063 239.5313,181.5 Q239.8875,180.9938 240.5063,180.9938 Q240.6516,180.9938 240.8016,181.0266 Q240.9234,181.0688 240.9984,181.0688 Q241.0594,181.0688 241.0828,181.0641 Q241.1109,181.0547 241.2703,180.8531 L241.4906,182.1234 L241.2,182.3016 Q241.05,181.8375 240.8766,181.6688 Q240.7078,181.5 240.4359,181.5 Q240.0891,181.5 239.8828,181.8563 Q239.6812,182.2078 239.6812,182.7563 Q239.6812,183.3563 239.8547,183.675 Q240.0281,183.9938 240.4172,183.9938 Q240.6938,183.9938 240.8859,183.825 Q241.0828,183.6516 241.1859,183.2344 L241.4953,183.3891 Q241.3781,183.9141 241.0969,184.2094 Q240.8156,184.5 240.4312,184.5 Z " fill="#000000"/><text fill="#000000" font-family="sans-serif" font-size="4.2" lengthAdjust="spacing" textLength="28.2" x="246.675" y="184.6452">CHBaseDevice</text><line style="stroke:#181818;stroke-width:0.15;" x1="197.4" x2="314.4" y1="187.5" y2="187.5"/><rect fill="none" height="1.8" style="stroke:#C82930;stroke-width:0.3;" width="1.8" x="199.5" y="191.118"/><text fill="#000000" font-family="sans-serif" font-size="4.2" lengthAdjust="spacing" textLength="53.1" x="203.1" y="193.5132">sesame2KeyData:CHDevice</text><rect fill="none" height="1.8" style="stroke:#C82930;stroke-width:0.3;" width="1.8" x="199.5" y="196.8541"/><text fill="#000000" font-family="sans-serif" font-size="4.2" lengthAdjust="spacing" textLength="62.4" x="203.1" y="199.2492">CHDeviceStatus:CHDeviceStatus</text><rect fill="none" height="1.8" style="stroke:#C82930;stroke-width:0.3;" width="1.8" x="199.5" y="202.5901"/><text fill="#000000" font-family="sans-serif" font-size="4.2" lengthAdjust="spacing" textLength="71.1" x="203.1" y="204.9853">deviceShadowStatus:CHDeviceStatus</text><rect fill="none" height="1.8" style="stroke:#C82930;stroke-width:0.3;" width="1.8" x="199.5" y="208.3261"/><text fill="#000000" font-family="sans-serif" font-size="4.2" lengthAdjust="spacing" textLength="82.2" x="203.1" y="210.7213">mechStatus:CHSesameProtocolMechStatus</text><rect fill="none" height="1.8" style="stroke:#C82930;stroke-width:0.3;" width="1.8" x="199.5" y="214.0622"/><text fill="#000000" font-family="sans-serif" font-size="4.2" lengthAdjust="spacing" textLength="60" x="203.1" y="216.4573">productModel: CHProductModel</text><rect fill="none" height="1.8" style="stroke:#C82930;stroke-width:0.3;" width="1.8" x="199.5" y="219.7982"/><text fill="#000000" font-family="sans-serif" font-size="4.2" lengthAdjust="spacing" textLength="77.1" x="203.1" y="222.1934">gattTxBuffer: SesameBleTransmit? = null</text><rect fill="none" height="1.8" style="stroke:#C82930;stroke-width:0.3;" width="1.8" x="199.5" y="225.5342"/><text fill="#000000" font-family="sans-serif" font-size="4.2" lengthAdjust="spacing" textLength="51.6" x="203.1" y="227.9294">mSesameToken: ByteArray</text><rect fill="none" height="1.8" style="stroke:#C82930;stroke-width:0.3;" width="1.8" x="199.5" y="231.2703"/><text fill="#000000" font-family="sans-serif" font-size="4.2" lengthAdjust="spacing" textLength="97.8" x="203.1" y="233.6654">mCharacteristic: BluetoothGattCharacteristic? = null</text><rect fill="none" height="1.8" style="stroke:#C82930;stroke-width:0.3;" width="1.8" x="199.5" y="237.0063"/><text fill="#000000" font-family="sans-serif" font-size="4.2" lengthAdjust="spacing" textLength="80.4" x="203.1" y="239.4015">delegate: CHDeviceStatusDelegate? = null</text><rect fill="none" height="1.8" style="stroke:#C82930;stroke-width:0.3;" width="1.8" x="199.5" y="242.7423"/><text fill="#000000" font-family="sans-serif" font-size="4.2" lengthAdjust="spacing" textLength="57.6" x="203.1" y="245.1375">deviceTimestamp:Long? = null</text><rect fill="none" height="1.8" style="stroke:#C82930;stroke-width:0.3;" width="1.8" x="199.5" y="248.4784"/><text fill="#000000" font-family="sans-serif" font-size="4.2" lengthAdjust="spacing" textLength="54.3" x="203.1" y="250.8735">loginTimestamp:Long? = null</text><rect fill="none" height="1.8" style="stroke:#C82930;stroke-width:0.3;" width="1.8" x="199.5" y="254.2144"/><text fill="#000000" font-family="sans-serif" font-size="4.2" lengthAdjust="spacing" textLength="41.1" x="203.1" y="256.6096">deviceId: UUID? = null</text><rect fill="none" height="1.8" style="stroke:#C82930;stroke-width:0.3;" width="1.8" x="199.5" y="259.9504"/><text fill="#000000" font-family="sans-serif" font-size="4.2" lengthAdjust="spacing" textLength="54" x="203.1" y="262.3456">isRegistered: Boolean = true</text><rect fill="none" height="1.8" style="stroke:#C82930;stroke-width:0.3;" width="1.8" x="199.5" y="265.6865"/><text fill="#000000" font-family="sans-serif" font-size="4.2" lengthAdjust="spacing" textLength="23.1" x="203.1" y="268.0816">rssi: Int? = 0</text><rect fill="none" height="1.8" style="stroke:#C82930;stroke-width:0.3;" width="1.8" x="199.5" y="271.4225"/><text fill="#000000" font-family="sans-serif" font-size="4.2" lengthAdjust="spacing" textLength="71.7" x="203.1" y="273.8177">mBluetoothGatt: BluetoothGatt? = null</text><rect fill="none" height="1.8" style="stroke:#C82930;stroke-width:0.3;" width="1.8" x="199.5" y="277.1585"/><text fill="#000000" font-family="sans-serif" font-size="4.2" lengthAdjust="spacing" textLength="78.3" x="203.1" y="279.5537">isNeedAuthFromServer: Boolean? = false</text><line style="stroke:#181818;stroke-width:0.15;" x1="197.4" x2="314.4" y1="281.6766" y2="281.6766"/><ellipse cx="200.4" cy="286.1946" fill="#84BE84" rx="0.9" ry="0.9" style="stroke:#038048;stroke-width:0.3;"/><text fill="#000000" font-family="sans-serif" font-size="4.2" lengthAdjust="spacing" textLength="23.4" x="203.1" y="287.6897">disconnect()</text><ellipse cx="200.4" cy="291.9306" fill="#84BE84" rx="0.9" ry="0.9" style="stroke:#038048;stroke-width:0.3;"/><text fill="#000000" font-family="sans-serif" font-size="4.2" lengthAdjust="spacing" textLength="18.9" x="203.1" y="293.4258">dropKey()</text><rect fill="#F24D5C" height="1.8" style="stroke:#C82930;stroke-width:0.3;" width="1.8" x="199.5" y="296.7667"/><text fill="#000000" font-family="sans-serif" font-size="4.2" lengthAdjust="spacing" textLength="109.8" x="203.1" y="299.1618">gattRxBuffer: SesameBleReceiver = SesameBleReceiver()</text></g><!--class CHSesameOS3--><g id="elem_CHSesameOS3"><rect codeLine="28" fill="#F1F1F1" height="83.2324" id="CHSesameOS3" rx="0.75" ry="0.75" style="stroke:#181818;stroke-width:0.15;" width="170.4" x="196.8" y="324.9"/><ellipse cx="266.025" cy="329.7" fill="#ADD1B2" rx="3.3" ry="3.3" style="stroke:#181818;stroke-width:0.3;"/><path d="M265.9313,331.5 Q265.35,331.5 265.0125,331.0734 Q264.675,330.6422 264.675,329.7562 Q264.675,329.0062 265.0313,328.5 Q265.3875,327.9938 266.0062,327.9938 Q266.1516,327.9938 266.3016,328.0266 Q266.4234,328.0687 266.4984,328.0687 Q266.5594,328.0687 266.5828,328.0641 Q266.6109,328.0547 266.7703,327.8531 L266.9906,329.1234 L266.7,329.3016 Q266.55,328.8375 266.3766,328.6688 Q266.2078,328.5 265.9359,328.5 Q265.5891,328.5 265.3828,328.8563 Q265.1813,329.2078 265.1813,329.7562 Q265.1813,330.3563 265.3547,330.675 Q265.5281,330.9938 265.9172,330.9938 Q266.1937,330.9938 266.3859,330.825 Q266.5828,330.6516 266.6859,330.2344 L266.9953,330.3891 Q266.8781,330.9141 266.5969,331.2094 Q266.3156,331.5 265.9313,331.5 Z " fill="#000000"/><text fill="#000000" font-family="sans-serif" font-size="4.2" lengthAdjust="spacing" textLength="29.4" x="272.175" y="331.6452">CHSesameOS3</text><line style="stroke:#181818;stroke-width:0.15;" x1="197.1" x2="366.9" y1="334.5" y2="334.5"/><rect fill="none" height="1.8" style="stroke:#C82930;stroke-width:0.3;" width="1.8" x="199.2" y="338.118"/><text fill="#000000" font-family="sans-serif" font-size="4.2" lengthAdjust="spacing" textLength="70.2" x="202.8" y="340.5132">cipher: SesameOS3BleCipher? = null</text><rect fill="none" height="1.8" style="stroke:#C82930;stroke-width:0.3;" width="1.8" x="199.2" y="343.8541"/><text fill="#000000" font-family="sans-serif" font-size="4.2" lengthAdjust="spacing" textLength="90.3" x="202.8" y="346.2492">mBluetoothGattCallback: BluetoothGattCallback</text><line style="stroke:#181818;stroke-width:0.15;" x1="197.1" x2="366.9" y1="348.3721" y2="348.3721"/><rect fill="#F24D5C" height="1.8" style="stroke:#C82930;stroke-width:0.3;" width="1.8" x="199.2" y="351.9901"/><text fill="#000000" font-family="sans-serif" font-size="4.2" lengthAdjust="spacing" textLength="162.6" x="202.8" y="354.3853">cmdCallBack: MutableMap&lt;UByte, SesameOS3ResponseCallback&gt; = mutableMapOf()</text><rect fill="#F24D5C" height="1.8" style="stroke:#C82930;stroke-width:0.3;" width="1.8" x="199.2" y="357.7261"/><text fill="#000000" font-family="sans-serif" font-size="4.2" lengthAdjust="spacing" textLength="77.7" x="202.8" y="360.1213">semaphore: Semaphore = Semaphore(1)</text><ellipse cx="200.1" cy="364.3622" fill="#84BE84" rx="0.9" ry="0.9" style="stroke:#038048;stroke-width:0.3;"/><text fill="#000000" font-family="sans-serif" font-size="4.2" lengthAdjust="spacing" textLength="18" x="202.8" y="365.8573">connect()</text><ellipse cx="200.1" cy="370.0982" fill="#84BE84" rx="0.9" ry="0.9" style="stroke:#038048;stroke-width:0.3;"/><text fill="#000000" font-family="sans-serif" font-size="4.2" lengthAdjust="spacing" textLength="18" x="202.8" y="371.5934">transmit()</text><ellipse cx="200.1" cy="375.8342" fill="#84BE84" rx="0.9" ry="0.9" style="stroke:#038048;stroke-width:0.3;"/><text fill="#000000" font-family="sans-serif" font-size="4.2" lengthAdjust="spacing" textLength="31.5" x="202.8" y="377.3294">sendCommand()</text><ellipse cx="200.1" cy="381.5703" fill="#84BE84" rx="0.9" ry="0.9" style="stroke:#038048;stroke-width:0.3;"/><text fill="#000000" font-family="sans-serif" font-size="4.2" lengthAdjust="spacing" textLength="30.9" x="202.8" y="383.0654">getVersionTag()</text><ellipse cx="200.1" cy="387.3063" fill="#84BE84" rx="0.9" ry="0.9" style="stroke:#038048;stroke-width:0.3;"/><text fill="#000000" font-family="sans-serif" font-size="4.2" lengthAdjust="spacing" textLength="12.6" x="202.8" y="388.8015">reset()</text><ellipse cx="200.1" cy="393.0423" fill="#84BE84" rx="0.9" ry="0.9" style="stroke:#038048;stroke-width:0.3;"/><text fill="#000000" font-family="sans-serif" font-size="4.2" lengthAdjust="spacing" textLength="33.6" x="202.8" y="394.5375">updateFirmware()</text><ellipse cx="200.1" cy="398.7784" fill="#84BE84" rx="0.9" ry="0.9" style="stroke:#038048;stroke-width:0.3;"/><text fill="#000000" font-family="sans-serif" font-size="4.2" lengthAdjust="spacing" textLength="22.2" x="202.8" y="400.2735">parceADV()</text><ellipse cx="200.1" cy="404.5144" fill="#84BE84" rx="0.9" ry="0.9" style="stroke:#038048;stroke-width:0.3;"/><text fill="#000000" font-family="sans-serif" font-size="4.2" lengthAdjust="spacing" textLength="45" x="202.8" y="406.0096">onGattSesamePublish()</text></g><!--class CHSesame5Device--><g id="elem_CHSesame5Device"><rect codeLine="42" fill="#F1F1F1" height="43.0802" id="CHSesame5Device" rx="0.75" ry="0.75" style="stroke:#181818;stroke-width:0.15;" width="138.3" x="212.85" y="431.7"/><ellipse cx="262.575" cy="436.5" fill="#ADD1B2" rx="3.3" ry="3.3" style="stroke:#181818;stroke-width:0.3;"/><path d="M262.4813,438.3 Q261.9,438.3 261.5625,437.8734 Q261.225,437.4422 261.225,436.5563 Q261.225,435.8063 261.5813,435.3 Q261.9375,434.7938 262.5563,434.7938 Q262.7016,434.7938 262.8516,434.8266 Q262.9734,434.8688 263.0484,434.8688 Q263.1094,434.8688 263.1328,434.8641 Q263.1609,434.8547 263.3203,434.6531 L263.5406,435.9234 L263.25,436.1016 Q263.1,435.6375 262.9266,435.4688 Q262.7578,435.3 262.4859,435.3 Q262.1391,435.3 261.9328,435.6563 Q261.7313,436.0078 261.7313,436.5563 Q261.7313,437.1563 261.9047,437.475 Q262.0781,437.7938 262.4672,437.7938 Q262.7438,437.7938 262.9359,437.625 Q263.1328,437.4516 263.2359,437.0344 L263.5453,437.1891 Q263.4281,437.7141 263.1469,438.0094 Q262.8656,438.3 262.4813,438.3 Z " fill="#000000"/><text fill="#000000" font-family="sans-serif" font-size="4.2" lengthAdjust="spacing" textLength="36.3" x="268.725" y="438.4452">CHSesame5Device</text><line style="stroke:#181818;stroke-width:0.15;" x1="213.15" x2="350.85" y1="441.3" y2="441.3"/><rect fill="none" height="1.8" style="stroke:#C82930;stroke-width:0.3;" width="1.8" x="215.25" y="444.918"/><text fill="#000000" font-family="sans-serif" font-size="4.2" lengthAdjust="spacing" textLength="47.4" x="218.85" y="447.3132">currentDeviceUUID: UUID</text><rect fill="none" height="1.8" style="stroke:#C82930;stroke-width:0.3;" width="1.8" x="215.25" y="450.6541"/><text fill="#000000" font-family="sans-serif" font-size="4.2" lengthAdjust="spacing" textLength="130.5" x="218.85" y="453.0492">historyCallback: CHResult&lt;Pair&lt;List&lt;CHSesame5History&gt;, Long?&gt;&gt;?</text><rect fill="none" height="1.8" style="stroke:#C82930;stroke-width:0.3;" width="1.8" x="215.25" y="456.3901"/><text fill="#000000" font-family="sans-serif" font-size="4.2" lengthAdjust="spacing" textLength="47.7" x="218.85" y="458.7853">isHistory: Boolean = false</text><rect fill="none" height="1.8" style="stroke:#C82930;stroke-width:0.3;" width="1.8" x="215.25" y="462.1261"/><text fill="#000000" font-family="sans-serif" font-size="4.2" lengthAdjust="spacing" textLength="88.5" x="218.85" y="464.5213">mechSetting: CHSesame5MechSettings? = null</text><rect fill="none" height="1.8" style="stroke:#C82930;stroke-width:0.3;" width="1.8" x="215.25" y="467.8622"/><text fill="#000000" font-family="sans-serif" font-size="4.2" lengthAdjust="spacing" textLength="69.9" x="218.85" y="470.2573">isConnectedByWM2: Boolean = false</text><line style="stroke:#181818;stroke-width:0.15;" x1="213.15" x2="350.85" y1="472.3802" y2="472.3802"/></g><!--class CHDevices--><g id="elem_CHDevices"><rect codeLine="49" fill="#F1F1F1" height="152.0648" id="CHDevices" rx="0.75" ry="0.75" style="stroke:#181818;stroke-width:0.15;" width="158.7" x="14.85" y="2.1"/><ellipse cx="82.575" cy="6.9" fill="#B4A7E5" rx="3.3" ry="3.3" style="stroke:#181818;stroke-width:0.3;"/><path d="M81.6375,5.7 L81.6375,5.1938 L83.4188,5.1938 L83.4188,5.7 L82.8563,5.7 Q82.8094,5.7 82.7953,5.7094 Q82.7813,5.7188 82.7813,5.7328 L82.7813,8.1609 Q82.7813,8.175 82.7953,8.1844 Q82.8094,8.1938 82.8563,8.1938 L83.4188,8.1938 L83.4188,8.7 L81.6375,8.7 L81.6375,8.1938 L82.2,8.1938 Q82.2609,8.1938 82.2656,8.1891 Q82.275,8.1844 82.275,8.1609 L82.275,5.7328 Q82.275,5.7094 82.2656,5.7047 Q82.2609,5.7 82.2,5.7 L81.6375,5.7 Z " fill="#000000"/><text fill="#000000" font-family="sans-serif" font-size="4.2" font-style="italic" lengthAdjust="spacing" textLength="20.7" x="88.725" y="8.8452">CHDevices</text><line style="stroke:#181818;stroke-width:0.15;" x1="15.15" x2="173.25" y1="11.7" y2="11.7"/><rect fill="none" height="1.8" style="stroke:#C82930;stroke-width:0.3;" width="1.8" x="17.25" y="15.318"/><text fill="#000000" font-family="sans-serif" font-size="4.2" lengthAdjust="spacing" textLength="85.8" x="20.85" y="17.7132">mechStatus: CHSesameProtocolMechStatus?</text><rect fill="none" height="1.8" style="stroke:#C82930;stroke-width:0.3;" width="1.8" x="17.25" y="21.0541"/><text fill="#000000" font-family="sans-serif" font-size="4.2" lengthAdjust="spacing" textLength="46.2" x="20.85" y="23.4492">deviceTimestamp:Long?</text><rect fill="none" height="1.8" style="stroke:#C82930;stroke-width:0.3;" width="1.8" x="17.25" y="26.7901"/><text fill="#000000" font-family="sans-serif" font-size="4.2" lengthAdjust="spacing" textLength="42.9" x="20.85" y="29.1853">loginTimestamp:Long?</text><rect fill="none" height="1.8" style="stroke:#C82930;stroke-width:0.3;" width="1.8" x="17.25" y="32.5261"/><text fill="#000000" font-family="sans-serif" font-size="4.2" lengthAdjust="spacing" textLength="69" x="20.85" y="34.9213">delegate: CHDeviceStatusDelegate?</text><rect fill="none" height="1.8" style="stroke:#C82930;stroke-width:0.3;" width="1.8" x="17.25" y="38.2622"/><text fill="#000000" font-family="sans-serif" font-size="4.2" lengthAdjust="spacing" textLength="57.3" x="20.85" y="40.6573">deviceStatus: CHDeviceStatus</text><rect fill="none" height="1.8" style="stroke:#C82930;stroke-width:0.3;" width="1.8" x="17.25" y="43.9982"/><text fill="#000000" font-family="sans-serif" font-size="4.2" lengthAdjust="spacing" textLength="74.7" x="20.85" y="46.3934">deviceShadowStatus: CHDeviceStatus?</text><rect fill="none" height="1.8" style="stroke:#C82930;stroke-width:0.3;" width="1.8" x="17.25" y="49.7342"/><text fill="#000000" font-family="sans-serif" font-size="4.2" lengthAdjust="spacing" textLength="15.9" x="20.85" y="52.1294">rssi: Int?</text><rect fill="none" height="1.8" style="stroke:#C82930;stroke-width:0.3;" width="1.8" x="17.25" y="55.4703"/><text fill="#000000" font-family="sans-serif" font-size="4.2" lengthAdjust="spacing" textLength="29.7" x="20.85" y="57.8654">deviceId: UUID?</text><rect fill="none" height="1.8" style="stroke:#C82930;stroke-width:0.3;" width="1.8" x="17.25" y="61.2063"/><text fill="#000000" font-family="sans-serif" font-size="4.2" lengthAdjust="spacing" textLength="41.7" x="20.85" y="63.6015">isRegistered: Boolean</text><rect fill="none" height="1.8" style="stroke:#C82930;stroke-width:0.3;" width="1.8" x="17.25" y="66.9423"/><text fill="#000000" font-family="sans-serif" font-size="4.2" lengthAdjust="spacing" textLength="60" x="20.85" y="69.3375">productModel: CHProductModel</text><line style="stroke:#181818;stroke-width:0.15;" x1="15.15" x2="173.25" y1="71.4604" y2="71.4604"/><ellipse cx="18.15" cy="75.9784" fill="#84BE84" rx="0.9" ry="0.9" style="stroke:#038048;stroke-width:0.3;"/><text fill="#000000" font-family="sans-serif" font-size="4.2" lengthAdjust="spacing" textLength="76.2" x="20.85" y="77.4735">disconnect(result: CHResult&lt;CHEmpty&gt;)</text><ellipse cx="18.15" cy="81.7144" fill="#84BE84" rx="0.9" ry="0.9" style="stroke:#038048;stroke-width:0.3;"/><text fill="#000000" font-family="sans-serif" font-size="4.2" lengthAdjust="spacing" textLength="37.2" x="20.85" y="83.2096">getKey(): CHDevice</text><ellipse cx="18.15" cy="87.4504" fill="#84BE84" rx="0.9" ry="0.9" style="stroke:#038048;stroke-width:0.3;"/><text fill="#000000" font-family="sans-serif" font-size="4.2" lengthAdjust="spacing" textLength="71.7" x="20.85" y="88.9456">dropKey(result: CHResult&lt;CHEmpty&gt;)</text><ellipse cx="18.15" cy="93.1865" fill="#84BE84" rx="0.9" ry="0.9" style="stroke:#038048;stroke-width:0.3;"/><text fill="#000000" font-family="sans-serif" font-size="4.2" lengthAdjust="spacing" textLength="77.4" x="20.85" y="94.6816">getVersionTag(result: CHResult&lt;String&gt;)</text><ellipse cx="18.15" cy="98.9225" fill="#84BE84" rx="0.9" ry="0.9" style="stroke:#038048;stroke-width:0.3;"/><text fill="#000000" font-family="sans-serif" font-size="4.2" lengthAdjust="spacing" textLength="70.2" x="20.85" y="100.4177">register(result: CHResult&lt;CHEmpty&gt;)</text><ellipse cx="18.15" cy="104.6585" fill="#84BE84" rx="0.9" ry="0.9" style="stroke:#038048;stroke-width:0.3;"/><text fill="#000000" font-family="sans-serif" font-size="4.2" lengthAdjust="spacing" textLength="65.4" x="20.85" y="106.1537">reset(result: CHResult&lt;CHEmpty&gt;)</text><ellipse cx="18.15" cy="110.3946" fill="#84BE84" rx="0.9" ry="0.9" style="stroke:#038048;stroke-width:0.3;"/><text fill="#000000" font-family="sans-serif" font-size="4.2" lengthAdjust="spacing" textLength="113.4" x="20.85" y="111.8897">updateFirmware(onResponse: CHResult&lt;BluetoothDevice&gt;)</text><ellipse cx="18.15" cy="116.1306" fill="#84BE84" rx="0.9" ry="0.9" style="stroke:#038048;stroke-width:0.3;"/><text fill="#000000" font-family="sans-serif" font-size="4.2" lengthAdjust="spacing" textLength="120.9" x="20.85" y="117.6258">createGuestKey(keyName: String, result: CHResult&lt;CHDevice&gt;)</text><ellipse cx="18.15" cy="121.8667" fill="#84BE84" rx="0.9" ry="0.9" style="stroke:#038048;stroke-width:0.3;"/><text fill="#000000" font-family="sans-serif" font-size="4.2" lengthAdjust="spacing" textLength="111" x="20.85" y="123.3618">getGuestKeys(result: CHResult&lt;Array&lt;CHGuestKeyCut&gt;&gt;)</text><ellipse cx="18.15" cy="127.6027" fill="#84BE84" rx="0.9" ry="0.9" style="stroke:#038048;stroke-width:0.3;"/><text fill="#000000" font-family="sans-serif" font-size="4.2" lengthAdjust="spacing" textLength="125.4" x="20.85" y="129.0979">removeGuestKey(guestKeyId: String, result: CHResult&lt;CHEmpty&gt;)</text><ellipse cx="18.15" cy="133.3387" fill="#84BE84" rx="0.9" ry="0.9" style="stroke:#038048;stroke-width:0.3;"/><text fill="#000000" font-family="sans-serif" font-size="4.2" lengthAdjust="spacing" textLength="150.9" x="20.85" y="134.8339">updateGuestKey(guestKeyId: String, name: String, result: CHResult&lt;CHEmpty&gt;)</text><ellipse cx="18.15" cy="139.0748" fill="#84BE84" rx="0.9" ry="0.9" style="stroke:#038048;stroke-width:0.3;"/><text fill="#000000" font-family="sans-serif" font-size="4.2" lengthAdjust="spacing" textLength="111.3" x="20.85" y="140.5699">setHistoryTag(tag: ByteArray, result: CHResult&lt;CHEmpty&gt;)</text><ellipse cx="18.15" cy="144.8108" fill="#84BE84" rx="0.9" ry="0.9" style="stroke:#038048;stroke-width:0.3;"/><text fill="#000000" font-family="sans-serif" font-size="4.2" lengthAdjust="spacing" textLength="52.8" x="20.85" y="146.306">getHistoryTag(): ByteArray?</text><ellipse cx="18.15" cy="150.5468" fill="#84BE84" rx="0.9" ry="0.9" style="stroke:#038048;stroke-width:0.3;"/><text fill="#000000" font-family="sans-serif" font-size="4.2" lengthAdjust="spacing" textLength="50.1" x="20.85" y="152.042">getTimeSignature(): String</text></g><!--class CHSesameLock--><g id="elem_CHSesameLock"><rect codeLine="75" fill="#F1F1F1" height="31.6081" id="CHSesameLock" rx="0.75" ry="0.75" style="stroke:#181818;stroke-width:0.15;" width="133.2" x="27.6" y="223.8"/><ellipse cx="77.625" cy="228.6" fill="#B4A7E5" rx="3.3" ry="3.3" style="stroke:#181818;stroke-width:0.3;"/><path d="M76.6875,227.4 L76.6875,226.8937 L78.4688,226.8937 L78.4688,227.4 L77.9063,227.4 Q77.8594,227.4 77.8453,227.4094 Q77.8313,227.4188 77.8313,227.4328 L77.8313,229.8609 Q77.8313,229.875 77.8453,229.8844 Q77.8594,229.8937 77.9063,229.8937 L78.4688,229.8937 L78.4688,230.4 L76.6875,230.4 L76.6875,229.8937 L77.25,229.8937 Q77.3109,229.8937 77.3156,229.8891 Q77.325,229.8844 77.325,229.8609 L77.325,227.4328 Q77.325,227.4094 77.3156,227.4047 Q77.3109,227.4 77.25,227.4 L76.6875,227.4 Z " fill="#000000"/><text fill="#000000" font-family="sans-serif" font-size="4.2" font-style="italic" lengthAdjust="spacing" textLength="30.6" x="83.775" y="230.5452">CHSesameLock</text><line style="stroke:#181818;stroke-width:0.15;" x1="27.9" x2="160.5" y1="233.4" y2="233.4"/><line style="stroke:#181818;stroke-width:0.15;" x1="27.9" x2="160.5" y1="235.8" y2="235.8"/><ellipse cx="30.9" cy="240.318" fill="#84BE84" rx="0.9" ry="0.9" style="stroke:#038048;stroke-width:0.3;"/><text fill="#000000" font-family="sans-serif" font-size="4.2" lengthAdjust="spacing" textLength="125.4" x="33.6" y="241.8132">isEnableNotification(fcmToken: String, result: CHResult&lt;Boolean&gt;)</text><ellipse cx="30.9" cy="246.0541" fill="#84BE84" rx="0.9" ry="0.9" style="stroke:#038048;stroke-width:0.3;"/><text fill="#000000" font-family="sans-serif" font-size="4.2" lengthAdjust="spacing" textLength="115.2" x="33.6" y="247.5492">enableNotification(fcmToken: String, result: CHResult&lt;Any&gt;)}</text><ellipse cx="30.9" cy="251.7901" fill="#84BE84" rx="0.9" ry="0.9" style="stroke:#038048;stroke-width:0.3;"/><text fill="#000000" font-family="sans-serif" font-size="4.2" lengthAdjust="spacing" textLength="114.3" x="33.6" y="253.2853">disableNotification(fcmToken: String, result: CHResult&lt;Any&gt;)</text></g><!--class CHSesame5--><g id="elem_CHSesame5"><rect codeLine="80" fill="#F1F1F1" height="66.0243" id="CHSesame5" rx="0.75" ry="0.75" style="stroke:#181818;stroke-width:0.15;" width="184.2" x="2.1" y="333.45"/><ellipse cx="81.075" cy="338.25" fill="#B4A7E5" rx="3.3" ry="3.3" style="stroke:#181818;stroke-width:0.3;"/><path d="M80.1375,337.05 L80.1375,336.5438 L81.9188,336.5438 L81.9188,337.05 L81.3563,337.05 Q81.3094,337.05 81.2953,337.0594 Q81.2813,337.0687 81.2813,337.0828 L81.2813,339.5109 Q81.2813,339.525 81.2953,339.5344 Q81.3094,339.5438 81.3563,339.5438 L81.9188,339.5438 L81.9188,340.05 L80.1375,340.05 L80.1375,339.5438 L80.7,339.5438 Q80.7609,339.5438 80.7656,339.5391 Q80.775,339.5344 80.775,339.5109 L80.775,337.0828 Q80.775,337.0594 80.7656,337.0547 Q80.7609,337.05 80.7,337.05 L80.1375,337.05 Z " fill="#000000"/><text fill="#000000" font-family="sans-serif" font-size="4.2" font-style="italic" lengthAdjust="spacing" textLength="23.7" x="87.225" y="340.1952">CHSesame5</text><line style="stroke:#181818;stroke-width:0.15;" x1="2.4" x2="186" y1="343.05" y2="343.05"/><rect fill="none" height="1.8" style="stroke:#C82930;stroke-width:0.3;" width="1.8" x="4.5" y="346.668"/><text fill="#000000" font-family="sans-serif" font-size="4.2" lengthAdjust="spacing" textLength="77.1" x="8.1" y="349.0632">mechSetting: CHSesame5MechSettings?</text><line style="stroke:#181818;stroke-width:0.15;" x1="2.4" x2="186" y1="351.186" y2="351.186"/><ellipse cx="5.4" cy="355.7041" fill="#84BE84" rx="0.9" ry="0.9" style="stroke:#038048;stroke-width:0.3;"/><text fill="#000000" font-family="sans-serif" font-size="4.2" lengthAdjust="spacing" textLength="119.1" x="8.1" y="357.1992">lock(historytag: ByteArray? = null, result: CHResult&lt;CHEmpty&gt;)</text><ellipse cx="5.4" cy="361.4401" fill="#84BE84" rx="0.9" ry="0.9" style="stroke:#038048;stroke-width:0.3;"/><text fill="#000000" font-family="sans-serif" font-size="4.2" lengthAdjust="spacing" textLength="123.9" x="8.1" y="362.9353">unlock(historytag: ByteArray? = null, result: CHResult&lt;CHEmpty&gt;)</text><ellipse cx="5.4" cy="367.1761" fill="#84BE84" rx="0.9" ry="0.9" style="stroke:#038048;stroke-width:0.3;"/><text fill="#000000" font-family="sans-serif" font-size="4.2" lengthAdjust="spacing" textLength="123.3" x="8.1" y="368.6713">toggle(historytag: ByteArray? = null, result: CHResult&lt;CHEmpty&gt;)</text><ellipse cx="5.4" cy="372.9122" fill="#84BE84" rx="0.9" ry="0.9" style="stroke:#038048;stroke-width:0.3;"/><text fill="#000000" font-family="sans-serif" font-size="4.2" lengthAdjust="spacing" textLength="69.9" x="8.1" y="374.4073">magnet(result: CHResult&lt;CHEmpty&gt;)</text><ellipse cx="5.4" cy="378.6482" fill="#84BE84" rx="0.9" ry="0.9" style="stroke:#038048;stroke-width:0.3;"/><text fill="#000000" font-family="sans-serif" font-size="4.2" lengthAdjust="spacing" textLength="172.5" x="8.1" y="380.1434">configureLockPosition(lockTarget: Short, unlockTarget: Short, result: CHResult&lt;CHEmpty&gt;)</text><ellipse cx="5.4" cy="384.3842" fill="#84BE84" rx="0.9" ry="0.9" style="stroke:#038048;stroke-width:0.3;"/><text fill="#000000" font-family="sans-serif" font-size="4.2" lengthAdjust="spacing" textLength="78.3" x="8.1" y="385.8794">autolock(delay: Int, result: CHResult&lt;Int&gt;)</text><text fill="#000000" font-family="sans-serif" font-size="4.2" lengthAdjust="spacing" textLength="165" x="8.1" y="391.6154">//    + history(cursor: Long?, result: CHResult&lt;Pair&lt;List&lt;CHSesame5History&gt;, Long?&gt;&gt;)</text><ellipse cx="5.4" cy="395.8563" fill="#84BE84" rx="0.9" ry="0.9" style="stroke:#038048;stroke-width:0.3;"/><text fill="#000000" font-family="sans-serif" font-size="4.2" lengthAdjust="spacing" textLength="176.4" x="8.1" y="397.3515">history(cursor: Long?, uuid: UUID, result: CHResult&lt;Pair&lt;List&lt;CHSesame5History&gt;, Long?&gt;&gt;)</text></g><!--class CHDeviceUtil--><g id="elem_CHDeviceUtil"><rect codeLine="91" fill="#F1F1F1" height="37.3441" id="CHDeviceUtil" rx="0.75" ry="0.75" style="stroke:#181818;stroke-width:0.15;" width="87.9" x="377.85" y="347.85"/><ellipse cx="408.225" cy="352.65" fill="#B4A7E5" rx="3.3" ry="3.3" style="stroke:#181818;stroke-width:0.3;"/><path d="M407.2875,351.45 L407.2875,350.9437 L409.0687,350.9437 L409.0687,351.45 L408.5062,351.45 Q408.4594,351.45 408.4453,351.4594 Q408.4313,351.4688 408.4313,351.4828 L408.4313,353.9109 Q408.4313,353.925 408.4453,353.9344 Q408.4594,353.9437 408.5062,353.9437 L409.0687,353.9437 L409.0687,354.45 L407.2875,354.45 L407.2875,353.9437 L407.85,353.9437 Q407.9109,353.9437 407.9156,353.9391 Q407.925,353.9344 407.925,353.9109 L407.925,351.4828 Q407.925,351.4594 407.9156,351.4547 Q407.9109,351.45 407.85,351.45 L407.2875,351.45 Z " fill="#000000"/><text fill="#000000" font-family="sans-serif" font-size="4.2" font-style="italic" lengthAdjust="spacing" textLength="24.6" x="414.375" y="354.5952">CHDeviceUtil</text><line style="stroke:#181818;stroke-width:0.15;" x1="378.15" x2="465.45" y1="357.45" y2="357.45"/><rect fill="none" height="1.8" style="stroke:#C82930;stroke-width:0.3;" width="1.8" x="380.25" y="361.068"/><text fill="#000000" font-family="sans-serif" font-size="4.2" lengthAdjust="spacing" textLength="54.9" x="383.85" y="363.4632">advertisement: CHadv?//&#24291;&#25773;</text><rect fill="none" height="1.8" style="stroke:#C82930;stroke-width:0.3;" width="1.8" x="380.25" y="366.8041"/><text fill="#000000" font-family="sans-serif" font-size="4.2" lengthAdjust="spacing" textLength="80.1" x="383.85" y="369.1992">sesame2KeyData: CHDevice?//&#38000;&#21273;&#30340;&#36039;&#26009;</text><line style="stroke:#181818;stroke-width:0.15;" x1="378.15" x2="465.45" y1="371.3221" y2="371.3221"/><rect fill="#F24D5C" height="1.8" style="stroke:#C82930;stroke-width:0.3;" width="1.8" x="380.25" y="374.9401"/><text fill="#000000" font-family="sans-serif" font-size="4.2" lengthAdjust="spacing" textLength="42.3" x="383.85" y="377.3353">goIOT() {}//&#35330;&#38321;&#65321;&#65327;&#65332;</text><rect fill="#F24D5C" height="1.8" style="stroke:#C82930;stroke-width:0.3;" width="1.8" x="380.25" y="380.6761"/><text fill="#000000" font-family="sans-serif" font-size="4.2" lengthAdjust="spacing" textLength="49.8" x="383.85" y="383.0713">login(token: String? = null)</text></g><!--link CHSesameOS3Publish to CHSesameOS3--><g id="link_CHSesameOS3Publish_CHSesameOS3"><path codeLine="98" d="M347.043,249.603 C340.935,261.774 330.042,283.188 320.1,301.2 C316.101,308.445 311.748,316.08 307.464,323.469 " fill="none" id="CHSesameOS3Publish-to-CHSesameOS3" style="stroke:#181818;stroke-width:0.3;"/><polygon fill="#181818" points="306.666,324.843,309.0598,323.111,307.4194,323.5459,306.9845,321.9056,306.666,324.843" style="stroke:#181818;stroke-width:0.3;"/><text fill="#000000" font-family="sans-serif" font-size="3.9" lengthAdjust="spacing" textLength="20.1" x="314.1" y="314.9694">implements</text></g><!--link CHBaseDevice to CHSesameOS3--><g id="link_CHBaseDevice_CHSesameOS3"><path codeLine="99" d="M268.587,301.242 C270.132,308.718 271.683,316.224 273.153,323.346 " fill="none" id="CHBaseDevice-to-CHSesameOS3" style="stroke:#181818;stroke-width:0.3;"/><polygon fill="#181818" points="273.468,324.858,274.0958,321.9708,273.1639,323.3891,271.7456,322.4573,273.468,324.858" style="stroke:#181818;stroke-width:0.3;"/><text fill="#000000" font-family="sans-serif" font-size="3.9" lengthAdjust="spacing" textLength="13.8" x="271.5" y="314.9694">extends</text></g><!--link CHSesameOS3 to CHSesame5Device--><g id="link_CHSesameOS3_CHSesame5Device"><path codeLine="100" d="M282,408.108 C282,415.704 282,423.372 282,430.17 " fill="none" id="CHSesameOS3-to-CHSesame5Device" style="stroke:#181818;stroke-width:0.3;"/><polygon fill="#181818" points="282,431.697,283.2,428.997,282,430.197,280.8,428.997,282,431.697" style="stroke:#181818;stroke-width:0.3;"/><text fill="#000000" font-family="sans-serif" font-size="3.9" lengthAdjust="spacing" textLength="13.8" x="282.3" y="421.7694">extends</text></g><!--link CHDevices to CHSesameLock--><g id="link_CHDevices_CHSesameLock"><path codeLine="101" d="M94.2,154.26 C94.2,179.685 94.2,205.728 94.2,222.168 " fill="none" id="CHDevices-to-CHSesameLock" style="stroke:#181818;stroke-width:0.3;"/><polygon fill="#181818" points="94.2,223.728,95.4,221.028,94.2,222.228,93,221.028,94.2,223.728" style="stroke:#181818;stroke-width:0.3;"/><text fill="#000000" font-family="sans-serif" font-size="3.9" lengthAdjust="spacing" textLength="13.8" x="94.5" y="167.9694">extends</text></g><!--link CHSesameLock to CHSesame5--><g id="link_CHSesameLock_CHSesame5"><path codeLine="102" d="M94.2,255.336 C94.2,274.254 94.2,306.816 94.2,331.761 " fill="none" id="CHSesameLock-to-CHSesame5" style="stroke:#181818;stroke-width:0.3;"/><polygon fill="#181818" points="94.2,333.393,95.4,330.693,94.2,331.893,93,330.693,94.2,333.393" style="stroke:#181818;stroke-width:0.3;"/><text fill="#000000" font-family="sans-serif" font-size="3.9" lengthAdjust="spacing" textLength="13.8" x="94.5" y="314.9694">extends</text></g><!--link CHSesame5 to CHSesame5Device--><g id="link_CHSesame5_CHSesame5Device"><path codeLine="103" d="M165.468,399.48 C188.415,410.019 213.279,421.437 234.123,431.013 " fill="none" id="CHSesame5-to-CHSesame5Device" style="stroke:#181818;stroke-width:0.3;"/><polygon fill="#181818" points="235.491,431.64,233.538,429.4229,234.1278,431.0141,232.5366,431.604,235.491,431.64" style="stroke:#181818;stroke-width:0.3;"/><text fill="#000000" font-family="sans-serif" font-size="3.9" lengthAdjust="spacing" textLength="20.1" x="216.3" y="421.7694">implements</text></g><!--link CHDeviceUtil to CHSesame5Device--><g id="link_CHDeviceUtil_CHSesame5Device"><path codeLine="104" d="M402.057,385.146 C393.387,392.727 382.86,401.286 372.6,408 C359.811,416.367 345.252,424.245 331.599,430.998 " fill="none" id="CHDeviceUtil-to-CHSesame5Device" style="stroke:#181818;stroke-width:0.3;"/><polygon fill="#181818" points="330.195,431.691,333.1473,431.5719,331.5401,431.027,332.0849,429.4198,330.195,431.691" style="stroke:#181818;stroke-width:0.3;"/><text fill="#000000" font-family="sans-serif" font-size="3.9" lengthAdjust="spacing" textLength="20.1" x="356.1" y="421.7694">implements</text></g><!--SRC=[hLVDRXit4BxlK_0eGnRKfl1buKgmv2GsQiM6BQTdUdUq8hnBBaYk4y7m9IZGIo_j8K1wxQKz56tHtkhNIPgS_0eTBhc_acN1hKxBuJV3cU4tCnJZ6kIC1a361sUWQ0B7Pr-SP1SnKtDoxH7I5VmvrThkkOtEbdVZUK5CbKAr4LMm3rSiW6kl6p8L2CuXq0ZgXbAaNy42FtigD_04L_jKKtzyO5MyNl5rfgdEbDzSUhtGhkOq5A_kWIGGpCijvwWKMWGYdfHRNeyGaaeHPe6UY11Y7rq_gQqH466Wfwz7sMm6qYVMqYY6KmY0NO4aNoxBEbl4AKwN5QUISfKmFKHDdiMnWIPsToekWVjajD2m9oLTOAO9mTtnd4eQu9qmfLc0W3W3BOIUcqjeRbPMhIx60EW8cC3g2TftyW9VmWraoX9GcYQfVoHur8B48c9yBS8QEGnzSdv-kD_QPEeK8dGL921W94GCb2D4ommSH2h5V7B8ynHzLYIX4NGh1qjdl008zp8zVoO5vbPUcHjmPndiZCOA35rBlfOqp_bjZ0GidLSNXpjuT-DSrZejIC8nZUCH3IvzCiaqlOXXGjFTStEFsvN-AQXKS0K6V87W0Pf9IlZn30l26bIGq7Gk99Z3tMTEC_VT-NpBQoUaCDecXnERcgrA41VQiT2k5F1mB9A4yj0A8j0lGIec-9H6LYH1WODdQOZKUSPayegYExaifJA0lVsNTdLVVsYcUwVe49Z4J4hWsWeCRInvS6UEP15oKGKuFi1CPh7UFQ5CxXxXzcvfyC221ziav-LWCFGC7PoupZTB0KoZQGQWDUEHNpasgQIgl6vZQMoJ2E5eyVNaoRB16u_LcgSDHrqNvzX-HEvlICDrTRYc03UjzeRvofr6wsn0wYss1HmkbUlg-bzN-6vlRGicnQzBQeD4vXoeiM5yy3H9zM9WgwXBaCBvbAdS9cwd642RcAXLmHByJ4laHucMBho7xTfIUX3MAZF1YmvIqochtOPOwWOIKFTvXYGneLx2uWKI3XjAxlCsMN5uOO5KqHVwQjdPV42XLW4PPtfG2p0HLzNfaVimb5ZZW8kUDC9VQuG_55CpePXrrmdCVMeQrMRj9Xv53VsjclQm1Z6bUSOYZZLYccFX7sdr1ji2ZaHmYHEdY-Nnb9jHy49eDcC1rSYwpYn8t9lWtXXT8LLEmgFCx76CyyQhLzgZpQmCTAUOgniqN1T9ZBdfkFRVlAoY9Mzmvnd_Nyne4KKn_6Sp2Otu9gMFNMx68kIFuSU9K2o_01F9b4ha65u1lWJqjWkl9NpGFCsqoDE2_PKkykQzGWkbgD7lMnqNUWSdjHBuBihdpWgjJQPouSSzDhECkU7nQFkhvl2vPZ6oi4TeY0z2pV2TXKyEOne5mtx__Ty_VVZXr_8HrlXhKXf1tAVlVt__tRj_Vlpcuv_VVdZxpYb4ul1uYY__wvj-_-FFRpwz_UFkzfUxsz_kRl-g3-wEhfTGGPtylzEAFrkztg3nEFLPaiQvsygh_ybQ1i9hZOywLJTgGAsdLmtctYfra27VaY4ZR5XQGkoiEgZXU7KV3q0zxry0]--></g></svg>