<?xml version="1.0" encoding="us-ascii" standalone="no"?><svg xmlns="http://www.w3.org/2000/svg" xmlns:xlink="http://www.w3.org/1999/xlink" contentStyleType="text/css" height="317.13px" preserveAspectRatio="none" style="width:448px;height:317px;background:#FFFFFF;" version="1.1" viewBox="0 0 448 317" width="448.26px" zoomAndPan="magnify"><defs/><g><!--class CHSesameOS3Publish--><g id="elem_CHSesameOS3Publish"><rect codeLine="1" fill="#F1F1F1" height="20.8072" id="CHSesameOS3Publish" rx="0.775" ry="0.775" style="stroke:#181818;stroke-width:0.155;" width="54.87" x="318.68" y="70.37"/><ellipse cx="323.33" cy="75.33" fill="#B4A7E5" rx="3.41" ry="3.41" style="stroke:#181818;stroke-width:0.31;"/><path d="M322.3613,74.09 L322.3613,73.5669 L324.2019,73.5669 L324.2019,74.09 L323.6206,74.09 Q323.5722,74.09 323.5577,74.0997 Q323.5431,74.1094 323.5431,74.1239 L323.5431,76.633 Q323.5431,76.6475 323.5577,76.6572 Q323.5722,76.6669 323.6206,76.6669 L324.2019,76.6669 L324.2019,77.19 L322.3613,77.19 L322.3613,76.6669 L322.9425,76.6669 Q323.0055,76.6669 323.0103,76.662 Q323.02,76.6572 323.02,76.633 L323.02,74.1239 Q323.02,74.0997 323.0103,74.0948 Q323.0055,74.09 322.9425,74.09 L322.3613,74.09 Z " fill="#000000"/><text fill="#000000" font-family="sans-serif" font-size="4.34" font-style="italic" lengthAdjust="spacing" textLength="44.95" x="327.67" y="77.34">CHSesameOS3Publish</text><line style="stroke:#181818;stroke-width:0.155;" x1="318.99" x2="373.24" y1="80.29" y2="80.29"/><line style="stroke:#181818;stroke-width:0.155;" x1="318.99" x2="373.24" y1="82.77" y2="82.77"/><ellipse cx="322.09" cy="87.4386" fill="#84BE84" rx="0.93" ry="0.93" style="stroke:#038048;stroke-width:0.31;"/><text fill="#000000" font-family="sans-serif" font-size="4.34" lengthAdjust="spacing" textLength="46.5" x="324.88" y="88.9836">onGattSesamePublish()</text></g><!--class CHBaseDevice--><g id="elem_CHBaseDevice"><rect codeLine="5" fill="#F1F1F1" height="127.4975" id="CHBaseDevice" rx="0.775" ry="0.775" style="stroke:#181818;stroke-width:0.155;" width="121.52" x="186.155" y="17.05"/><ellipse cx="231.0275" cy="22.01" fill="#ADD1B2" rx="3.41" ry="3.41" style="stroke:#181818;stroke-width:0.31;"/><path d="M230.9306,23.87 Q230.33,23.87 229.9813,23.4292 Q229.6325,22.9836 229.6325,22.0681 Q229.6325,21.2931 230.0006,20.77 Q230.3688,20.2469 231.0081,20.2469 Q231.1583,20.2469 231.3133,20.2808 Q231.4392,20.3244 231.5167,20.3244 Q231.5797,20.3244 231.6039,20.3195 Q231.633,20.3098 231.7977,20.1016 L232.0253,21.4142 L231.725,21.5983 Q231.57,21.1188 231.3908,20.9444 Q231.2164,20.77 230.9355,20.77 Q230.577,20.77 230.3639,21.1381 Q230.1556,21.5014 230.1556,22.0681 Q230.1556,22.6881 230.3348,23.0175 Q230.5141,23.3469 230.9161,23.3469 Q231.2019,23.3469 231.4005,23.1725 Q231.6039,22.9933 231.7105,22.5622 L232.0302,22.722 Q231.9091,23.2645 231.6184,23.5697 Q231.3278,23.87 230.9306,23.87 Z " fill="#000000"/><text fill="#000000" font-family="sans-serif" font-size="4.34" lengthAdjust="spacing" textLength="29.14" x="237.3825" y="24.02">CHBaseDevice</text><line style="stroke:#181818;stroke-width:0.155;" x1="186.465" x2="307.365" y1="26.97" y2="26.97"/><rect fill="none" height="1.86" style="stroke:#C82930;stroke-width:0.31;" width="1.86" x="188.635" y="30.7086"/><text fill="#000000" font-family="sans-serif" font-size="4.34" lengthAdjust="spacing" textLength="54.87" x="192.355" y="33.1836">sesame2KeyData:CHDevice</text><rect fill="none" height="1.86" style="stroke:#C82930;stroke-width:0.31;" width="1.86" x="188.635" y="36.6359"/><text fill="#000000" font-family="sans-serif" font-size="4.34" lengthAdjust="spacing" textLength="64.48" x="192.355" y="39.1109">CHDeviceStatus:CHDeviceStatus</text><rect fill="none" height="1.86" style="stroke:#C82930;stroke-width:0.31;" width="1.86" x="188.635" y="42.5631"/><text fill="#000000" font-family="sans-serif" font-size="4.34" lengthAdjust="spacing" textLength="73.47" x="192.355" y="45.0381">deviceShadowStatus:CHDeviceStatus</text><rect fill="none" height="1.86" style="stroke:#C82930;stroke-width:0.31;" width="1.86" x="188.635" y="48.4903"/><text fill="#000000" font-family="sans-serif" font-size="4.34" lengthAdjust="spacing" textLength="84.94" x="192.355" y="50.9653">mechStatus:CHSesameProtocolMechStatus</text><rect fill="none" height="1.86" style="stroke:#C82930;stroke-width:0.31;" width="1.86" x="188.635" y="54.4176"/><text fill="#000000" font-family="sans-serif" font-size="4.34" lengthAdjust="spacing" textLength="62" x="192.355" y="56.8926">productModel: CHProductModel</text><rect fill="none" height="1.86" style="stroke:#C82930;stroke-width:0.31;" width="1.86" x="188.635" y="60.3448"/><text fill="#000000" font-family="sans-serif" font-size="4.34" lengthAdjust="spacing" textLength="79.67" x="192.355" y="62.8198">gattTxBuffer: SesameBleTransmit? = null</text><rect fill="none" height="1.86" style="stroke:#C82930;stroke-width:0.31;" width="1.86" x="188.635" y="66.272"/><text fill="#000000" font-family="sans-serif" font-size="4.34" lengthAdjust="spacing" textLength="53.32" x="192.355" y="68.747">mSesameToken: ByteArray</text><rect fill="none" height="1.86" style="stroke:#C82930;stroke-width:0.31;" width="1.86" x="188.635" y="72.1993"/><text fill="#000000" font-family="sans-serif" font-size="4.34" lengthAdjust="spacing" textLength="101.06" x="192.355" y="74.6743">mCharacteristic: BluetoothGattCharacteristic? = null</text><rect fill="none" height="1.86" style="stroke:#C82930;stroke-width:0.31;" width="1.86" x="188.635" y="78.1265"/><text fill="#000000" font-family="sans-serif" font-size="4.34" lengthAdjust="spacing" textLength="83.08" x="192.355" y="80.6015">delegate: CHDeviceStatusDelegate? = null</text><rect fill="none" height="1.86" style="stroke:#C82930;stroke-width:0.31;" width="1.86" x="188.635" y="84.0537"/><text fill="#000000" font-family="sans-serif" font-size="4.34" lengthAdjust="spacing" textLength="59.52" x="192.355" y="86.5288">deviceTimestamp:Long? = null</text><rect fill="none" height="1.86" style="stroke:#C82930;stroke-width:0.31;" width="1.86" x="188.635" y="89.981"/><text fill="#000000" font-family="sans-serif" font-size="4.34" lengthAdjust="spacing" textLength="56.11" x="192.355" y="92.456">loginTimestamp:Long? = null</text><rect fill="none" height="1.86" style="stroke:#C82930;stroke-width:0.31;" width="1.86" x="188.635" y="95.9082"/><text fill="#000000" font-family="sans-serif" font-size="4.34" lengthAdjust="spacing" textLength="42.47" x="192.355" y="98.3832">deviceId: UUID? = null</text><rect fill="none" height="1.86" style="stroke:#C82930;stroke-width:0.31;" width="1.86" x="188.635" y="101.8355"/><text fill="#000000" font-family="sans-serif" font-size="4.34" lengthAdjust="spacing" textLength="55.8" x="192.355" y="104.3105">isRegistered: Boolean = true</text><rect fill="none" height="1.86" style="stroke:#C82930;stroke-width:0.31;" width="1.86" x="188.635" y="107.7627"/><text fill="#000000" font-family="sans-serif" font-size="4.34" lengthAdjust="spacing" textLength="23.87" x="192.355" y="110.2377">rssi: Int? = 0</text><rect fill="none" height="1.86" style="stroke:#C82930;stroke-width:0.31;" width="1.86" x="188.635" y="113.6899"/><text fill="#000000" font-family="sans-serif" font-size="4.34" lengthAdjust="spacing" textLength="74.09" x="192.355" y="116.1649">mBluetoothGatt: BluetoothGatt? = null</text><rect fill="none" height="1.86" style="stroke:#C82930;stroke-width:0.31;" width="1.86" x="188.635" y="119.6172"/><text fill="#000000" font-family="sans-serif" font-size="4.34" lengthAdjust="spacing" textLength="80.91" x="192.355" y="122.0922">isNeedAuthFromServer: Boolean? = false</text><line style="stroke:#181818;stroke-width:0.155;" x1="186.465" x2="307.365" y1="124.2858" y2="124.2858"/><ellipse cx="189.565" cy="128.9544" fill="#84BE84" rx="0.93" ry="0.93" style="stroke:#038048;stroke-width:0.31;"/><text fill="#000000" font-family="sans-serif" font-size="4.34" lengthAdjust="spacing" textLength="24.18" x="192.355" y="130.4994">disconnect()</text><ellipse cx="189.565" cy="134.8816" fill="#84BE84" rx="0.93" ry="0.93" style="stroke:#038048;stroke-width:0.31;"/><text fill="#000000" font-family="sans-serif" font-size="4.34" lengthAdjust="spacing" textLength="19.53" x="192.355" y="136.4266">dropKey()</text><rect fill="#F24D5C" height="1.86" style="stroke:#C82930;stroke-width:0.31;" width="1.86" x="188.635" y="139.8789"/><text fill="#000000" font-family="sans-serif" font-size="4.34" lengthAdjust="spacing" textLength="113.46" x="192.355" y="142.3539">gattRxBuffer: SesameBleReceiver = SesameBleReceiver()</text></g><!--class CHSesameOS3--><g id="elem_CHSesameOS3"><rect codeLine="28" fill="#F1F1F1" height="86.0068" id="CHSesameOS3" rx="0.775" ry="0.775" style="stroke:#181818;stroke-width:0.155;" width="176.08" x="168.175" y="183.83"/><ellipse cx="239.7075" cy="188.79" fill="#ADD1B2" rx="3.41" ry="3.41" style="stroke:#181818;stroke-width:0.31;"/><path d="M239.6106,190.65 Q239.01,190.65 238.6613,190.2092 Q238.3125,189.7636 238.3125,188.8481 Q238.3125,188.0731 238.6806,187.55 Q239.0487,187.0269 239.6881,187.0269 Q239.8383,187.0269 239.9933,187.0608 Q240.1192,187.1044 240.1967,187.1044 Q240.2597,187.1044 240.2839,187.0995 Q240.313,187.0898 240.4777,186.8816 L240.7053,188.1942 L240.405,188.3783 Q240.25,187.8988 240.0708,187.7244 Q239.8964,187.55 239.6155,187.55 Q239.257,187.55 239.0439,187.9181 Q238.8356,188.2814 238.8356,188.8481 Q238.8356,189.4681 239.0148,189.7975 Q239.1941,190.1269 239.5961,190.1269 Q239.8819,190.1269 240.0805,189.9525 Q240.2839,189.7733 240.3905,189.3422 L240.7102,189.502 Q240.5891,190.0445 240.2984,190.3497 Q240.0078,190.65 239.6106,190.65 Z " fill="#000000"/><text fill="#000000" font-family="sans-serif" font-size="4.34" lengthAdjust="spacing" textLength="30.38" x="246.0625" y="190.8">CHSesameOS3</text><line style="stroke:#181818;stroke-width:0.155;" x1="168.485" x2="343.945" y1="193.75" y2="193.75"/><rect fill="none" height="1.86" style="stroke:#C82930;stroke-width:0.31;" width="1.86" x="170.655" y="197.4886"/><text fill="#000000" font-family="sans-serif" font-size="4.34" lengthAdjust="spacing" textLength="72.54" x="174.375" y="199.9636">cipher: SesameOS3BleCipher? = null</text><rect fill="none" height="1.86" style="stroke:#C82930;stroke-width:0.31;" width="1.86" x="170.655" y="203.4159"/><text fill="#000000" font-family="sans-serif" font-size="4.34" lengthAdjust="spacing" textLength="93.31" x="174.375" y="205.8909">mBluetoothGattCallback: BluetoothGattCallback</text><line style="stroke:#181818;stroke-width:0.155;" x1="168.485" x2="343.945" y1="208.0845" y2="208.0845"/><rect fill="#F24D5C" height="1.86" style="stroke:#C82930;stroke-width:0.31;" width="1.86" x="170.655" y="211.8231"/><text fill="#000000" font-family="sans-serif" font-size="4.34" lengthAdjust="spacing" textLength="168.02" x="174.375" y="214.2981">cmdCallBack: MutableMap&lt;UByte, SesameOS3ResponseCallback&gt; = mutableMapOf()</text><rect fill="#F24D5C" height="1.86" style="stroke:#C82930;stroke-width:0.31;" width="1.86" x="170.655" y="217.7503"/><text fill="#000000" font-family="sans-serif" font-size="4.34" lengthAdjust="spacing" textLength="80.29" x="174.375" y="220.2253">semaphore: Semaphore = Semaphore(1)</text><ellipse cx="171.585" cy="224.6076" fill="#84BE84" rx="0.93" ry="0.93" style="stroke:#038048;stroke-width:0.31;"/><text fill="#000000" font-family="sans-serif" font-size="4.34" lengthAdjust="spacing" textLength="18.6" x="174.375" y="226.1526">connect()</text><ellipse cx="171.585" cy="230.5348" fill="#84BE84" rx="0.93" ry="0.93" style="stroke:#038048;stroke-width:0.31;"/><text fill="#000000" font-family="sans-serif" font-size="4.34" lengthAdjust="spacing" textLength="18.6" x="174.375" y="232.0798">transmit()</text><ellipse cx="171.585" cy="236.462" fill="#84BE84" rx="0.93" ry="0.93" style="stroke:#038048;stroke-width:0.31;"/><text fill="#000000" font-family="sans-serif" font-size="4.34" lengthAdjust="spacing" textLength="32.55" x="174.375" y="238.007">sendCommand()</text><ellipse cx="171.585" cy="242.3893" fill="#84BE84" rx="0.93" ry="0.93" style="stroke:#038048;stroke-width:0.31;"/><text fill="#000000" font-family="sans-serif" font-size="4.34" lengthAdjust="spacing" textLength="31.93" x="174.375" y="243.9343">getVersionTag()</text><ellipse cx="171.585" cy="248.3165" fill="#84BE84" rx="0.93" ry="0.93" style="stroke:#038048;stroke-width:0.31;"/><text fill="#000000" font-family="sans-serif" font-size="4.34" lengthAdjust="spacing" textLength="13.02" x="174.375" y="249.8615">reset()</text><ellipse cx="171.585" cy="254.2437" fill="#84BE84" rx="0.93" ry="0.93" style="stroke:#038048;stroke-width:0.31;"/><text fill="#000000" font-family="sans-serif" font-size="4.34" lengthAdjust="spacing" textLength="34.72" x="174.375" y="255.7888">updateFirmware()</text><ellipse cx="171.585" cy="260.171" fill="#84BE84" rx="0.93" ry="0.93" style="stroke:#038048;stroke-width:0.31;"/><text fill="#000000" font-family="sans-serif" font-size="4.34" lengthAdjust="spacing" textLength="22.94" x="174.375" y="261.716">parceADV()</text><ellipse cx="171.585" cy="266.0982" fill="#84BE84" rx="0.93" ry="0.93" style="stroke:#038048;stroke-width:0.31;"/><text fill="#000000" font-family="sans-serif" font-size="4.34" lengthAdjust="spacing" textLength="46.5" x="174.375" y="267.6432">onGattSesamePublish()</text></g><!--class CHDevices--><g id="elem_CHDevices"><rect codeLine="43" fill="#F1F1F1" height="157.1337" id="CHDevices" rx="0.775" ry="0.775" style="stroke:#181818;stroke-width:0.155;" width="163.99" x="2.17" y="2.17"/><ellipse cx="72.1525" cy="7.13" fill="#B4A7E5" rx="3.41" ry="3.41" style="stroke:#181818;stroke-width:0.31;"/><path d="M71.1838,5.89 L71.1838,5.3669 L73.0244,5.3669 L73.0244,5.89 L72.4431,5.89 Q72.3947,5.89 72.3802,5.8997 Q72.3656,5.9094 72.3656,5.9239 L72.3656,8.433 Q72.3656,8.4475 72.3802,8.4572 Q72.3947,8.4669 72.4431,8.4669 L73.0244,8.4669 L73.0244,8.99 L71.1838,8.99 L71.1838,8.4669 L71.765,8.4669 Q71.828,8.4669 71.8328,8.462 Q71.8425,8.4572 71.8425,8.433 L71.8425,5.9239 Q71.8425,5.8997 71.8328,5.8948 Q71.828,5.89 71.765,5.89 L71.1838,5.89 Z " fill="#000000"/><text fill="#000000" font-family="sans-serif" font-size="4.34" font-style="italic" lengthAdjust="spacing" textLength="21.39" x="78.5075" y="9.14">CHDevices</text><line style="stroke:#181818;stroke-width:0.155;" x1="2.48" x2="165.85" y1="12.09" y2="12.09"/><rect fill="none" height="1.86" style="stroke:#C82930;stroke-width:0.31;" width="1.86" x="4.65" y="15.8286"/><text fill="#000000" font-family="sans-serif" font-size="4.34" lengthAdjust="spacing" textLength="88.66" x="8.37" y="18.3036">mechStatus: CHSesameProtocolMechStatus?</text><rect fill="none" height="1.86" style="stroke:#C82930;stroke-width:0.31;" width="1.86" x="4.65" y="21.7559"/><text fill="#000000" font-family="sans-serif" font-size="4.34" lengthAdjust="spacing" textLength="47.74" x="8.37" y="24.2309">deviceTimestamp:Long?</text><rect fill="none" height="1.86" style="stroke:#C82930;stroke-width:0.31;" width="1.86" x="4.65" y="27.6831"/><text fill="#000000" font-family="sans-serif" font-size="4.34" lengthAdjust="spacing" textLength="44.33" x="8.37" y="30.1581">loginTimestamp:Long?</text><rect fill="none" height="1.86" style="stroke:#C82930;stroke-width:0.31;" width="1.86" x="4.65" y="33.6103"/><text fill="#000000" font-family="sans-serif" font-size="4.34" lengthAdjust="spacing" textLength="71.3" x="8.37" y="36.0853">delegate: CHDeviceStatusDelegate?</text><rect fill="none" height="1.86" style="stroke:#C82930;stroke-width:0.31;" width="1.86" x="4.65" y="39.5376"/><text fill="#000000" font-family="sans-serif" font-size="4.34" lengthAdjust="spacing" textLength="59.21" x="8.37" y="42.0126">deviceStatus: CHDeviceStatus</text><rect fill="none" height="1.86" style="stroke:#C82930;stroke-width:0.31;" width="1.86" x="4.65" y="45.4648"/><text fill="#000000" font-family="sans-serif" font-size="4.34" lengthAdjust="spacing" textLength="77.19" x="8.37" y="47.9398">deviceShadowStatus: CHDeviceStatus?</text><rect fill="none" height="1.86" style="stroke:#C82930;stroke-width:0.31;" width="1.86" x="4.65" y="51.392"/><text fill="#000000" font-family="sans-serif" font-size="4.34" lengthAdjust="spacing" textLength="16.43" x="8.37" y="53.867">rssi: Int?</text><rect fill="none" height="1.86" style="stroke:#C82930;stroke-width:0.31;" width="1.86" x="4.65" y="57.3193"/><text fill="#000000" font-family="sans-serif" font-size="4.34" lengthAdjust="spacing" textLength="30.69" x="8.37" y="59.7943">deviceId: UUID?</text><rect fill="none" height="1.86" style="stroke:#C82930;stroke-width:0.31;" width="1.86" x="4.65" y="63.2465"/><text fill="#000000" font-family="sans-serif" font-size="4.34" lengthAdjust="spacing" textLength="43.09" x="8.37" y="65.7215">isRegistered: Boolean</text><rect fill="none" height="1.86" style="stroke:#C82930;stroke-width:0.31;" width="1.86" x="4.65" y="69.1737"/><text fill="#000000" font-family="sans-serif" font-size="4.34" lengthAdjust="spacing" textLength="62" x="8.37" y="71.6487">productModel: CHProductModel</text><line style="stroke:#181818;stroke-width:0.155;" x1="2.48" x2="165.85" y1="73.8424" y2="73.8424"/><ellipse cx="5.58" cy="78.511" fill="#84BE84" rx="0.93" ry="0.93" style="stroke:#038048;stroke-width:0.31;"/><text fill="#000000" font-family="sans-serif" font-size="4.34" lengthAdjust="spacing" textLength="78.74" x="8.37" y="80.056">disconnect(result: CHResult&lt;CHEmpty&gt;)</text><ellipse cx="5.58" cy="84.4382" fill="#84BE84" rx="0.93" ry="0.93" style="stroke:#038048;stroke-width:0.31;"/><text fill="#000000" font-family="sans-serif" font-size="4.34" lengthAdjust="spacing" textLength="38.44" x="8.37" y="85.9832">getKey(): CHDevice</text><ellipse cx="5.58" cy="90.3655" fill="#84BE84" rx="0.93" ry="0.93" style="stroke:#038048;stroke-width:0.31;"/><text fill="#000000" font-family="sans-serif" font-size="4.34" lengthAdjust="spacing" textLength="74.09" x="8.37" y="91.9105">dropKey(result: CHResult&lt;CHEmpty&gt;)</text><ellipse cx="5.58" cy="96.2927" fill="#84BE84" rx="0.93" ry="0.93" style="stroke:#038048;stroke-width:0.31;"/><text fill="#000000" font-family="sans-serif" font-size="4.34" lengthAdjust="spacing" textLength="79.98" x="8.37" y="97.8377">getVersionTag(result: CHResult&lt;String&gt;)</text><ellipse cx="5.58" cy="102.2199" fill="#84BE84" rx="0.93" ry="0.93" style="stroke:#038048;stroke-width:0.31;"/><text fill="#000000" font-family="sans-serif" font-size="4.34" lengthAdjust="spacing" textLength="72.54" x="8.37" y="103.7649">register(result: CHResult&lt;CHEmpty&gt;)</text><ellipse cx="5.58" cy="108.1472" fill="#84BE84" rx="0.93" ry="0.93" style="stroke:#038048;stroke-width:0.31;"/><text fill="#000000" font-family="sans-serif" font-size="4.34" lengthAdjust="spacing" textLength="67.58" x="8.37" y="109.6922">reset(result: CHResult&lt;CHEmpty&gt;)</text><ellipse cx="5.58" cy="114.0744" fill="#84BE84" rx="0.93" ry="0.93" style="stroke:#038048;stroke-width:0.31;"/><text fill="#000000" font-family="sans-serif" font-size="4.34" lengthAdjust="spacing" textLength="117.18" x="8.37" y="115.6194">updateFirmware(onResponse: CHResult&lt;BluetoothDevice&gt;)</text><ellipse cx="5.58" cy="120.0016" fill="#84BE84" rx="0.93" ry="0.93" style="stroke:#038048;stroke-width:0.31;"/><text fill="#000000" font-family="sans-serif" font-size="4.34" lengthAdjust="spacing" textLength="124.93" x="8.37" y="121.5466">createGuestKey(keyName: String, result: CHResult&lt;CHDevice&gt;)</text><ellipse cx="5.58" cy="125.9289" fill="#84BE84" rx="0.93" ry="0.93" style="stroke:#038048;stroke-width:0.31;"/><text fill="#000000" font-family="sans-serif" font-size="4.34" lengthAdjust="spacing" textLength="114.7" x="8.37" y="127.4739">getGuestKeys(result: CHResult&lt;Array&lt;CHGuestKeyCut&gt;&gt;)</text><ellipse cx="5.58" cy="131.8561" fill="#84BE84" rx="0.93" ry="0.93" style="stroke:#038048;stroke-width:0.31;"/><text fill="#000000" font-family="sans-serif" font-size="4.34" lengthAdjust="spacing" textLength="129.58" x="8.37" y="133.4011">removeGuestKey(guestKeyId: String, result: CHResult&lt;CHEmpty&gt;)</text><ellipse cx="5.58" cy="137.7833" fill="#84BE84" rx="0.93" ry="0.93" style="stroke:#038048;stroke-width:0.31;"/><text fill="#000000" font-family="sans-serif" font-size="4.34" lengthAdjust="spacing" textLength="155.93" x="8.37" y="139.3283">updateGuestKey(guestKeyId: String, name: String, result: CHResult&lt;CHEmpty&gt;)</text><ellipse cx="5.58" cy="143.7106" fill="#84BE84" rx="0.93" ry="0.93" style="stroke:#038048;stroke-width:0.31;"/><text fill="#000000" font-family="sans-serif" font-size="4.34" lengthAdjust="spacing" textLength="115.01" x="8.37" y="145.2556">setHistoryTag(tag: ByteArray, result: CHResult&lt;CHEmpty&gt;)</text><ellipse cx="5.58" cy="149.6378" fill="#84BE84" rx="0.93" ry="0.93" style="stroke:#038048;stroke-width:0.31;"/><text fill="#000000" font-family="sans-serif" font-size="4.34" lengthAdjust="spacing" textLength="54.56" x="8.37" y="151.1828">getHistoryTag(): ByteArray?</text><ellipse cx="5.58" cy="155.5651" fill="#84BE84" rx="0.93" ry="0.93" style="stroke:#038048;stroke-width:0.31;"/><text fill="#000000" font-family="sans-serif" font-size="4.34" lengthAdjust="spacing" textLength="51.77" x="8.37" y="157.1101">getTimeSignature(): String</text></g><!--class CHWifiModule2--><g id="elem_CHWifiModule2"><rect codeLine="70" fill="#F1F1F1" height="68.2251" id="CHWifiModule2" rx="0.775" ry="0.775" style="stroke:#181818;stroke-width:0.155;" width="146.01" x="11.16" y="192.665"/><ellipse cx="67.5025" cy="197.625" fill="#B4A7E5" rx="3.41" ry="3.41" style="stroke:#181818;stroke-width:0.31;"/><path d="M66.5338,196.385 L66.5338,195.8619 L68.3744,195.8619 L68.3744,196.385 L67.7931,196.385 Q67.7447,196.385 67.7302,196.3947 Q67.7156,196.4044 67.7156,196.4189 L67.7156,198.928 Q67.7156,198.9425 67.7302,198.9522 Q67.7447,198.9619 67.7931,198.9619 L68.3744,198.9619 L68.3744,199.485 L66.5338,199.485 L66.5338,198.9619 L67.115,198.9619 Q67.178,198.9619 67.1828,198.957 Q67.1925,198.9522 67.1925,198.928 L67.1925,196.4189 Q67.1925,196.3947 67.1828,196.3898 Q67.178,196.385 67.115,196.385 L66.5338,196.385 Z " fill="#000000"/><text fill="#000000" font-family="sans-serif" font-size="4.34" font-style="italic" lengthAdjust="spacing" textLength="30.69" x="73.8575" y="199.635">CHWifiModule2</text><line style="stroke:#181818;stroke-width:0.155;" x1="11.47" x2="156.86" y1="202.585" y2="202.585"/><text fill="#000000" font-family="sans-serif" font-size="4.34" lengthAdjust="spacing" textLength="92.38" x="13.02" y="208.7986">var ssm2KeysMap: MutableMap&lt;String, String&gt;</text><text fill="#000000" font-family="sans-serif" font-size="4.34" lengthAdjust="spacing" textLength="106.33" x="13.02" y="214.7259">//    var networkStatus: CHWifiModule2NetWorkStatus?</text><text fill="#000000" font-family="sans-serif" font-size="4.34" lengthAdjust="spacing" textLength="92.69" x="13.02" y="220.6531">var mechSetting: CHWifiModule2MechSettings?</text><line style="stroke:#181818;stroke-width:0.155;" x1="11.47" x2="156.86" y1="222.8467" y2="222.8467"/><text fill="#000000" font-family="sans-serif" font-size="4.34" lengthAdjust="spacing" textLength="91.14" x="13.02" y="229.0603">fun scanWifiSSID(result: CHResult&lt;CHEmpty&gt;)</text><text fill="#000000" font-family="sans-serif" font-size="4.34" lengthAdjust="spacing" textLength="111.91" x="13.02" y="234.9876">fun setWifiSSID(ssid: String, result: CHResult&lt;CHEmpty&gt;)</text><text fill="#000000" font-family="sans-serif" font-size="4.34" lengthAdjust="spacing" textLength="132.06" x="13.02" y="240.9148">fun setWifiPassword(password: String, result: CHResult&lt;CHEmpty&gt;)</text><text fill="#000000" font-family="sans-serif" font-size="4.34" lengthAdjust="spacing" textLength="87.73" x="13.02" y="246.842">fun connectWifi(result: CHResult&lt;CHEmpty&gt;)</text><text fill="#000000" font-family="sans-serif" font-size="4.34" lengthAdjust="spacing" textLength="135.47" x="13.02" y="252.7693">fun insertSesames(sesame: CHDevices, result: CHResult&lt;CHEmpty&gt;)</text><text fill="#000000" font-family="sans-serif" font-size="4.34" lengthAdjust="spacing" textLength="142.29" x="13.02" y="258.6965">fun removeSesame(sesameKeyTag: String, result: CHResult&lt;CHEmpty&gt;)</text></g><!--class CHDeviceUtil--><g id="elem_CHDeviceUtil"><rect codeLine="81" fill="#F1F1F1" height="38.5889" id="CHDeviceUtil" rx="0.775" ry="0.775" style="stroke:#181818;stroke-width:0.155;" width="90.83" x="355.26" y="207.545"/><ellipse cx="386.6475" cy="212.505" fill="#B4A7E5" rx="3.41" ry="3.41" style="stroke:#181818;stroke-width:0.31;"/><path d="M385.6788,211.265 L385.6788,210.7419 L387.5194,210.7419 L387.5194,211.265 L386.9381,211.265 Q386.8897,211.265 386.8752,211.2747 Q386.8606,211.2844 386.8606,211.2989 L386.8606,213.808 Q386.8606,213.8225 386.8752,213.8322 Q386.8897,213.8419 386.9381,213.8419 L387.5194,213.8419 L387.5194,214.365 L385.6788,214.365 L385.6788,213.8419 L386.26,213.8419 Q386.323,213.8419 386.3278,213.837 Q386.3375,213.8322 386.3375,213.808 L386.3375,211.2989 Q386.3375,211.2747 386.3278,211.2698 Q386.323,211.265 386.26,211.265 L385.6788,211.265 Z " fill="#000000"/><text fill="#000000" font-family="sans-serif" font-size="4.34" font-style="italic" lengthAdjust="spacing" textLength="25.42" x="393.0025" y="214.515">CHDeviceUtil</text><line style="stroke:#181818;stroke-width:0.155;" x1="355.57" x2="445.78" y1="217.465" y2="217.465"/><rect fill="none" height="1.86" style="stroke:#C82930;stroke-width:0.31;" width="1.86" x="357.74" y="221.2036"/><text fill="#000000" font-family="sans-serif" font-size="4.34" lengthAdjust="spacing" textLength="56.73" x="361.46" y="223.6786">advertisement: CHadv?//&#24291;&#25773;</text><rect fill="none" height="1.86" style="stroke:#C82930;stroke-width:0.31;" width="1.86" x="357.74" y="227.1309"/><text fill="#000000" font-family="sans-serif" font-size="4.34" lengthAdjust="spacing" textLength="82.77" x="361.46" y="229.6059">sesame2KeyData: CHDevice?//&#38000;&#21273;&#30340;&#36039;&#26009;</text><line style="stroke:#181818;stroke-width:0.155;" x1="355.57" x2="445.78" y1="231.7995" y2="231.7995"/><rect fill="#F24D5C" height="1.86" style="stroke:#C82930;stroke-width:0.31;" width="1.86" x="357.74" y="235.5381"/><text fill="#000000" font-family="sans-serif" font-size="4.34" lengthAdjust="spacing" textLength="43.71" x="361.46" y="238.0131">goIOT() {}//&#35330;&#38321;&#65321;&#65327;&#65332;</text><rect fill="#F24D5C" height="1.86" style="stroke:#C82930;stroke-width:0.31;" width="1.86" x="357.74" y="241.4653"/><text fill="#000000" font-family="sans-serif" font-size="4.34" lengthAdjust="spacing" textLength="51.46" x="361.46" y="243.9403">login(token: String? = null)</text></g><!--class CHWifiModule2Device--><g id="elem_CHWifiModule2Device"><rect codeLine="87" fill="#F1F1F1" height="20.8072" id="CHWifiModule2Device" rx="0.775" ry="0.775" style="stroke:#181818;stroke-width:0.155;" width="129.58" x="191.425" y="294.19"/><ellipse cx="233.3525" cy="299.15" fill="#ADD1B2" rx="3.41" ry="3.41" style="stroke:#181818;stroke-width:0.31;"/><path d="M233.2556,301.01 Q232.655,301.01 232.3063,300.5692 Q231.9575,300.1236 231.9575,299.2081 Q231.9575,298.4331 232.3256,297.91 Q232.6938,297.3869 233.3331,297.3869 Q233.4833,297.3869 233.6383,297.4208 Q233.7642,297.4644 233.8417,297.4644 Q233.9047,297.4644 233.9289,297.4595 Q233.958,297.4498 234.1227,297.2416 L234.3503,298.5542 L234.05,298.7383 Q233.895,298.2588 233.7158,298.0844 Q233.5414,297.91 233.2605,297.91 Q232.902,297.91 232.6889,298.2781 Q232.4806,298.6414 232.4806,299.2081 Q232.4806,299.8281 232.6598,300.1575 Q232.8391,300.4869 233.2411,300.4869 Q233.5269,300.4869 233.7255,300.3125 Q233.9289,300.1333 234.0355,299.7022 L234.3552,299.862 Q234.2341,300.4045 233.9434,300.7097 Q233.6528,301.01 233.2556,301.01 Z " fill="#000000"/><text fill="#000000" font-family="sans-serif" font-size="4.34" lengthAdjust="spacing" textLength="43.09" x="239.7075" y="301.16">CHWifiModule2Device</text><line style="stroke:#181818;stroke-width:0.155;" x1="191.735" x2="320.695" y1="304.11" y2="304.11"/><line style="stroke:#181818;stroke-width:0.155;" x1="191.735" x2="320.695" y1="306.59" y2="306.59"/><rect fill="#F24D5C" height="1.86" style="stroke:#C82930;stroke-width:0.31;" width="1.86" x="193.905" y="310.3286"/><text fill="#000000" font-family="sans-serif" font-size="4.34" lengthAdjust="spacing" textLength="121.52" x="197.625" y="312.8036">ssm2KeysMap: MutableMap&lt;String, String&gt; = mutableMapOf()</text></g><!--link CHSesameOS3Publish to CHSesameOS3--><g id="link_CHSesameOS3Publish_CHSesameOS3"><path codeLine="90" d="M342.984,91.1772 C337.9806,106.5656 327.298,136.4868 313.255,159.34 C308.4314,167.1923 302.7181,175.0663 296.8002,182.5156 " fill="none" id="CHSesameOS3Publish-to-CHSesameOS3" style="stroke:#181818;stroke-width:0.31;"/><polygon fill="#181818" points="295.771,183.8052,298.4816,182.4,296.7387,182.5944,296.5443,180.8516,295.771,183.8052" style="stroke:#181818;stroke-width:0.31;"/><text fill="#000000" font-family="sans-serif" font-size="4.03" lengthAdjust="spacing" textLength="20.77" x="306.745" y="173.5684">implements</text></g><!--link CHBaseDevice to CHSesameOS3--><g id="link_CHBaseDevice_CHSesameOS3"><path codeLine="91" d="M250.9729,144.5189 C251.7851,157.2134 252.6221,170.2954 253.3816,182.1715 " fill="none" id="CHBaseDevice-to-CHSesameOS3" style="stroke:#181818;stroke-width:0.31;"/><polygon fill="#181818" points="253.4839,183.7649,254.5459,180.9024,253.3864,182.218,252.0708,181.0584,253.4839,183.7649" style="stroke:#181818;stroke-width:0.31;"/><text fill="#000000" font-family="sans-serif" font-size="4.03" lengthAdjust="spacing" textLength="14.26" x="252.805" y="173.5684">extends</text></g><!--link CHDevices to CHWifiModule2--><g id="link_CHDevices_CHWifiModule2"><path codeLine="94" d="M84.165,159.3989 C84.165,170.4411 84.165,181.3097 84.165,190.9755 " fill="none" id="CHDevices-to-CHWifiModule2" style="stroke:#181818;stroke-width:0.31;"/><polygon fill="#181818" points="84.165,192.6402,85.405,189.8502,84.165,191.0902,82.925,189.8502,84.165,192.6402" style="stroke:#181818;stroke-width:0.31;"/><text fill="#000000" font-family="sans-serif" font-size="4.03" lengthAdjust="spacing" textLength="14.26" x="84.475" y="173.5684">extends</text></g><!--link CHWifiModule2 to CHWifiModule2Device--><g id="link_CHWifiModule2_CHWifiModule2Device"><path codeLine="96" d="M144.3112,260.8898 C150.4275,263.9867 156.5965,266.9813 162.595,269.7 C182.5869,278.7644 205.7191,287.3235 223.9874,293.6568 " fill="none" id="CHWifiModule2-to-CHWifiModule2Device" style="stroke:#181818;stroke-width:0.31;"/><polygon fill="#181818" points="225.5157,294.1838,223.2891,292.0947,224.052,293.6737,222.473,294.4366,225.5157,294.1838" style="stroke:#181818;stroke-width:0.31;"/><text fill="#000000" font-family="sans-serif" font-size="4.03" lengthAdjust="spacing" textLength="20.77" x="198.555" y="283.9284">implements</text></g><!--link CHDeviceUtil to CHWifiModule2Device--><g id="link_CHDeviceUtil_CHWifiModule2Device"><path codeLine="97" d="M381.3465,246.0036 C372.3193,254.0977 361.0942,263.1683 349.835,269.7 C332.3789,279.8277 311.4291,287.8939 293.7746,293.6785 " fill="none" id="CHDeviceUtil-to-CHWifiModule2Device" style="stroke:#181818;stroke-width:0.31;"/><polygon fill="#181818" points="292.2928,294.1621,295.3304,294.4699,293.7655,293.6786,294.5568,292.1137,292.2928,294.1621" style="stroke:#181818;stroke-width:0.31;"/><text fill="#000000" font-family="sans-serif" font-size="4.03" lengthAdjust="spacing" textLength="20.77" x="330.615" y="283.9284">implements</text></g><!--link CHSesameOS3 to CHWifiModule2Device--><g id="link_CHSesameOS3_CHWifiModule2Device"><path codeLine="98" d="M256.215,269.7341 C256.215,278.1568 256.215,286.316 256.215,292.5873 " fill="none" id="CHSesameOS3-to-CHWifiModule2Device" style="stroke:#181818;stroke-width:0.31;"/><polygon fill="#181818" points="256.215,294.1404,257.455,291.3504,256.215,292.5904,254.975,291.3504,256.215,294.1404" style="stroke:#181818;stroke-width:0.31;"/><text fill="#000000" font-family="sans-serif" font-size="4.03" lengthAdjust="spacing" textLength="14.26" x="256.525" y="283.9284">extends</text></g><!--SRC=[bLRDRXit4BxlK_0eGn7KfhT5Qi6IcbXePHkId9pftT6Ay2wv8Bbo1CENe40llRI70Ecrb_PGj4LxgrydQNBoAtIuvFxAbjKzSJdV36Sutmo7SGroIGCWe-CvA9h0wVoBi-mYPcf5hZr2keA_e5fRcHDq3hmRpmjYgXIg3Qc2CQnP0DTUDsGg49n3e17K3QL8luODBdigD_0K_yPKKtzqR5MyNh6QQwepvJT_lLve_rOq55SFG188LgN8EIg55e68fwN8wn52KYd2BD1J4KBie-jdjNy4H1ZexFKmMov1-iHQ6iOmWm3O6YJvSdklSq2Suc9RSI4fLmdJ0zJaMHmRQ6Ab2t49t2V3ZOOZAUa6RveGb8vMLD80SyAKPW42uWoq47fbaj0KLbQjBiO0w0YOmEeND7Rx1Rw46yY29Q0qJLB_6y6Z5YGM4UCx4TR89FJ9-Vbat18oDOC8NGK921WA4GFb2D4o0mUHIZ6VJ7X-HPyLbz08kdK7MsUS08H7cLuzbmBlLgvD1jnP1hkaiG93rvAl9SrpVXiZ0KjNLU9GWhaRvNkjqu8a7D4u7jBWqYVJJDEB6AOqVNPkylYaqf-1IWLNOC0N23v4Cqa9FrrYGLY32XAQheG4SxXRvZHpwyxd1rxxGWgZRNAuRLEpLGdYZtOij7yAU3WIIK9vQ3SYq2z1AYRuWaPsIu821y_I4AdpdCdaYg8x-LvAPG17uvVsxy7-m6gjnV9HNPjWgceb3vVhO1TBTz1ptrfecA_SQJIM1gJUW5h0mHQPxw-ENMNXP3iR52c-BgcrMKnM5ci3dkMhPwFZhv9KRmujnxe44vptuCfjuYH5Uzx7H8qZM_2vben79Lgwy1wtQudsAAn5Gi6B-ghfbBLWGonr0mce-o93afXGBs5pWeJ3SijzVaBkERomGAhe2tsrxMpUlb6hW8moVLWBC17hwlJ8BGmbTZZWeYUDy7SQuO_5rBnGlFLZJ96G6vDFJQFQIxIFHr53_w2cFQX1J6dEMSInHaphAFmZxURmYYqPCZoBuQdjo6igYLA96HOKzij6gorYT9mp-7w_KEAWhuIyhCgqPle4zAjIDYYAoMZb7GcqHdijdMabgLIM6ISgeDpWvlF9-37-5YfuVg61ZIBSErrD_JDyn336i9EwnV-ru_g6iRMdvmmhJReEhpfsaAkQYThtO5iBreopWWbU6FBj4S7DFU_9kMOnCgP7Q8ZFlcRucWBFrN5ZqE-__-Vd3p_-LZwrZG6qD8AuJp_yyVxxT__-zEt7lxxxyFQTKuZ4v7I1yztrJR__yPStdzx-UNVxwztjxtUtVzSVe8wsevoDeHWOZCF5m54ZL34dz_Rbz_RWSEFTCwdtUeUDoSPdIHhdjw6y-eI-3OJN6YS2XVDHcL03QdXTWHhRMpYhtpoxojHUyCgp1z2bA_y1]--></g></svg>