<?xml version="1.0" encoding="us-ascii" standalone="no"?><svg xmlns="http://www.w3.org/2000/svg" xmlns:xlink="http://www.w3.org/1999/xlink" contentStyleType="text/css" height="192px" preserveAspectRatio="none" style="width:372px;height:192px;background:#FFFFFF;" version="1.1" viewBox="0 0 372 192" width="372px" zoomAndPan="magnify"><defs/><g><line style="stroke:#181818;stroke-width:0.5;stroke-dasharray:5.0,5.0;" x1="25" x2="25" y1="39.1201" y2="154.3833"/><line style="stroke:#181818;stroke-width:0.5;stroke-dasharray:5.0,5.0;" x1="337" x2="337" y1="39.1201" y2="154.3833"/><rect fill="#E2E2F0" height="33.1201" rx="2.5" ry="2.5" style="stroke:#181818;stroke-width:0.5;" width="41" x="5" y="5"/><text fill="#000000" font-family="sans-serif" font-size="14" lengthAdjust="spacing" textLength="27" x="12" y="28.0439">APP</text><rect fill="#E2E2F0" height="33.1201" rx="2.5" ry="2.5" style="stroke:#181818;stroke-width:0.5;" width="41" x="5" y="153.3833"/><text fill="#000000" font-family="sans-serif" font-size="14" lengthAdjust="spacing" textLength="27" x="12" y="176.4272">APP</text><rect fill="#E2E2F0" height="33.1201" rx="2.5" ry="2.5" style="stroke:#181818;stroke-width:0.5;" width="57" x="309" y="5"/><text fill="#000000" font-family="sans-serif" font-size="14" lengthAdjust="spacing" textLength="43" x="316" y="28.0439">Device</text><rect fill="#E2E2F0" height="33.1201" rx="2.5" ry="2.5" style="stroke:#181818;stroke-width:0.5;" width="57" x="309" y="153.3833"/><text fill="#000000" font-family="sans-serif" font-size="14" lengthAdjust="spacing" textLength="43" x="316" y="176.4272">Device</text><polygon fill="#181818" points="325.5,68.8745,335.5,72.8745,325.5,76.8745,329.5,72.8745" style="stroke:#181818;stroke-width:1.0;"/><line style="stroke:#181818;stroke-width:1.0;" x1="25.5" x2="331.5" y1="72.8745" y2="72.8745"/><text fill="#000000" font-family="sans-serif" font-size="13" lengthAdjust="spacing" textLength="170" x="32.5" y="68.0181">send_command(107,payload)</text><polygon fill="#181818" points="36.5,100.6289,26.5,104.6289,36.5,108.6289,32.5,104.6289" style="stroke:#181818;stroke-width:1.0;"/><line style="stroke:#181818;stroke-width:1.0;stroke-dasharray:2.0,2.0;" x1="30.5" x2="336.5" y1="104.6289" y2="104.6289"/><text fill="#000000" font-family="sans-serif" font-size="13" lengthAdjust="spacing" textLength="279" x="42.5" y="99.7725">response_command(response,command,status)</text><polygon fill="#181818" points="36.5,132.3833,26.5,136.3833,36.5,140.3833,32.5,136.3833" style="stroke:#181818;stroke-width:1.0;"/><line style="stroke:#181818;stroke-width:1.0;stroke-dasharray:2.0,2.0;" x1="30.5" x2="336.5" y1="136.3833" y2="136.3833"/><text fill="#000000" font-family="sans-serif" font-size="13" lengthAdjust="spacing" textLength="288" x="42.5" y="131.5269">response_command(response,command,payload)</text><!--SRC=[Smm8KD2rKt19BSjCJhLIK2XEpKk9JyxFpKtCIz4mD33NAKYipCbFJD7aWYXHq0MgTWm8i58eIYqkoCyhJeMhXWdeG0LqYaiIIqgBDRamj1AX5sOj0000]--></g></svg>