<?xml version="1.0" encoding="us-ascii" standalone="no"?><svg xmlns="http://www.w3.org/2000/svg" xmlns:xlink="http://www.w3.org/1999/xlink" contentStyleType="text/css" height="160px" preserveAspectRatio="none" style="width:355px;height:160px;background:#FFFFFF;" version="1.1" viewBox="0 0 355 160" width="355px" zoomAndPan="magnify"><defs/><g><line style="stroke:#181818;stroke-width:0.5;stroke-dasharray:5.0,5.0;" x1="25" x2="25" y1="39.1201" y2="122.6289"/><line style="stroke:#181818;stroke-width:0.5;stroke-dasharray:5.0,5.0;" x1="320" x2="320" y1="39.1201" y2="122.6289"/><rect fill="#E2E2F0" height="33.1201" rx="2.5" ry="2.5" style="stroke:#181818;stroke-width:0.5;" width="41" x="5" y="5"/><text fill="#000000" font-family="sans-serif" font-size="14" lengthAdjust="spacing" textLength="27" x="12" y="28.0439">APP</text><rect fill="#E2E2F0" height="33.1201" rx="2.5" ry="2.5" style="stroke:#181818;stroke-width:0.5;" width="41" x="5" y="121.6289"/><text fill="#000000" font-family="sans-serif" font-size="14" lengthAdjust="spacing" textLength="27" x="12" y="144.6729">APP</text><rect fill="#E2E2F0" height="33.1201" rx="2.5" ry="2.5" style="stroke:#181818;stroke-width:0.5;" width="57" x="292" y="5"/><text fill="#000000" font-family="sans-serif" font-size="14" lengthAdjust="spacing" textLength="43" x="299" y="28.0439">Device</text><rect fill="#E2E2F0" height="33.1201" rx="2.5" ry="2.5" style="stroke:#181818;stroke-width:0.5;" width="57" x="292" y="121.6289"/><text fill="#000000" font-family="sans-serif" font-size="14" lengthAdjust="spacing" textLength="43" x="299" y="144.6729">Device</text><polygon fill="#181818" points="308.5,68.8745,318.5,72.8745,308.5,76.8745,312.5,72.8745" style="stroke:#181818;stroke-width:1.0;"/><line style="stroke:#181818;stroke-width:1.0;stroke-dasharray:2.0,2.0;" x1="25.5" x2="314.5" y1="72.8745" y2="72.8745"/><text fill="#000000" font-family="sans-serif" font-size="13" lengthAdjust="spacing" textLength="195" x="32.5" y="68.0181">send_command(122,finger_mode)</text><polygon fill="#181818" points="36.5,100.6289,26.5,104.6289,36.5,108.6289,32.5,104.6289" style="stroke:#181818;stroke-width:1.0;"/><line style="stroke:#181818;stroke-width:1.0;stroke-dasharray:2.0,2.0;" x1="30.5" x2="319.5" y1="104.6289" y2="104.6289"/><text fill="#000000" font-family="sans-serif" font-size="13" lengthAdjust="spacing" textLength="271" x="42.5" y="99.7725">response_command(7,122,status,finger_mode)</text><!--SRC=[Smm8KD3LjLDmIItBJ4wrKb0eJirBYK_EpyrDp4lHC3GoqadBp4jFBOhFpKz9rUI2A0FhS0m8i58eIYqkoCyhJeNhCDS1wIakIImfBKRL2W00]--></g></svg>