<?xml version="1.0" encoding="us-ascii" standalone="no"?><svg xmlns="http://www.w3.org/2000/svg" xmlns:xlink="http://www.w3.org/1999/xlink" contentStyleType="text/css" height="256px" preserveAspectRatio="none" style="width:337px;height:256px;background:#FFFFFF;" version="1.1" viewBox="0 0 337 256" width="337px" zoomAndPan="magnify"><defs/><g><line style="stroke:#181818;stroke-width:0.5;stroke-dasharray:5.0,5.0;" x1="25" x2="25" y1="39.1201" y2="217.8921"/><line style="stroke:#181818;stroke-width:0.5;stroke-dasharray:5.0,5.0;" x1="302" x2="302" y1="39.1201" y2="217.8921"/><rect fill="#E2E2F0" height="33.1201" rx="2.5" ry="2.5" style="stroke:#181818;stroke-width:0.5;" width="41" x="5" y="5"/><text fill="#000000" font-family="sans-serif" font-size="14" lengthAdjust="spacing" textLength="27" x="12" y="28.0439">APP</text><rect fill="#E2E2F0" height="33.1201" rx="2.5" ry="2.5" style="stroke:#181818;stroke-width:0.5;" width="41" x="5" y="216.8921"/><text fill="#000000" font-family="sans-serif" font-size="14" lengthAdjust="spacing" textLength="27" x="12" y="239.936">APP</text><rect fill="#E2E2F0" height="33.1201" rx="2.5" ry="2.5" style="stroke:#181818;stroke-width:0.5;" width="57" x="274" y="5"/><text fill="#000000" font-family="sans-serif" font-size="14" lengthAdjust="spacing" textLength="43" x="281" y="28.0439">Device</text><rect fill="#E2E2F0" height="33.1201" rx="2.5" ry="2.5" style="stroke:#181818;stroke-width:0.5;" width="57" x="274" y="216.8921"/><text fill="#000000" font-family="sans-serif" font-size="14" lengthAdjust="spacing" textLength="43" x="281" y="239.936">Device</text><polygon fill="#181818" points="290.5,68.8745,300.5,72.8745,290.5,76.8745,294.5,72.8745" style="stroke:#181818;stroke-width:1.0;"/><line style="stroke:#181818;stroke-width:1.0;stroke-dasharray:2.0,2.0;" x1="25.5" x2="296.5" y1="72.8745" y2="72.8745"/><text fill="#000000" font-family="sans-serif" font-size="13" lengthAdjust="spacing" textLength="121" x="32.5" y="68.0181">send_command(117)</text><polygon fill="#181818" points="36.5,100.6289,26.5,104.6289,36.5,108.6289,32.5,104.6289" style="stroke:#181818;stroke-width:1.0;"/><line style="stroke:#181818;stroke-width:1.0;stroke-dasharray:2.0,2.0;" x1="30.5" x2="301.5" y1="104.6289" y2="104.6289"/><text fill="#000000" font-family="sans-serif" font-size="13" lengthAdjust="spacing" textLength="197" x="42.5" y="99.7725">response_command(7,117,status)</text><polygon fill="#181818" points="36.5,132.3833,26.5,136.3833,36.5,140.3833,32.5,136.3833" style="stroke:#181818;stroke-width:1.0;"/><line style="stroke:#181818;stroke-width:1.0;" x1="30.5" x2="301.5" y1="136.3833" y2="136.3833"/><text fill="#000000" font-family="sans-serif" font-size="13" lengthAdjust="spacing" textLength="253" x="42.5" y="131.5269">&#25512;&#36865;&#24320;&#22987; response_command(8,120,status)</text><polygon fill="#181818" points="36.5,164.1377,26.5,168.1377,36.5,172.1377,32.5,168.1377" style="stroke:#181818;stroke-width:1.0;"/><line style="stroke:#181818;stroke-width:1.0;" x1="30.5" x2="301.5" y1="168.1377" y2="168.1377"/><text fill="#000000" font-family="sans-serif" font-size="13" lengthAdjust="spacing" textLength="227" x="42.5" y="163.2813">&#25512;&#36865; response_command(8,118,status)</text><polygon fill="#181818" points="36.5,195.8921,26.5,199.8921,36.5,203.8921,32.5,199.8921" style="stroke:#181818;stroke-width:1.0;"/><line style="stroke:#181818;stroke-width:1.0;" x1="30.5" x2="301.5" y1="199.8921" y2="199.8921"/><text fill="#000000" font-family="sans-serif" font-size="13" lengthAdjust="spacing" textLength="253" x="42.5" y="195.0356">&#25512;&#36865;&#32467;&#26463; response_command(8,119,status)</text><!--SRC=[Smm8KD3LjLDmIItBJ4wrKb0eJirBYK_EpyrDp4lHC3Gqr-I2I85LEGO4M2aKfHONvESLfy9LcUi0rUaKboIMb1OZb4DKF-jRyRAXyUcUXgVBkp5rMkWO6XdWrObLZw45NZtFTqz-DdS-TfsMS9rS0000]--></g></svg>